{
.appVersion = "3148";
.formatVersion = 3;
classes = (
{
automatic = 1;

glyphs = (
{
glyphname = A;
kernLeft = A;
kernRight = A;
lastChange = "2022-12-20 22:11:20 +0000";
layers = (
{
anchors = (
{
name = bottom;
pos = (299,0);
},
{
name = ogonek;
pos = (522,10);
},
{
name = top;
pos = (291,700);
},
{
name = topleft;
pos = (1,700);
}
);
hints = (
{
horizontal = 1;
place = (0, 21);
target = up;
type = BottomGhost;
},
{
horizontal = 1;
place = (166, 113);
place = (166, 113);
type = Stem;
},
{
horizontal = 1;
place = (700, -20);
target = down;
type = TopGhost;
},
{
place = (0, 608);
place = (0, 608);
type = Stem;
},
{
horizontal = 1;
place = (575, 125);
place = (575, 125);
type = Stem;
}
);
layerId = m01;
shapes = (
{
closed = 1;
nodes = (
(117,0,l),
(291,585,l),
(479,0,l),
(603,0,l),
(360,700,l),
(221,700,l),
(-5,0,l)
);
},
{
closed = 1;
nodes = (
(441,166,l),
(404,279,l),
(185,279,l),
(151,166,l)
);
}
);
userData = {
com.hugojourdan.ColorFlow = {
"0" = 0;
"1" = 0;
"10" = 0;
"11" = 0;
"2" = 0;
"3" = 0;
"4" = 1;
"5" = 0;
"6" = 0;
"7" = 0;
"8" = 0;
"9" = 0;
};
com.hugojourdan.ColorFlow_Color_4 = "4";
};
width = 598;
}
);
metricRight = "=|";
note = A;
unicode = 65;
},
{
glyphname = Astroke;
kernLeft = A;
kernRight = A;
lastChange = "2022-12-20 11:01:57 +0000";
layers = (
{
anchors = (
{
name = bottom;
pos = (299,0);
},
{
name = ogonek;
pos = (542,10);
},
{
name = top;
pos = (291,700);
}
);
hints = (
{
horizontal = 1;
place = (0, 21);
target = up;
type = BottomGhost;
},
{
horizontal = 1;
place = (166, 113);
place = (166, 113);
type = Stem;
},
{
horizontal = 1;
place = (700, -20);
target = down;
type = TopGhost;
},
{
place = (0, 608);
place = (0, 608);
type = Stem;
},
{
horizontal = 1;
place = (575, 125);
place = (575, 125);
type = Stem;
}
);
layerId = m01;
shapes = (
{
closed = 1;
nodes = (
(117,0,l),
(291,585,l),
(479,0,l),
(603,0,l),
(360,700,l),
(221,700,l),
(-5,0,l)
);
},
{
closed = 1;
nodes = (
(603,166,l),
(603,279,l),
(-5,279,l),
(-5,166,l)
);
}
);
userData = {
com.hugojourdan.ColorFlow = {
"0" = 0;
"1" = 0;
"10" = 0;
"11" = 0;
"2" = 0;
"3" = 0;
"4" = 0;
"5" = 0;
"6" = 0;
"7" = 0;
"8" = 0;
"9" = 0;
};
};
width = 598;
}
);
metricLeft = A;
metricRight = A;
unicode = 570;
},
{
glyphname = AE;
kernLeft = ae;
kernRight = E;
lastChange = "2022-12-20 12:21:19 +0000";
layers = (
{
anchors = (
{
name = bottom;
pos = (469,0);
},
{
name = top;
pos = (544,700);
}
);
hints = (
{
horizontal = 1;
place = (0, 113);
place = (0, 113);
type = Stem;
},
{
horizontal = 1;
place = (299, 113);
place = (299, 113);
type = Stem;
},
{
horizontal = 1;
place = (587, 113);
place = (587, 113);
type = Stem;
},
{
place = (0, 892);
place = (0, 892);
type = Stem;
},
{
horizontal = 1;
place = (166, 113);
place = (166, 113);
type = Stem;
}
);
layerId = m01;
shapes = (
{
closed = 1;
nodes = (
(127,0,l),
(430,570,l),
(489,0,l),
(887,0,l),
(887,113,l),
(597,113,l),
(576,299,l),
(887,299,l),
(887,412,l),
(564,412,l),
(544,587,l),
(887,587,l),
(887,700,l),
(375,700,l),
(-5,0,l)
);
},
{
closed = 1;
nodes = (
(488,166,l),
(477,279,l),
(259,279,l),
(199,166,l)
);
}
);
userData = {
com.hugojourdan.ColorFlow = {
"0" = 0;
"1" = 0;
"10" = 0;
"11" = 0;
"2" = 0;
"3" = 0;
"4" = 0;
"5" = 0;
"6" = 0;
"7" = 0;
"8" = 0;
"9" = 0;
};
};
width = 907;
}
);
metricLeft = A;
metricRight = E;
note = AE;
unicode = 198;
},
{
glyphname = B;
kernLeft = H;
kernRight = B;
lastChange = "2022-12-20 14:11:08 +0000";
layers = (
{
anchors = (
{
name = bottom;
pos = (284,0);
},
{
name = center;
pos = (284,350);
},
{
name = top;
pos = (284,700);
}
);
hints = (
{
horizontal = 1;
place = (0, 113);
place = (0, 113);
type = Stem;
},
{
horizontal = 1;
place = (216, 113);
place = (216, 113);
type = Stem;
},
{
horizontal = 1;
place = (587, 113);
place = (587, 113);
type = Stem;
},
{
place = (70, 119);
place = (70, 119);
type = Stem;
},
{
place = (440, 123);
place = (440, 123);
type = Stem;
},
{
horizontal = 1;
place = (359, 113);
place = (359, 113);
type = Stem;
},
{
place = (439, 123);
place = (439, 123);
type = Stem;
}
);
layerId = m01;
shapes = (
{
closed = 1;
nodes = (
(366,0,ls),
(484,0,o),
(543,82,o),
(543,165,cs),
(543,247,o),
(484,329,o),
(366,329,cs),
(169,329,l),
(169,359,l),
(356,359,ls),
(480,359,o),
(542,444,o),
(542,530,cs),
(542,615,o),
(480,700,o),
(356,700,cs),
(50,700,l),
(50,0,l)
);
},
{
closed = 1;
nodes = (
(169,216,l),
(367,216,ls),
(403,216,o),
(420,190,o),
(420,165,cs),
(420,139,o),
(403,113,o),
(367,113,cs),
(169,113,l)
);
},
{
closed = 1;
nodes = (
(169,587,l),
(357,587,ls),
(399,587,o),
(419,558,o),
(419,530,cs),
(419,501,o),
(399,472,o),
(357,472,cs),
(169,472,l)
);
}
);
userData = {
com.hugojourdan.ColorFlow = {
"0" = 0;
"1" = 0;
"10" = 0;
"11" = 0;
"2" = 0;
"3" = 0;
"4" = 0;
"5" = 0;
"6" = 0;
"7" = 0;
"8" = 0;
"9" = 0;
};
};
width = 563;
}
);
metricLeft = "=H";
note = B;
unicode = 66;
},
{
glyphname = Bhook;
kernLeft = Bhook;
kernRight = B;
lastChange = "2022-12-20 11:02:12 +0000";
layers = (
{
layerId = m01;
shapes = (
{
closed = 1;
nodes = (
(-26,494,l),
(-26,521,ls),
(-26,570,o),
(0,587,o),
(43,587,cs),
(249,587,l),
(249,700,l),
(49,700,ls),
(-56,700,o),
(-140,644,o),
(-140,529,cs),
(-140,494,l)
);
},
{
pos = (-1,0);
ref = B;
}
);
userData = {
com.hugojourdan.ColorFlow = {
"0" = 0;
"1" = 0;
"10" = 0;
"11" = 0;
"2" = 0;
"3" = 0;
"4" = 0;
"5" = 0;
"6" = 0;
"7" = 0;
"8" = 0;
"9" = 0;
};
};
width = 562;
}
);
metricRight = B;
unicode = 385;
},
{
glyphname = Bstroke;
kernLeft = Bstroke;
kernRight = B;
lastChange = "2022-12-20 11:02:20 +0000";
layers = (
{
layerId = m01;
shapes = (
{
closed = 1;
nodes = (
(130,359,l),
(130,472,l),
(-20,472,l),
(-20,359,l)
);
},
{
pos = (-3,0);
ref = B;
}
);
userData = {
com.hugojourdan.ColorFlow = {
"0" = 0;
"1" = 0;
"10" = 0;
"11" = 0;
"2" = 0;
"3" = 0;
"4" = 0;
"5" = 0;
"6" = 0;
"7" = 0;
"8" = 0;
"9" = 0;
};
};
width = 560;
}
);
metricRight = B;
unicode = 579;
},
{
glyphname = C;
kernLeft = O;
kernRight = C;
lastChange = "2022-12-20 22:06:59 +0000";
layers = (
{
anchors = (
{
name = bottom;
pos = (369,0);
},
{
name = top;
pos = (369,700);
}
);
hints = (
{
horizontal = 1;
place = (-10, 117);
place = (-10, 117);
type = Stem;
},
{
horizontal = 1;
place = (593, 117);
place = (593, 117);
type = Stem;
},
{
place = (30, 123);
place = (30, 123);
type = Stem;
}
);
layerId = m01;
shapes = (
{
closed = 1;
nodes = (
(482,-10,o),
(582,35,o),
(650,129,c),
(559,210,l),
(516,139,o),
(448,107,o),
(371,107,cs),
(247,107,o),
(138,201,o),
(138,351,cs),
(138,499,o),
(249,593,o),
(371,593,cs),
(451,593,o),
(516,553,o),
(559,487,c),
(654,564,l),
(589,661,o),
(486,710,o),
(371,710,cs),
(185,710,o),
(15,567,o),
(15,351,cs),
(15,133,o),
(183,-10,o),
(369,-10,cs)
);
}
);
userData = {
com.hugojourdan.ColorFlow = {
"0" = 0;
"1" = 0;
"10" = 0;
"11" = 0;
"2" = 0;
"3" = 0;
"4" = 0;
"5" = 0;
"6" = 0;
"7" = 0;
"8" = 0;
"9" = 0;
};
};
width = 659;
}
);
metricLeft = "=O";
note = C;
unicode = 67;
},
{
glyphname = Chook;
kernLeft = O;
kernRight = Chook;
lastChange = "2022-12-20 11:02:30 +0000";
layers = (
{
anchors = (
{
name = bottom;
pos = (369,0);
},
{
name = top;
pos = (369,700);
}
);
background = {
shapes = (
{
pos = (74,0);
ref = B;
},
{
closed = 1;
nodes = (
(69,570,o),
(95,587,o),
(138,587,cs),
(344,587,l),
(344,700,l),
(144,700,ls),
(39,700,o),
(-45,644,o),
(-45,529,cs),
(-45,494,l),
(69,494,l),
(69,521,ls)
);
}
);
};
hints = (
{
horizontal = 1;
place = (-10, 117);
place = (-10, 117);
type = Stem;
},
{
horizontal = 1;
place = (593, 117);
place = (593, 117);
type = Stem;
},
{
place = (30, 123);
place = (30, 123);
type = Stem;
}
);
layerId = m01;
shapes = (
{
closed = 1;
nodes = (
(482,-10,o),
(582,35,o),
(650,129,c),
(559,210,l),
(516,139,o),
(448,107,o),
(371,107,cs),
(247,107,o),
(138,201,o),
(138,351,cs),
(138,499,o),
(249,593,o),
(371,593,cs),
(451,593,o),
(516,553,o),
(559,487,c),
(634,544,l),
(587,670,o),
(479,710,o),
(371,710,cs),
(185,710,o),
(15,567,o),
(15,351,cs),
(15,133,o),
(183,-10,o),
(369,-10,cs)
);
},
{
closed = 1;
nodes = (
(661,401,l),
(661,568,ls),
(661,611,o),
(678,637,o),
(727,637,cs),
(754,637,l),
(754,750,l),
(718,750,ls),
(603,750,o),
(547,666,o),
(547,561,cs),
(547,401,l)
);
}
);
userData = {
com.hugojourdan.ColorFlow = {
"0" = 0;
"1" = 0;
"10" = 0;
"11" = 0;
"2" = 0;
"3" = 0;
"4" = 0;
"5" = 0;
"6" = 0;
"7" = 0;
"8" = 0;
"9" = 0;
};
};
width = 674;
}
);
metricLeft = C;
unicode = 391;
},
{
glyphname = Cstroke;
kernLeft = Cstroke;
kernRight = C;
lastChange = "2022-12-20 12:21:54 +0000";
layers = (
{
layerId = m01;
shapes = (
{
closed = 1;
nodes = (
(526,299,l),
(526,412,l),
(-35,412,l),
(-35,299,l)
);
},
{
pos = (-4,0);
ref = C;
}
);
userData = {
com.hugojourdan.ColorFlow = {
"0" = 0;
"1" = 0;
"10" = 0;
"11" = 0;
"2" = 0;
"3" = 0;
"4" = 0;
"5" = 0;
"6" = 0;
"7" = 0;
"8" = 0;
"9" = 0;
};
};
width = 655;
}
);
metricRight = C;
unicode = 571;
},
{
glyphname = D;
kernLeft = H;
kernRight = O;
lastChange = "2022-12-20 12:21:58 +0000";
layers = (
{
anchors = (
{
name = bottom;
pos = (283,0);
},
{
name = center;
pos = (302,350);
},
{
name = top;
pos = (290,700);
}
);
hints = (
{
horizontal = 1;
place = (0, 113);
place = (0, 113);
type = Stem;
},
{
horizontal = 1;
place = (587, 113);
place = (587, 113);
type = Stem;
},
{
place = (70, 119);
place = (70, 119);
type = Stem;
},
{
place = (490, 123);
place = (490, 123);
type = Stem;
}
);
layerId = m01;
shapes = (
{
closed = 1;
nodes = (
(266,0,ls),
(484,0,o),
(593,175,o),
(593,350,cs),
(593,525,o),
(484,700,o),
(266,700,cs),
(50,700,l),
(50,0,l)
);
},
{
closed = 1;
nodes = (
(169,587,l),
(267,587,ls),
(403,587,o),
(470,469,o),
(470,350,cs),
(470,232,o),
(403,113,o),
(267,113,cs),
(169,113,l)
);
}
);
userData = {
com.hugojourdan.ColorFlow = {
"0" = 0;
"1" = 0;
"10" = 0;
"11" = 0;
"2" = 0;
"3" = 0;
"4" = 0;
"5" = 0;
"6" = 0;
"7" = 0;
"8" = 0;
"9" = 0;
};
};
width = 608;
}
);
metricLeft = "=H";
metricRight = O;
note = D;
unicode = 68;
},
{
glyphname = Eth;
kernLeft = H;
kernRight = O;
lastChange = "2022-12-15 14:56:07 +0000";
layers = (
{
layerId = m01;
shapes = (
{
closed = 1;
nodes = (
(322,299,l),
(322,412,l),
(-20,412,l),
(-20,299,l)
);
},
{
pos = (-11,0);
ref = D;
}
);
userData = {
com.hugojourdan.ColorFlow = {
"0" = 0;
"1" = 0;
"10" = 0;
"11" = 0;
"2" = 0;
"3" = 0;
"4" = 0;
"5" = 0;
"6" = 0;
"7" = 0;
"8" = 0;
"9" = 0;
};
};
width = 597;
}
);
metricRight = D;
unicode = 208;
},
{
glyphname = Dhook;
kernLeft = Dhook;
kernRight = O;
lastChange = "2022-12-20 12:22:04 +0000";
layers = (
{
layerId = m01;
shapes = (
{
closed = 1;
nodes = (
(-26,494,l),
(-26,521,ls),
(-26,570,o),
(0,587,o),
(43,587,cs),
(249,587,l),
(249,700,l),
(49,700,ls),
(-56,700,o),
(-140,644,o),
(-140,529,cs),
(-140,494,l)
);
},
{
pos = (-1,0);
ref = D;
}
);
userData = {
com.hugojourdan.ColorFlow = {
"0" = 0;
"1" = 0;
"10" = 0;
"11" = 0;
"2" = 0;
"3" = 0;
"4" = 0;
"5" = 0;
"6" = 0;
"7" = 0;
"8" = 0;
"9" = 0;
};
};
width = 607;
}
);
metricLeft = Bhook;
metricRight = D;
unicode = 394;
},
{
glyphname = Dtail;
kernLeft = Dtail;
kernRight = O;
lastChange = "2022-12-20 12:22:11 +0000";
layers = (
{
anchors = (
{
name = bottom;
pos = (299,0);
},
{
name = center;
pos = (311,350);
},
{
name = top;
pos = (299,700);
}
);
hints = (
{
horizontal = 1;
place = (0, 113);
place = (0, 113);
type = Stem;
},
{
horizontal = 1;
place = (587, 113);
place = (587, 113);
type = Stem;
},
{
place = (99, 119);
place = (99, 119);
type = Stem;
},
{
place = (519, 123);
place = (519, 123);
type = Stem;
}
);
layerId = m01;
shapes = (
{
closed = 1;
nodes = (
(275,0,ls),
(493,0,o),
(602,175,o),
(602,350,cs),
(602,525,o),
(493,700,o),
(275,700,cs),
(59,700,l),
(59,0,l)
);
},
{
closed = 1;
nodes = (
(362,299,l),
(362,412,l),
(-20,412,l),
(-20,299,l)
);
},
{
closed = 1;
nodes = (
(178,587,l),
(276,587,ls),
(412,587,o),
(479,469,o),
(479,350,cs),
(479,232,o),
(412,113,o),
(276,113,cs),
(178,113,l)
);
}
);
userData = {
com.hugojourdan.ColorFlow = {
"0" = 0;
"1" = 0;
"10" = 0;
"11" = 0;
"2" = 0;
"3" = 0;
"4" = 0;
"5" = 0;
"6" = 0;
"7" = 0;
"8" = 0;
"9" = 0;
};
};
width = 617;
}
);
metricLeft = Eth;
metricRight = D;
unicode = 393;
},
{
glyphname = E;
kernLeft = H;
kernRight = H;
lastChange = "2022-12-20 22:02:05 +0000";
layers = (
{
anchors = (
{
name = bottom;
pos = (271,0);
},
{
name = ogonek;
pos = (456,10);
},
{
name = top;
pos = (271,700);
},
{
name = topleft;
pos = (-130,700);
}
);
hints = (
{
horizontal = 1;
place = (0, 113);
place = (0, 113);
type = Stem;
},
{
horizontal = 1;
place = (299, 113);
place = (299, 113);
type = Stem;
},
{
horizontal = 1;
place = (587, 113);
place = (587, 113);
type = Stem;
},
{
place = (70, 119);
place = (70, 119);
type = Stem;
}
);
layerId = m01;
shapes = (
{
closed = 1;
nodes = (
(493,0,l),
(493,113,l),
(169,113,l),
(169,299,l),
(493,299,l),
(493,412,l),
(169,412,l),
(169,587,l),
(493,587,l),
(493,700,l),
(50,700,l),
(50,0,l)
);
}
);
userData = {
com.hugojourdan.ColorFlow = {
"0" = 0;
"1" = 0;
"10" = 0;
"11" = 0;
"2" = 0;
"3" = 0;
"4" = 0;
"5" = 0;
"6" = 0;
"7" = 0;
"8" = 0;
"9" = 0;
};
};
width = 513;
}
);
metricLeft = "=H";
metricRight = B;
note = E;
unicode = 69;
},
{
glyphname = Eopen;
kernLeft = Eopen;
kernRight = Eopen;
lastChange = "2022-12-20 12:22:25 +0000";
layers = (
{
anchors = (
{
name = bottom;
pos = (254,0);
},
{
name = top;
pos = (247,700);
}
);
hints = (
{
horizontal = 1;
origin = (0,15);
place = (394, 113);
type = Stem;
},
{
horizontal = 1;
origin = (0,15);
place = (394, 109);
type = Stem;
},
{
origin = (0,6);
place = (260, 119);
type = Stem;
}
);
layerId = m01;
shapes = (
{
closed = 1;
nodes = (
(391,-10,o),
(460,68,o),
(491,162,c),
(384,210,l),
(364,144,o),
(326,107,o),
(260,107,cs),
(208,107,o),
(158,139,o),
(158,202,cs),
(158,268,o),
(206,299,o),
(262,299,cs),
(352,299,l),
(352,394,l),
(233,394,ls),
(124,394,o),
(35,313,o),
(35,196,cs),
(35,79,o),
(123,-10,o),
(264,-10,cs)
);
},
{
closed = 1;
nodes = (
(352,317,l),
(352,412,l),
(269,412,ls),
(217,412,o),
(166,441,o),
(166,503,cs),
(166,564,o),
(211,593,o),
(258,593,cs),
(315,593,o),
(357,566,o),
(373,504,c),
(479,546,l),
(453,639,o),
(374,710,o),
(262,710,cs),
(130,710,o),
(43,624,o),
(43,508,cs),
(43,396,o),
(134,317,o),
(240,317,cs)
);
}
);
userData = {
com.hugojourdan.ColorFlow = {
"0" = 0;
"1" = 0;
"10" = 0;
"11" = 0;
"2" = 0;
"3" = 0;
"4" = 0;
"5" = 0;
"6" = 0;
"7" = 0;
"8" = 0;
"9" = 0;
};
};
width = 511;
}
);
metricLeft = Ezh;
metricRight = Ezh;
unicode = 400;
},
{
glyphname = Esh;
kernLeft = Esh;
kernRight = Esh;
lastChange = "2022-12-20 12:22:21 +0000";
layers = (
{
anchors = (
{
name = bottom;
pos = (278,0);
},
{
name = center;
pos = (278,350);
},
{
name = top;
pos = (278,700);
}
);
hints = (
{
horizontal = 1;
place = (0, 113);
place = (0, 113);
type = Stem;
},
{
horizontal = 1;
place = (587, 113);
place = (587, 113);
type = Stem;
},
{
place = (20, 506);
place = (20, 506);
type = Stem;
}
);
layerId = m01;
shapes = (
{
closed = 1;
nodes = (
(359,402,l),
(184,587,l),
(506,587,l),
(506,700,l),
(40,700,l),
(40,587,l),
(257,352,l),
(359,312,l)
);
},
{
closed = 1;
nodes = (
(506,0,l),
(506,113,l),
(188,113,l),
(359,312,l),
(258,362,l),
(40,113,l),
(40,0,l)
);
}
);
userData = {
com.hugojourdan.ColorFlow = {
"0" = 0;
"1" = 0;
"10" = 0;
"11" = 0;
"2" = 0;
"3" = 0;
"4" = 0;
"5" = 0;
"6" = 0;
"7" = 0;
"8" = 0;
"9" = 0;
};
};
width = 511;
}
);
metricRight = C;
unicode = 425;
},
{
glyphname = Estroke;
kernLeft = Estroke;
kernRight = Estroke;
lastChange = "2022-12-20 12:22:27 +0000";
layers = (
{
layerId = m01;
shapes = (
{
closed = 1;
nodes = (
(379,299,l),
(379,412,l),
(-20,412,l),
(-20,299,l)
);
},
{
pos = (-11,0);
ref = E;
}
);
userData = {
com.hugojourdan.ColorFlow = {
"0" = 0;
"1" = 0;
"10" = 0;
"11" = 0;
"2" = 0;
"3" = 0;
"4" = 0;
"5" = 0;
"6" = 0;
"7" = 0;
"8" = 0;
"9" = 0;
};
};
width = 502;
}
);
metricLeft = Eth;
metricRight = E;
unicode = 582;
},
{
glyphname = Schwa;
kernLeft = O;
kernRight = O;
lastChange = "2022-12-15 14:55:05 +0000";
layers = (
{
anchors = (
{
name = bottom;
pos = (340,0);
},
{
name = top;
pos = (341,700);
}
);
hints = (
{
horizontal = 1;
place = (710, -117);
place = (710, -117);
type = Stem;
},
{
horizontal = 1;
place = (456, -113);
place = (456, -113);
type = Stem;
},
{
horizontal = 1;
place = (107, -117);
place = (107, -117);
type = Stem;
},
{
place = (724, -123);
place = (724, -123);
type = Stem;
},
{
place = (192, -121);
place = (192, -121);
type = Stem;
}
);
layerId = m01;
shapes = (
{
closed = 1;
nodes = (
(519,-10,o),
(690,133,o),
(690,349,cs),
(690,567,o),
(527,710,o),
(341,710,cs),
(135,710,o),
(15,551,o),
(15,405,cs),
(15,299,l),
(643,299,l),
(643,412,l),
(136,412,l),
(136,534,o),
(234,593,o),
(335,593,cs),
(464,593,o),
(567,499,o),
(567,349,cs),
(567,201,o),
(456,107,o),
(340,107,cs),
(249,107,o),
(184,147,o),
(134,213,c),
(39,136,l),
(111,39,o),
(213,-10,o),
(339,-10,cs)
);
}
);
userData = {
com.hugojourdan.ColorFlow = {
"0" = 0;
"1" = 0;
"10" = 0;
"11" = 0;
"2" = 0;
"3" = 0;
"4" = 0;
"5" = 0;
"6" = 0;
"7" = 0;
"8" = 0;
"9" = 0;
};
};
width = 705;
}
);
metricLeft = O;
metricRight = O;
unicode = 399;
},
{
glyphname = Ezh;
kernLeft = Ezh;
kernRight = Ezh;
lastChange = "2022-12-20 12:22:30 +0000";
layers = (
{
anchors = (
{
name = bottom;
pos = (291,0);
},
{
name = top;
pos = (298,700);
}
);
hints = (
{
horizontal = 1;
place = (-10, 113);
place = (-10, 113);
type = Stem;
},
{
horizontal = 1;
place = (562, 109);
place = (562, 109);
type = Stem;
},
{
place = (367, 119);
place = (367, 119);
type = Stem;
}
);
layerId = m01;
shapes = (
{
closed = 1;
nodes = (
(438,-10,o),
(532,86,o),
(532,223,cs),
(532,347,o),
(447,433,o),
(330,443,c),
(306,402,l),
(502,588,l),
(502,701,l),
(46,701,l),
(46,588,l),
(410,588,l),
(388,627,l),
(194,446,l),
(194,347,l),
(271,347,ls),
(343,347,o),
(409,303,o),
(409,222,cs),
(409,144,o),
(353,107,o),
(287,107,cs),
(218,107,o),
(164,141,o),
(144,222,c),
(35,179,l),
(62,69,o),
(161,-10,o),
(283,-10,cs)
);
}
);
userData = {
com.hugojourdan.ColorFlow = {
"0" = 0;
"1" = 0;
"10" = 0;
"11" = 0;
"2" = 0;
"3" = 0;
"4" = 0;
"5" = 0;
"6" = 0;
"7" = 0;
"8" = 0;
"9" = 0;
};
};
width = 552;
}
);
metricRight = B;
unicode = 439;
},
{
glyphname = F;
kernLeft = H;
kernRight = F;
lastChange = "2022-12-20 14:31:04 +0000";
layers = (
{
anchors = (
{
name = bottom;
pos = (239,0);
},
{
name = top;
pos = (239,700);
}
);
hints = (
{
horizontal = 1;
place = (0, 21);
target = up;
type = BottomGhost;
},
{
horizontal = 1;
place = (299, 113);
place = (299, 113);
type = Stem;
},
{
horizontal = 1;
place = (587, 113);
place = (587, 113);
type = Stem;
},
{
place = (70, 119);
place = (70, 119);
type = Stem;
}
);
layerId = m01;
shapes = (
{
closed = 1;
nodes = (
(169,0,l),
(169,299,l),
(477,299,l),
(477,412,l),
(169,412,l),
(169,587,l),
(477,587,l),
(477,700,l),
(50,700,l),
(50,0,l)
);
}
);
userData = {
com.hugojourdan.ColorFlow = {
"0" = 0;
"1" = 0;
"10" = 0;
"11" = 0;
"2" = 0;
"3" = 0;
"4" = 0;
"5" = 0;
"6" = 0;
"7" = 0;
"8" = 0;
"9" = 0;
};
};
width = 487;
}
);
metricLeft = "=H";
note = F;
unicode = 70;
},
{
glyphname = Fhook;
kernLeft = Fhook;
kernRight = F;
lastChange = "2022-12-20 11:04:45 +0000";
layers = (
{
layerId = m01;
shapes = (
{
closed = 1;
nodes = (
(2,-184,ls),
(112,-184,o),
(169,-100,o),
(169,0,cs),
(169,160,l),
(50,160,l),
(50,-7,ls),
(50,-45,o),
(38,-71,o),
(-6,-71,cs),
(-53,-71,l),
(-53,-184,l)
);
},
{
ref = F;
}
);
userData = {
com.hugojourdan.ColorFlow = {
"0" = 0;
"1" = 0;
"10" = 0;
"11" = 0;
"2" = 0;
"3" = 0;
"4" = 0;
"5" = 0;
"6" = 0;
"7" = 0;
"8" = 0;
"9" = 0;
};
};
width = 487;
}
);
metricRight = F;
unicode = 401;
},
{
glyphname = G;
kernLeft = O;
kernRight = G;
lastChange = "2022-12-20 22:37:55 +0000";
layers = (
{
anchors = (
{
name = bottom;
pos = (352,0);
},
{
name = top;
pos = (365,700);
}
);
hints = (
{
horizontal = 1;
place = (-10, 117);
place = (-10, 117);
type = Stem;
},
{
horizontal = 1;
place = (244, 113);
place = (244, 113);
type = Stem;
},
{
horizontal = 1;
place = (593, 117);
place = (593, 117);
type = Stem;
},
{
place = (30, 123);
place = (30, 123);
type = Stem;
},
{
place = (557, 119);
place = (557, 119);
type = Stem;
},
{
horizontal = 1;
place = (0, 21);
target = up;
type = BottomGhost;
}
);
layerId = m01;
shapes = (
{
closed = 1;
nodes = (
(431,-10,o),
(495,14,o),
(542,59,c),
(542,0,l),
(661,0,l),
(661,357,l),
(265,357,l),
(265,244,l),
(542,244,l),
(530,160,o),
(467,107,o),
(363,107,cs),
(241,107,o),
(138,201,o),
(138,351,cs),
(138,499,o),
(249,593,o),
(365,593,cs),
(456,593,o),
(520,553,o),
(568,487,c),
(663,564,l),
(593,661,o),
(492,710,o),
(366,710,cs),
(186,710,o),
(15,567,o),
(15,351,cs),
(15,133,o),
(178,-10,o),
(351,-10,cs)
);
}
);
userData = {
com.hugojourdan.ColorFlow = {
"0" = 0;
"1" = 0;
"10" = 0;
"11" = 0;
"2" = 0;
"3" = 0;
"4" = 0;
"5" = 0;
"6" = 0;
"7" = 0;
"8" = 0;
"9" = 0;
};
};
width = 698;
}
);
metricLeft = "=O";
note = G;
unicode = 71;
},
{
glyphname = Ghook;
kernLeft = O;
kernRight = Ghook;
lastChange = "2022-12-20 11:04:54 +0000";
layers = (
{
anchors = (
{
name = bottom;
pos = (352,0);
},
{
name = top;
pos = (365,700);
}
);
hints = (
{
horizontal = 1;
place = (-10, 117);
place = (-10, 117);
type = Stem;
},
{
horizontal = 1;
place = (244, 113);
place = (244, 113);
type = Stem;
},
{
horizontal = 1;
place = (593, 117);
place = (593, 117);
type = Stem;
},
{
place = (30, 123);
place = (30, 123);
type = Stem;
},
{
place = (557, 119);
place = (557, 119);
type = Stem;
},
{
horizontal = 1;
place = (0, 21);
target = up;
type = BottomGhost;
}
);
layerId = m01;
shapes = (
{
closed = 1;
nodes = (
(431,-10,o),
(495,14,o),
(542,59,c),
(542,0,l),
(661,0,l),
(661,357,l),
(265,357,l),
(265,244,l),
(542,244,l),
(530,160,o),
(467,107,o),
(363,107,cs),
(241,107,o),
(138,201,o),
(138,351,cs),
(138,499,o),
(249,593,o),
(365,593,cs),
(456,593,o),
(520,553,o),
(568,487,c),
(643,544,l),
(584,671,o),
(482,710,o),
(366,710,cs),
(186,710,o),
(15,567,o),
(15,351,cs),
(15,133,o),
(178,-10,o),
(351,-10,cs)
);
},
{
closed = 1;
nodes = (
(662,401,l),
(662,567,ls),
(662,610,o),
(679,637,o),
(728,637,cs),
(755,637,l),
(755,750,l),
(719,750,ls),
(604,750,o),
(548,666,o),
(548,561,cs),
(548,401,l)
);
}
);
userData = {
com.hugojourdan.ColorFlow = {
"0" = 0;
"1" = 0;
"10" = 0;
"11" = 0;
"2" = 0;
"3" = 0;
"4" = 0;
"5" = 0;
"6" = 0;
"7" = 0;
"8" = 0;
"9" = 0;
};
};
width = 735;
}
);
metricLeft = G;
unicode = 403;
},
{
glyphname = Gstroke;
kernLeft = O;
kernRight = Gstroke;
lastChange = "2022-12-20 11:05:00 +0000";
layers = (
{
background = {
shapes = (
{
pos = (763,0);
ref = Bstroke;
scale = (-1,1);
}
);
};
layerId = m01;
shapes = (
{
closed = 1;
nodes = (
(755,108,l),
(755,221,l),
(624,221,l),
(624,108,l)
);
},
{
ref = G;
}
);
userData = {
com.hugojourdan.ColorFlow = {
"0" = 0;
"1" = 0;
"10" = 0;
"11" = 0;
"2" = 0;
"3" = 0;
"4" = 0;
"5" = 0;
"6" = 0;
"7" = 0;
"8" = 0;
"9" = 0;
};
};
width = 765;
}
);
metricLeft = G;
unicode = 484;
},
{
glyphname = H;
kernLeft = H;
kernRight = H;
lastChange = "2022-12-20 22:11:51 +0000";
layers = (
{
anchors = (
{
name = bottom;
pos = (331,0);
},
{
name = center;
pos = (331,350);
},
{
name = top;
pos = (331,700);
},
{
name = topleft;
pos = (-130,700);
}
);
hints = (
{
horizontal = 1;
place = (0, 21);
target = up;
type = BottomGhost;
},
{
horizontal = 1;
place = (299, 113);
place = (299, 113);
type = Stem;
},
{
horizontal = 1;
place = (700, -20);
target = down;
type = TopGhost;
},
{
place = (70, 119);
place = (70, 119);
type = Stem;
},
{
place = (512, 119);
place = (512, 119);
type = Stem;
}
);
layerId = m01;
shapes = (
{
closed = 1;
nodes = (
(169,0,l),
(169,299,l),
(492,299,l),
(492,0,l),
(611,0,l),
(611,700,l),
(492,700,l),
(492,412,l),
(169,412,l),
(169,700,l),
(50,700,l),
(50,0,l)
);
}
);
userData = {
com.hugojourdan.ColorFlow = {
"0" = 0;
"1" = 0;
"10" = 0;
"11" = 0;
"2" = 0;
"3" = 0;
"4" = 0;
"5" = 0;
"6" = 0;
"7" = 0;
"8" = 0;
"9" = 0;
};
};
width = 661;
}
);
metricRight = "=|";
note = H;
unicode = 72;
},
{
glyphname = Hbar;
kernLeft = H;
kernRight = H;
lastChange = "2022-12-08 20:06:14 +0000";
layers = (
{
layerId = m01;
shapes = (
{
closed = 1;
nodes = (
(202,0,l),
(202,299,l),
(525,299,l),
(525,0,l),
(644,0,l),
(644,700,l),
(525,700,l),
(525,412,l),
(202,412,l),
(202,700,l),
(83,700,l),
(83,0,l)
);
},
{
closed = 1;
nodes = (
(716,506,l),
(716,619,l),
(10,619,l),
(10,506,l)
);
}
);
userData = {
com.hugojourdan.ColorFlow = {
"0" = 0;
"1" = 0;
"10" = 0;
"11" = 0;
"2" = 0;
"3" = 0;
"4" = 0;
"5" = 0;
"6" = 0;
"7" = 0;
"8" = 0;
"9" = 0;
};
};
width = 726;
}
);
unicode = 294;
},
{
glyphname = Hhook;
kernLeft = Hhook;
kernRight = H;
lastChange = "2022-12-20 12:22:58 +0000";
layers = (
{
layerId = m01;
shapes = (
{
closed = 1;
nodes = (
(-26,494,l),
(-26,521,ls),
(-26,570,o),
(0,587,o),
(43,587,cs),
(121,587,l),
(121,700,l),
(49,700,ls),
(-56,700,o),
(-140,644,o),
(-140,529,cs),
(-140,494,l)
);
},
{
pos = (-1,0);
ref = H;
}
);
userData = {
com.hugojourdan.ColorFlow = {
"0" = 0;
"1" = 0;
"10" = 0;
"11" = 0;
"2" = 0;
"3" = 0;
"4" = 0;
"5" = 0;
"6" = 0;
"7" = 0;
"8" = 0;
"9" = 0;
};
};
width = 660;
}
);
metricLeft = Bhook;
metricRight = H;
unicode = 42922;
},
{
glyphname = Hturned;
kernLeft = Hturned;
kernRight = H;
lastChange = "2022-12-20 12:23:02 +0000";
layers = (
{
anchors = (
{
name = bottom;
pos = (331,0);
},
{
name = center;
pos = (331,350);
},
{
name = top;
pos = (331,700);
},
{
name = topleft;
pos = (0,700);
}
);
hints = (
{
horizontal = 1;
place = (0, 21);
target = up;
type = BottomGhost;
},
{
horizontal = 1;
place = (299, 113);
place = (299, 113);
type = Stem;
},
{
horizontal = 1;
place = (700, -20);
target = down;
type = TopGhost;
},
{
place = (70, 119);
place = (70, 119);
type = Stem;
},
{
place = (512, 119);
place = (512, 119);
type = Stem;
}
);
layerId = m01;
shapes = (
{
closed = 1;
nodes = (
(611,0,l),
(611,700,l),
(492,700,l),
(492,412,l),
(169,412,l),
(169,700,l),
(50,700,l),
(50,299,l),
(492,299,l),
(492,0,l)
);
}
);
userData = {
com.hugojourdan.ColorFlow = {
"0" = 0;
"1" = 0;
"10" = 0;
"11" = 0;
"2" = 0;
"3" = 0;
"4" = 0;
"5" = 0;
"6" = 0;
"7" = 0;
"8" = 0;
"9" = 0;
};
};
width = 661;
}
);
metricLeft = H;
metricRight = H;
unicode = 42893;
},
{
glyphname = I;
kernLeft = H;
kernRight = H;
lastChange = "2022-12-20 12:40:53 +0000";
layers = (
{
anchors = (
{
name = bottom;
pos = (110,0);
},
{
name = ogonek;
pos = (93,10);
},
{
name = top;
pos = (110,700);
},
{
name = topleft;
pos = (-130,700);
}
);
hints = (
{
horizontal = 1;
place = (0, 21);
target = up;
type = BottomGhost;
},
{
horizontal = 1;
place = (700, -20);
target = down;
type = TopGhost;
},
{
place = (70, 119);
place = (70, 119);
type = Stem;
}
);
layerId = m01;
shapes = (
{
closed = 1;
nodes = (
(169,0,l),
(169,700,l),
(50,700,l),
(50,0,l)
);
}
);
userData = {
com.hugojourdan.ColorFlow = {
"0" = 0;
"1" = 0;
"10" = 0;
"11" = 0;
"2" = 0;
"3" = 0;
"4" = 0;
"5" = 0;
"6" = 0;
"7" = 0;
"8" = 0;
"9" = 0;
};
};
width = 219;
}
);
metricLeft = "=H";
metricRight = "=|";
note = I;
unicode = 73;
},
{
glyphname = IJ;
kernLeft = U;
kernRight = U;
lastChange = "2022-12-20 11:05:31 +0000";
layers = (
{
anchors = (
{
name = bottom;
pos = (-14,0);
},
{
name = ogonek;
pos = (-13,10);
},
{
name = top;
pos = (-14,700);
},
{
name = topleft;
pos = (-124,700);
}
);
hints = (
{
horizontal = 1;
place = (0, 21);
target = up;
type = BottomGhost;
},
{
horizontal = 1;
place = (700, -20);
target = down;
type = TopGhost;
},
{
place = (70, 119);
place = (70, 119);
type = Stem;
},
{
horizontal = 1;
place = (-10, 117);
place = (-10, 117);
type = Stem;
},
{
horizontal = 1;
place = (700, -20);
target = down;
type = TopGhost;
},
{
place = (522, 119);
place = (522, 119);
type = Stem;
}
);
layerId = m01;
shapes = (
{
closed = 1;
nodes = (
(412,-10,o),
(515,78,o),
(515,230,cs),
(515,700,l),
(396,700,l),
(396,230,ls),
(396,158,o),
(343,107,o),
(278,107,cs),
(212,107,o),
(162,159,o),
(164,221,c),
(164,251,l),
(45,251,l),
(45,214,l),
(45,74,o),
(161,-10,o),
(282,-10,cs)
);
},
{
closed = 1;
nodes = (
(164,341,l),
(164,700,l),
(45,700,l),
(45,341,l)
);
}
);
userData = {
com.hugojourdan.ColorFlow = {
"0" = 0;
"1" = 0;
"10" = 0;
"11" = 0;
"2" = 0;
"3" = 0;
"4" = 0;
"5" = 0;
"6" = 0;
"7" = 0;
"8" = 0;
"9" = 0;
};
};
width = 560;
}
);
metricLeft = U;
metricRight = U;
unicode = 306;
},
{
glyphname = "Iota-latin";
kernLeft = U;
kernRight = L;
lastChange = "2022-12-20 11:05:58 +0000";
layers = (
{
hints = (
{
horizontal = 1;
origin = (0,2);
place = (113, 113);
type = Stem;
},
{
horizontal = 1;
origin = (0,2);
target = down;
type = TopGhost;
},
{
origin = (0,2);
place = (243, 119);
type = Stem;
}
);
layerId = m01;
shapes = (
{
closed = 1;
nodes = (
(347,0,l),
(347,113,l),
(243,113,ls),
(187,113,o),
(164,149,o),
(164,199,cs),
(164,700,l),
(45,700,l),
(45,195,ls),
(45,83,o),
(106,0,o),
(235,0,cs)
);
}
);
userData = {
com.hugojourdan.ColorFlow = {
"0" = 0;
"1" = 0;
"10" = 0;
"11" = 0;
"2" = 0;
"3" = 0;
"4" = 0;
"5" = 0;
"6" = 0;
"7" = 0;
"8" = 0;
"9" = 0;
};
};
width = 357;
}
);
metricLeft = U;
metricRight = L;
unicode = 406;
},
{
glyphname = Istroke;
kernLeft = Istroke;
kernRight = Istroke;
lastChange = "2022-12-08 20:06:14 +0000";
layers = (
{
anchors = (
{
name = _center;
pos = (201,356);
},
{
name = bottom;
pos = (110,0);
},
{
name = ogonek;
pos = (111,10);
},
{
name = top;
pos = (110,700);
},
{
name = topleft;
pos = (0,700);
}
);
hints = (
{
horizontal = 1;
place = (0, 21);
target = up;
type = BottomGhost;
},
{
horizontal = 1;
place = (700, -20);
target = down;
type = TopGhost;
},
{
place = (70, 119);
place = (70, 119);
type = Stem;
}
);
layerId = m01;
shapes = (
{
closed = 1;
nodes = (
(261,0,l),
(261,700,l),
(142,700,l),
(142,0,l)
);
},
{
closed = 1;
nodes = (
(402,299,l),
(402,412,l),
(0,412,l),
(0,299,l)
);
}
);
userData = {
com.hugojourdan.ColorFlow = {
"0" = 0;
"1" = 0;
"10" = 0;
"11" = 0;
"2" = 0;
"3" = 0;
"4" = 0;
"5" = 0;
"6" = 0;
"7" = 0;
"8" = 0;
"9" = 0;
};
};
width = 402;
}
);
unicode = 407;
},
{
glyphname = J;
kernLeft = J;
kernRight = U;
lastChange = "2022-12-20 22:37:41 +0000";
layers = (
{
anchors = (
{
name = bottom;
pos = (215,0);
},
{
name = top;
pos = (325,700);
}
);
hints = (
{
horizontal = 1;
place = (-10, 117);
place = (-10, 117);
type = Stem;
},
{
horizontal = 1;
place = (700, -20);
target = down;
type = TopGhost;
},
{
place = (263, 119);
place = (263, 119);
type = Stem;
}
);
layerId = m01;
shapes = (
{
closed = 1;
nodes = (
(307,-10,o),
(385,57,o),
(385,195,cs),
(385,700,l),
(266,700,l),
(266,195,ls),
(266,137,o),
(238,107,o),
(193,107,cs),
(147,107,o),
(122,138,o),
(122,186,c),
(122,273,l),
(5,273,l),
(5,179,l),
(5,53,o),
(96,-10,o),
(197,-10,cs)
);
}
);
userData = {
com.hugojourdan.ColorFlow = {
"0" = 0;
"1" = 0;
"10" = 0;
"11" = 0;
"2" = 0;
"3" = 0;
"4" = 0;
"5" = 0;
"6" = 0;
"7" = 0;
"8" = 0;
"9" = 0;
};
};
width = 430;
}
);
metricRight = "=U";
note = J;
unicode = 74;
},
{
glyphname = Jstroke;
kernLeft = J;
kernRight = Jstroke;
lastChange = "2022-12-20 12:23:22 +0000";
layers = (
{
layerId = m01;
shapes = (
{
closed = 1;
nodes = (
(470,506,l),
(470,619,l),
(169,619,l),
(169,506,l)
);
},
{
pos = (-10,0);
ref = J;
}
);
userData = {
com.hugojourdan.ColorFlow = {
"0" = 0;
"1" = 0;
"10" = 0;
"11" = 0;
"2" = 0;
"3" = 0;
"4" = 0;
"5" = 0;
"6" = 0;
"7" = 0;
"8" = 0;
"9" = 0;
};
};
width = 470;
}
);
metricLeft = A;
unicode = 584;
},
{
glyphname = K;
kernLeft = H;
kernRight = K;
lastChange = "2022-12-20 11:59:03 +0000";
layers = (
{
anchors = (
{
name = bottom;
pos = (313,0);
},
{
name = top;
pos = (293,700);
}
);
hints = (
{
horizontal = 1;
place = (0, 21);
target = up;
type = BottomGhost;
},
{
horizontal = 1;
place = (186, 113);
place = (186, 113);
type = Stem;
},
{
horizontal = 1;
place = (700, -20);
target = down;
type = TopGhost;
},
{
origin = (0,12);
target = (0,0);
type = Stem;
}
);
layerId = m01;
shapes = (
{
closed = 1;
nodes = (
(169,0,l),
(169,186,l),
(403,186,l),
(455,0,l),
(574,0,l),
(490,299,l),
(303,299,l),
(582,700,l),
(444,700,l),
(169,299,l),
(169,700,l),
(50,700,l),
(50,0,l)
);
}
);
userData = {
com.hugojourdan.ColorFlow = {
"0" = 0;
"1" = 0;
"10" = 0;
"11" = 0;
"2" = 0;
"3" = 0;
"4" = 0;
"5" = 0;
"6" = 0;
"7" = 0;
"8" = 0;
"9" = 0;
};
};
width = 577;
}
);
metricLeft = "=H";
metricRight = A;
note = K;
unicode = 75;
},
{
glyphname = Khook;
kernLeft = H;
kernRight = Khook;
lastChange = "2022-12-20 11:10:04 +0000";
layers = (
{
anchors = (
{
name = bottom;
pos = (313,0);
},
{
name = top;
pos = (279,700);
}
);
hints = (
{
horizontal = 1;
place = (0, 21);
target = up;
type = BottomGhost;
},
{
horizontal = 1;
place = (186, 113);
place = (186, 113);
type = Stem;
},
{
horizontal = 1;
place = (700, -20);
target = down;
type = TopGhost;
},
{
origin = (0,9);
target = (0,0);
type = Stem;
}
);
layerId = m01;
shapes = (
{
closed = 1;
nodes = (
(169,0,l),
(169,186,l),
(403,186,l),
(455,0,l),
(574,0,l),
(490,299,l),
(169,299,l),
(169,700,l),
(50,700,l),
(50,0,l)
);
},
{
closed = 1;
nodes = (
(287,276,l),
(455,517,ls),
(481,555,o),
(501,587,o),
(550,587,cs),
(585,587,l),
(585,700,l),
(542,700,ls),
(457,700,o),
(420,664,o),
(360,576,cs),
(153,276,l)
);
}
);
userData = {
com.hugojourdan.ColorFlow = {
"0" = 0;
"1" = 0;
"10" = 0;
"11" = 0;
"2" = 0;
"3" = 0;
"4" = 0;
"5" = 0;
"6" = 0;
"7" = 0;
"8" = 0;
"9" = 0;
};
};
width = 590;
}
);
metricLeft = K;
unicode = 408;
},
{
glyphname = Kstroke;
kernLeft = Kstroke;
kernRight = K;
lastChange = "2022-12-20 11:10:11 +0000";
layers = (
{
anchors = (
{
name = bottom;
pos = (322,0);
},
{
name = top;
pos = (288,700);
}
);
hints = (
{
horizontal = 1;
place = (0, 21);
target = up;
type = BottomGhost;
},
{
horizontal = 1;
place = (186, 113);
place = (186, 113);
type = Stem;
},
{
horizontal = 1;
place = (700, -20);
target = down;
type = TopGhost;
},
{
place = (70, 119);
place = (70, 119);
type = Stem;
}
);
layerId = m01;
shapes = (
{
closed = 1;
nodes = (
(178,0,l),
(178,186,l),
(412,186,l),
(464,0,l),
(583,0,l),
(499,299,l),
(312,299,l),
(591,700,l),
(453,699,l),
(178,299,l),
(178,700,l),
(59,700,l),
(59,0,l)
);
},
{
closed = 1;
nodes = (
(412,186,l),
(412,299,l),
(-20,299,l),
(-20,186,l)
);
}
);
userData = {
com.hugojourdan.ColorFlow = {
"0" = 0;
"1" = 0;
"10" = 0;
"11" = 0;
"2" = 0;
"3" = 0;
"4" = 0;
"5" = 0;
"6" = 0;
"7" = 0;
"8" = 0;
"9" = 0;
};
};
width = 586;
}
);
metricLeft = Eth;
metricRight = K;
unicode = 42816;
},
{
glyphname = L;
kernLeft = H;
kernRight = L;
lastChange = "2022-12-20 22:18:22 +0000";
layers = (
{
anchors = (
{
name = bottom;
pos = (247,0);
},
{
name = center;
pos = (218,350);
},
{
name = top;
pos = (110,700);
},
{
name = topright;
pos = (329,700);
}
);
hints = (
{
horizontal = 1;
place = (0, 113);
place = (0, 113);
type = Stem;
},
{
horizontal = 1;
place = (700, -20);
target = down;
type = TopGhost;
},
{
place = (70, 119);
place = (70, 119);
type = Stem;
}
);
layerId = m01;
shapes = (
{
closed = 1;
nodes = (
(456,0,l),
(456,113,l),
(169,113,l),
(169,700,l),
(50,700,l),
(50,0,l)
);
}
);
userData = {
com.hugojourdan.ColorFlow = {
"0" = 0;
"1" = 0;
"10" = 0;
"11" = 0;
"2" = 0;
"3" = 0;
"4" = 0;
"5" = 0;
"6" = 0;
"7" = 0;
"8" = 0;
"9" = 0;
};
};
width = 466;
}
);
metricLeft = "=H";
note = L;
unicode = 76;
},
{
glyphname = Lslash;
kernLeft = H;
kernRight = L;
lastChange = "2022-12-20 11:10:28 +0000";
layers = (
{
hints = (
{
horizontal = 1;
place = (0, 113);
place = (0, 113);
type = Stem;
},
{
horizontal = 1;
place = (700, -20);
target = down;
type = TopGhost;
},
{
place = (70, 119);
place = (70, 119);
type = Stem;
}
);
layerId = m01;
shapes = (
{
closed = 1;
nodes = (
(496,0,l),
(496,113,l),
(209,113,l),
(209,363,l),
(376,443,l),
(376,560,l),
(209,480,l),
(209,700,l),
(90,700,l),
(90,423,l),
(20,390,l),
(20,273,l),
(90,306,l),
(90,0,l)
);
}
);
userData = {
com.hugojourdan.ColorFlow = {
"0" = 0;
"1" = 0;
"10" = 0;
"11" = 0;
"2" = 0;
"3" = 0;
"4" = 0;
"5" = 0;
"6" = 0;
"7" = 0;
"8" = 0;
"9" = 0;
};
};
width = 506;
}
);
metricRight = L;
note = Lslash;
unicode = 321;
},
{
glyphname = M;
kernLeft = H;
kernRight = H;
lastChange = "2022-12-20 20:46:10 +0000";
layers = (
{
anchors = (
{
name = bottom;
pos = (396,0);
},
{
name = top;
pos = (396,700);
}
);
background = {
shapes = (
{
closed = 1;
nodes = (
(50,700,l),
(50,0,l),
(169,0,l),
(169,700,l)
);
},
{
closed = 1;
nodes = (
(622,700,l),
(622,0,l),
(741,0,l),
(741,700,l)
);
},
{
closed = 1;
nodes = (
(200,700,l),
(200,0,l),
(319,0,l),
(319,700,l)
);
},
{
closed = 1;
nodes = (
(473,700,l),
(473,0,l),
(592,0,l),
(592,700,l)
);
},
{
closed = 1;
nodes = (
(319,700,l),
(50,700,l),
(50,587,l),
(319,587,l)
);
},
{
closed = 1;
nodes = (
(741,700,l),
(472,700,l),
(472,587,l),
(741,587,l)
);
},
{
closed = 1;
nodes = (
(741,700,l),
(472,700,l),
(472,587,l),
(741,587,l)
);
}
);
};
hints = (
{
horizontal = 1;
place = (0, 21);
target = up;
type = BottomGhost;
},
{
horizontal = 1;
place = (700, -20);
target = down;
type = TopGhost;
},
{
place = (70, 119);
place = (70, 119);
type = Stem;
},
{
place = (642, 119);
place = (642, 119);
type = Stem;
},
{
horizontal = 1;
place = (0, 143);
place = (0, 143);
type = Stem;
}
);
layerId = m01;
shapes = (
{
closed = 1;
nodes = (
(169,0,l),
(169,516,l),
(328,0,l),
(467,0,l),
(622,516,l),
(622,0,l),
(741,0,l),
(741,700,l),
(559,700,l),
(396,154,l),
(233,700,l),
(50,700,l),
(50,0,l)
);
}
);
userData = {
com.hugojourdan.ColorFlow = {
"0" = 0;
"1" = 0;
"10" = 0;
"11" = 0;
"2" = 0;
"3" = 0;
"4" = 0;
"5" = 0;
"6" = 0;
"7" = 0;
"8" = 0;
"9" = 0;
};
};
width = 791;
}
);
metricLeft = "=H";
metricRight = "=|";
note = M;
unicode = 77;
},
{
glyphname = N;
kernLeft = H;
kernRight = H;
lastChange = "2022-12-19 22:02:32 +0000";
layers = (
{
anchors = (
{
name = bottom;
pos = (355,0);
},
{
name = top;
pos = (348,700);
}
);
hints = (
{
horizontal = 1;
place = (0, 21);
target = up;
type = BottomGhost;
},
{
horizontal = 1;
place = (700, -20);
target = down;
type = TopGhost;
},
{
place = (70, 119);
place = (70, 119);
type = Stem;
},
{
place = (526, 119);
place = (526, 119);
type = Stem;
}
);
layerId = m01;
shapes = (
{
closed = 1;
nodes = (
(169,0,l),
(169,529,l),
(476,0,l),
(625,0,l),
(625,700,l),
(506,700,l),
(506,171,l),
(199,700,l),
(50,700,l),
(50,0,l)
);
}
);
userData = {
com.hugojourdan.ColorFlow = {
"0" = 0;
"1" = 0;
"10" = 0;
"11" = 0;
"2" = 0;
"3" = 0;
"4" = 0;
"5" = 0;
"6" = 0;
"7" = 0;
"8" = 0;
"9" = 0;
};
};
width = 675;
}
);
metricLeft = "=H";
metricRight = "=|";
note = N;
unicode = 78;
},
{
glyphname = Nhookleft;
kernLeft = Nhookleft;
kernRight = H;
lastChange = "2022-12-20 11:11:37 +0000";
layers = (
{
layerId = m01;
shapes = (
{
closed = 1;
nodes = (
(2,-184,ls),
(112,-184,o),
(169,-100,o),
(169,0,cs),
(169,160,l),
(50,160,l),
(50,-6,ls),
(50,-44,o),
(38,-71,o),
(-6,-71,cs),
(-53,-71,l),
(-53,-184,l)
);
},
{
ref = N;
}
);
userData = {
com.hugojourdan.ColorFlow = {
"0" = 0;
"1" = 0;
"10" = 0;
"11" = 0;
"2" = 0;
"3" = 0;
"4" = 0;
"5" = 0;
"6" = 0;
"7" = 0;
"8" = 0;
"9" = 0;
};
};
width = 675;
}
);
metricLeft = Fhook;
metricRight = N;
unicode = 413;
},
{
glyphname = Eng;
kernLeft = H;
kernRight = Eng;
lastChange = "2022-12-20 11:12:00 +0000";
layers = (
{
anchors = (
{
name = bottom;
pos = (355,0);
},
{
name = top;
pos = (348,700);
}
);
hints = (
{
horizontal = 1;
place = (0, 113);
place = (0, 113);
type = Stem;
},
{
horizontal = 1;
place = (700, -20);
target = down;
type = TopGhost;
},
{
place = (884, 119);
place = (884, 119);
type = Stem;
},
{
horizontal = 1;
place = (0, 21);
target = up;
type = BottomGhost;
},
{
horizontal = 1;
place = (700, -20);
target = down;
type = TopGhost;
},
{
place = (70, 119);
place = (70, 119);
type = Stem;
},
{
place = (526, 119);
place = (526, 119);
type = Stem;
}
);
layerId = m01;
shapes = (
{
closed = 1;
nodes = (
(435,-200,ls),
(564,-200,o),
(625,-117,o),
(625,-5,cs),
(625,700,l),
(506,700,l),
(506,264,l),
(199,700,l),
(50,700,l),
(50,0,l),
(169,0,l),
(169,529,l),
(506,50,l),
(506,-1,ls),
(506,-51,o),
(483,-87,o),
(427,-87,cs),
(373,-87,l),
(373,-200,l)
);
}
);
userData = {
com.hugojourdan.ColorFlow = {
"0" = 0;
"1" = 0;
"10" = 0;
"11" = 0;
"2" = 0;
"3" = 0;
"4" = 0;
"5" = 0;
"6" = 0;
"7" = 0;
"8" = 0;
"9" = 0;
};
};
width = 675;
}
);
metricLeft = N;
metricRight = N;
unicode = 330;
},
{
glyphname = O;
kernLeft = O;
kernRight = O;
lastChange = "2022-12-20 22:36:53 +0000";
layers = (
{
anchors = (
{
name = bottom;
pos = (371,0);
},
{
name = center;
pos = (371,350);
},
{
name = ogonek;
pos = (680,10);
},
{
name = top;
pos = (371,700);
},
{
name = topleft;
pos = (-75,700);
},
{
name = topright;
pos = (600,700);
}
);
hints = (
{
horizontal = 1;
place = (-10, 117);
place = (-10, 117);
type = Stem;
},
{
horizontal = 1;
place = (593, 117);
place = (593, 117);
type = Stem;
},
{
place = (30, 123);
place = (30, 123);
type = Stem;
},
{
place = (619, 123);
place = (619, 123);
type = Stem;
}
);
layerId = m01;
shapes = (
{
closed = 1;
nodes = (
(558,-10,o),
(727,132,o),
(727,350,cs),
(727,566,o),
(558,710,o),
(371,710,cs),
(183,710,o),
(15,566,o),
(15,350,cs),
(15,132,o),
(183,-10,o),
(371,-10,cs)
);
},
{
closed = 1;
nodes = (
(247,107,o),
(138,200,o),
(138,350,cs),
(138,498,o),
(247,593,o),
(371,593,cs),
(494,593,o),
(604,498,o),
(604,350,cs),
(604,200,o),
(494,107,o),
(371,107,cs)
);
}
);
userData = {
com.hugojourdan.ColorFlow = {
"0" = 0;
"1" = 0;
"10" = 0;
"11" = 0;
"2" = 0;
"3" = 0;
"4" = 0;
"5" = 0;
"6" = 0;
"7" = 0;
"8" = 0;
"9" = 0;
};
};
width = 742;
}
);
metricRight = "=|";
note = O;
unicode = 79;
},
{
glyphname = OO;
kernLeft = O;
kernRight = O;
lastChange = "2022-12-20 11:12:10 +0000";
layers = (
{
anchors = (
{
name = bottom;
pos = (371,0);
},
{
name = center;
pos = (371,350);
},
{
name = ogonek;
pos = (680,10);
},
{
name = top;
pos = (371,700);
},
{
name = topleft;
pos = (5,700);
},
{
name = topright;
pos = (600,700);
}
);
hints = (
{
horizontal = 1;
place = (-10, 117);
place = (-10, 117);
type = Stem;
},
{
horizontal = 1;
place = (593, 117);
place = (593, 117);
type = Stem;
},
{
place = (30, 123);
place = (30, 123);
type = Stem;
},
{
place = (619, 123);
place = (619, 123);
type = Stem;
},
{
horizontal = 1;
place = (-10, 117);
place = (-10, 117);
type = Stem;
},
{
horizontal = 1;
place = (593, 117);
place = (593, 117);
type = Stem;
},
{
place = (802, 123);
place = (802, 123);
type = Stem;
},
{
place = (1391, 123);
place = (1391, 123);
type = Stem;
}
);
layerId = m01;
shapes = (
{
closed = 1;
nodes = (
(1147,-10,o),
(1316,132,o),
(1316,350,cs),
(1316,566,o),
(1147,710,o),
(960,710,cs),
(772,710,o),
(604,566,o),
(604,350,cs),
(604,132,o),
(772,-10,o),
(960,-10,cs)
);
},
{
closed = 1;
nodes = (
(558,-10,o),
(727,132,o),
(727,350,cs),
(727,566,o),
(558,710,o),
(371,710,cs),
(183,710,o),
(15,566,o),
(15,350,cs),
(15,132,o),
(183,-10,o),
(371,-10,cs)
);
},
{
closed = 1;
nodes = (
(247,107,o),
(138,200,o),
(138,350,cs),
(138,498,o),
(247,593,o),
(371,593,cs),
(494,593,o),
(604,498,o),
(604,350,cs),
(604,200,o),
(494,107,o),
(371,107,cs)
);
},
{
closed = 1;
nodes = (
(836,107,o),
(727,200,o),
(727,350,cs),
(727,498,o),
(836,593,o),
(960,593,cs),
(1083,593,o),
(1193,498,o),
(1193,350,cs),
(1193,200,o),
(1083,107,o),
(960,107,cs)
);
}
);
userData = {
com.hugojourdan.ColorFlow = {
"0" = 0;
"1" = 0;
"10" = 0;
"11" = 0;
"2" = 0;
"3" = 0;
"4" = 0;
"5" = 0;
"6" = 0;
"7" = 0;
"8" = 0;
"9" = 0;
};
};
width = 1331;
}
);
metricLeft = O;
metricRight = O;
unicode = 42830;
},
{
glyphname = OU;
kernLeft = O;
kernRight = OU;
lastChange = "2022-12-20 11:12:17 +0000";
layers = (
{
layerId = m01;
shapes = (
{
closed = 1;
nodes = (
(558,-10,o),
(727,132,o),
(727,350,cs),
(727,566,o),
(558,710,o),
(371,710,cs),
(183,710,o),
(15,566,o),
(15,350,cs),
(15,132,o),
(183,-10,o),
(371,-10,cs)
);
},
{
closed = 1;
nodes = (
(247,107,o),
(138,200,o),
(138,350,cs),
(138,498,o),
(247,593,o),
(371,593,cs),
(494,593,o),
(604,498,o),
(604,350,cs),
(604,200,o),
(494,107,o),
(371,107,cs)
);
},
{
closed = 1;
nodes = (
(800,134,o),
(924,254,o),
(924,410,cs),
(924,700,l),
(805,700,l),
(805,423,ls),
(805,320,o),
(736,251,o),
(641,251,cs),
(545,251,o),
(477,320,o),
(477,423,cs),
(477,640,l),
(358,640,l),
(358,410,ls),
(358,254,o),
(481,134,o),
(641,134,cs)
);
}
);
userData = {
com.hugojourdan.ColorFlow = {
"0" = 0;
"1" = 0;
"10" = 0;
"11" = 0;
"2" = 0;
"3" = 0;
"4" = 0;
"5" = 0;
"6" = 0;
"7" = 0;
"8" = 0;
"9" = 0;
};
};
width = 969;
}
);
metricLeft = O;
metricRight = U;
unicode = 546;
},
{
glyphname = Oslash;
kernLeft = O;
kernRight = O;
lastChange = "2022-12-15 14:55:05 +0000";
layers = (
{
anchors = (
{
name = bottom;
pos = (371,0);
},
{
name = top;
pos = (371,700);
}
);
hints = (
{
horizontal = 1;
place = (-10, 117);
place = (-10, 117);
type = Stem;
},
{
horizontal = 1;
place = (593, 117);
place = (593, 117);
type = Stem;
},
{
place = (30, 123);
place = (30, 123);
type = Stem;
},
{
place = (619, 123);
place = (619, 123);
type = Stem;
}
);
layerId = m01;
shapes = (
{
closed = 1;
nodes = (
(558,-10,o),
(727,132,o),
(727,350,cs),
(727,566,o),
(558,710,o),
(371,710,cs),
(183,710,o),
(15,566,o),
(15,350,cs),
(15,132,o),
(183,-10,o),
(371,-10,cs)
);
},
{
closed = 1;
nodes = (
(323,107,o),
(277,121,o),
(239,147,c),
(585,449,l),
(597,420,o),
(604,386,o),
(604,350,cs),
(604,200,o),
(494,107,o),
(371,107,cs)
);
},
{
closed = 1;
nodes = (
(147,268,o),
(138,307,o),
(138,350,cs),
(138,498,o),
(247,593,o),
(371,593,cs),
(424,593,o),
(475,575,o),
(515,543,c),
(163,235,l)
);
}
);
userData = {
com.hugojourdan.ColorFlow = {
"0" = 0;
"1" = 0;
"10" = 0;
"11" = 0;
"2" = 0;
"3" = 0;
"4" = 0;
"5" = 0;
"6" = 0;
"7" = 0;
"8" = 0;
"9" = 0;
};
};
width = 742;
}
);
metricLeft = O;
metricRight = O;
note = Oslash;
unicode = 216;
},
{
glyphname = OE;
kernLeft = O;
kernRight = E;
lastChange = "2022-12-19 11:22:04 +0000";
layers = (
{
anchors = (
{
name = bottom;
pos = (536,0);
},
{
name = top;
pos = (536,700);
}
);
hints = (
{
horizontal = 1;
place = (0, 113);
place = (0, 113);
type = Stem;
},
{
horizontal = 1;
place = (299, 113);
place = (299, 113);
type = Stem;
},
{
horizontal = 1;
place = (587, 113);
place = (587, 113);
type = Stem;
},
{
place = (30, 123);
place = (30, 123);
type = Stem;
},
{
place = (619, 119);
place = (619, 119);
type = Stem;
},
{
horizontal = 1;
place = (-10, 117);
place = (-10, 117);
type = Stem;
},
{
horizontal = 1;
place = (593, 117);
place = (593, 117);
type = Stem;
}
);
layerId = m01;
shapes = (
{
closed = 1;
nodes = (
(459,-10,o),
(542,23,o),
(604,81,c),
(604,0,l),
(1047,0,l),
(1047,113,l),
(723,113,l),
(723,299,l),
(1047,299,l),
(1047,412,l),
(723,412,l),
(723,587,l),
(1047,587,l),
(1047,700,l),
(604,700,l),
(604,619,l),
(542,677,o),
(459,710,o),
(368,710,cs),
(183,710,o),
(15,567,o),
(15,351,cs),
(15,133,o),
(183,-10,o),
(368,-10,cs)
);
},
{
closed = 1;
nodes = (
(247,107,o),
(138,201,o),
(138,351,cs),
(138,499,o),
(247,593,o),
(371,593,cs),
(494,593,o),
(604,499,o),
(604,351,cs),
(604,201,o),
(494,107,o),
(371,107,cs)
);
}
);
userData = {
com.hugojourdan.ColorFlow = {
"0" = 0;
"1" = 0;
"10" = 0;
"11" = 0;
"2" = 0;
"3" = 0;
"4" = 0;
"5" = 0;
"6" = 0;
"7" = 0;
"8" = 0;
"9" = 0;
};
};
width = 1067;
}
);
metricLeft = O;
metricRight = E;
note = OE;
unicode = 338;
},
{
glyphname = P;
kernLeft = H;
kernRight = P;
lastChange = "2022-12-20 22:22:57 +0000";
layers = (
{
anchors = (
{
name = bottom;
pos = (258,0);
},
{
name = top;
pos = (258,700);
}
);
hints = (
{
horizontal = 1;
place = (0, 21);
target = up;
type = BottomGhost;
},
{
horizontal = 1;
place = (279, 113);
place = (279, 113);
type = Stem;
},
{
horizontal = 1;
place = (587, 113);
place = (587, 113);
type = Stem;
},
{
place = (70, 119);
place = (70, 119);
type = Stem;
},
{
place = (427, 123);
place = (427, 123);
type = Stem;
}
);
layerId = m01;
shapes = (
{
closed = 1;
nodes = (
(169,0,l),
(169,279,l),
(309,279,ls),
(456,279,o),
(530,384,o),
(530,490,cs),
(530,595,o),
(456,700,o),
(309,700,cs),
(50,700,l),
(50,0,l)
);
},
{
closed = 1;
nodes = (
(169,587,l),
(310,587,ls),
(375,587,o),
(407,538,o),
(407,490,cs),
(407,441,o),
(375,392,o),
(310,392,cs),
(169,392,l)
);
}
);
userData = {
com.hugojourdan.ColorFlow = {
"0" = 0;
"1" = 0;
"10" = 0;
"11" = 0;
"2" = 0;
"3" = 0;
"4" = 0;
"5" = 0;
"6" = 0;
"7" = 0;
"8" = 0;
"9" = 0;
};
};
width = 540;
}
);
metricLeft = "=H";
note = P;
unicode = 80;
},
{
glyphname = Phook;
kernLeft = Phook;
kernRight = P;
lastChange = "2022-12-20 11:13:03 +0000";
layers = (
{
layerId = m01;
shapes = (
{
closed = 1;
nodes = (
(-26,494,l),
(-26,521,ls),
(-26,570,o),
(0,587,o),
(43,587,cs),
(121,587,l),
(121,700,l),
(49,700,ls),
(-56,700,o),
(-140,644,o),
(-140,529,cs),
(-140,494,l)
);
},
{
pos = (-1,0);
ref = P;
}
);
userData = {
com.hugojourdan.ColorFlow = {
"0" = 0;
"1" = 0;
"10" = 0;
"11" = 0;
"2" = 0;
"3" = 0;
"4" = 0;
"5" = 0;
"6" = 0;
"7" = 0;
"8" = 0;
"9" = 0;
};
};
width = 539;
}
);
metricLeft = Bhook;
metricRight = P;
unicode = 420;
},
{
glyphname = Thorn;
kernLeft = H;
kernRight = Thorn;
lastChange = "2022-12-20 11:13:07 +0000";
layers = (
{
anchors = (
{
name = bottom;
pos = (255,0);
},
{
name = top;
pos = (255,700);
}
);
hints = (
{
horizontal = 1;
place = (0, 21);
target = up;
type = BottomGhost;
},
{
horizontal = 1;
place = (149, 113);
place = (149, 113);
type = Stem;
},
{
horizontal = 1;
place = (457, 113);
place = (457, 113);
type = Stem;
},
{
horizontal = 1;
place = (700, -20);
target = down;
type = TopGhost;
},
{
place = (70, 119);
place = (70, 119);
type = Stem;
},
{
place = (427, 123);
place = (427, 123);
type = Stem;
}
);
layerId = m01;
shapes = (
{
closed = 1;
nodes = (
(169,0,l),
(169,149,l),
(309,149,ls),
(456,149,o),
(530,254,o),
(530,360,cs),
(530,465,o),
(456,570,o),
(309,570,cs),
(169,570,l),
(169,700,l),
(50,700,l),
(50,0,l)
);
},
{
closed = 1;
nodes = (
(169,457,l),
(310,457,ls),
(375,457,o),
(407,408,o),
(407,360,cs),
(407,311,o),
(375,262,o),
(310,262,cs),
(169,262,l)
);
}
);
userData = {
com.hugojourdan.ColorFlow = {
"0" = 0;
"1" = 0;
"10" = 0;
"11" = 0;
"2" = 0;
"3" = 0;
"4" = 0;
"5" = 0;
"6" = 0;
"7" = 0;
"8" = 0;
"9" = 0;
};
};
width = 540;
}
);
metricLeft = "=H";
metricRight = P;
note = Thorn;
unicode = 222;
},
{
glyphname = Pstroke;
kernLeft = Pstroke;
kernRight = P;
lastChange = "2022-12-20 11:59:41 +0000";
layers = (
{
layerId = m01;
shapes = (
{
closed = 1;
nodes = (
(281,279,l),
(281,392,l),
(-20,392,l),
(-20,279,l)
);
},
{
pos = (-12,0);
ref = P;
}
);
userData = {
com.hugojourdan.ColorFlow = {
"0" = 0;
"1" = 0;
"10" = 0;
"11" = 0;
"2" = 0;
"3" = 0;
"4" = 0;
"5" = 0;
"6" = 0;
"7" = 0;
"8" = 0;
"9" = 0;
};
};
width = 528;
}
);
metricLeft = Eth;
metricRight = P;
unicode = 11363;
},
{
glyphname = Q;
kernLeft = O;
kernRight = Q;
lastChange = "2022-12-20 22:26:14 +0000";
layers = (
{
anchors = (
{
name = bottom;
pos = (410,0);
},
{
name = top;
pos = (410,700);
}
);
hints = (
{
horizontal = 1;
place = (0, 21);
target = up;
type = BottomGhost;
},
{
horizontal = 1;
place = (186, 113);
place = (186, 113);
type = Stem;
},
{
horizontal = 1;
place = (593, 117);
place = (593, 117);
type = Stem;
},
{
origin = (0,15);
target = (1,2);
type = Stem;
},
{
origin = (1,8);
target = (0,9);
type = Stem;
},
{
horizontal = 1;
place = (-10, 117);
place = (-10, 117);
type = Stem;
}
);
layerId = m01;
shapes = (
{
closed = 1;
nodes = (
(506,-10,o),
(631,64,o),
(690,186,c),
(742,0,l),
(861,0,l),
(777,299,l),
(724,299,l),
(726,315,o),
(727,332,o),
(727,350,cs),
(727,566,o),
(558,710,o),
(371,710,cs),
(183,710,o),
(15,566,o),
(15,350,cs),
(15,132,o),
(183,-10,o),
(371,-10,cs)
);
},
{
closed = 1;
nodes = (
(247,107,o),
(138,200,o),
(138,350,cs),
(138,498,o),
(247,593,o),
(371,593,cs),
(494,593,o),
(604,498,o),
(604,350,cs),
(604,332,o),
(602,315,o),
(600,299,c),
(321,299,l),
(321,186,l),
(547,186,l),
(503,135,o),
(439,107,o),
(371,107,cs)
);
}
);
userData = {
com.hugojourdan.ColorFlow = {
"0" = 0;
"1" = 0;
"10" = 0;
"11" = 0;
"2" = 0;
"3" = 0;
"4" = 0;
"5" = 0;
"6" = 0;
"7" = 0;
"8" = 0;
"9" = 0;
};
};
width = 791;
}
);
metricLeft = "=O";
note = Q;
unicode = 81;
},
{
glyphname = Qstrokethroughdescender;
kernLeft = Qstrokethroughdescender;
kernRight = Q;
lastChange = "2022-12-20 11:13:28 +0000";
layers = (
{
anchors = (
{
name = bottom;
pos = (439,0);
},
{
name = top;
pos = (439,700);
}
);
hints = (
{
horizontal = 1;
place = (0, 21);
target = up;
type = BottomGhost;
},
{
horizontal = 1;
place = (186, 113);
place = (186, 113);
type = Stem;
},
{
horizontal = 1;
place = (593, 117);
place = (593, 117);
type = Stem;
},
{
place = (30, 123);
place = (30, 123);
type = Stem;
},
{
place = (619, 123);
place = (619, 123);
type = Stem;
},
{
horizontal = 1;
place = (-10, 117);
place = (-10, 117);
type = Stem;
}
);
layerId = m01;
shapes = (
{
closed = 1;
nodes = (
(535,-10,o),
(660,64,o),
(719,186,c),
(771,0,l),
(890,0,l),
(806,299,l),
(753,299,l),
(755,315,o),
(756,332,o),
(756,350,cs),
(756,566,o),
(587,710,o),
(400,710,cs),
(212,710,o),
(44,566,o),
(44,350,cs),
(44,132,o),
(212,-10,o),
(400,-10,cs)
);
},
{
closed = 1;
nodes = (
(276,107,o),
(167,200,o),
(167,350,cs),
(167,498,o),
(276,593,o),
(400,593,cs),
(523,593,o),
(633,498,o),
(633,350,cs),
(633,332,o),
(631,315,o),
(629,299,c),
(-10,299,l),
(-10,186,l),
(576,186,l),
(532,135,o),
(468,107,o),
(400,107,cs)
);
}
);
userData = {
com.hugojourdan.ColorFlow = {
"0" = 0;
"1" = 0;
"10" = 0;
"11" = 0;
"2" = 0;
"3" = 0;
"4" = 0;
"5" = 0;
"6" = 0;
"7" = 0;
"8" = 0;
"9" = 0;
};
};
width = 850;
}
);
unicode = 42838;
},
{
glyphname = R;
kernLeft = H;
kernRight = R;
lastChange = "2022-12-20 12:43:08 +0000";
layers = (
{
anchors = (
{
name = bottom;
pos = (300,0);
},
{
name = top;
pos = (273,700);
}
);
hints = (
{
horizontal = 1;
place = (0, 21);
target = up;
type = BottomGhost;
},
{
horizontal = 1;
place = (186, 113);
place = (186, 113);
type = Stem;
},
{
horizontal = 1;
place = (587, 113);
place = (587, 113);
type = Stem;
},
{
place = (70, 119);
place = (70, 119);
type = Stem;
},
{
horizontal = 1;
place = (329, 113);
place = (329, 113);
type = Stem;
},
{
place = (428, 123);
place = (428, 123);
type = Stem;
}
);
layerId = m01;
shapes = (
{
closed = 1;
nodes = (
(169,0,l),
(169,186,l),
(385,186,l),
(437,0,l),
(556,0,l),
(472,299,l),
(169,299,l),
(169,329,l),
(326,329,ls),
(463,329,o),
(531,422,o),
(531,515,cs),
(531,607,o),
(463,700,o),
(326,700,cs),
(50,700,l),
(50,0,l)
);
},
{
closed = 1;
nodes = (
(169,587,l),
(327,587,ls),
(381,587,o),
(408,551,o),
(408,515,cs),
(408,478,o),
(381,442,o),
(327,442,cs),
(169,442,l)
);
}
);
userData = {
com.hugojourdan.ColorFlow = {
"0" = 0;
"1" = 0;
"10" = 0;
"11" = 0;
"2" = 0;
"3" = 0;
"4" = 0;
"5" = 0;
"6" = 0;
"7" = 0;
"8" = 0;
"9" = 0;
};
};
width = 551;
}
);
metricLeft = "=H";
note = R;
unicode = 82;
},
{
glyphname = Rstroke;
kernLeft = Rstroke;
kernRight = R;
lastChange = "2022-12-20 11:13:46 +0000";
layers = (
{
layerId = m01;
shapes = (
{
closed = 1;
nodes = (
(130,329,l),
(130,442,l),
(-20,442,l),
(-20,329,l)
);
},
{
pos = (-20,0);
ref = R;
}
);
userData = {
com.hugojourdan.ColorFlow = {
"0" = 0;
"1" = 0;
"10" = 0;
"11" = 0;
"2" = 0;
"3" = 0;
"4" = 0;
"5" = 0;
"6" = 0;
"7" = 0;
"8" = 0;
"9" = 0;
};
};
width = 591;
}
);
metricLeft = Eth;
unicode = 588;
},
{
glyphname = Rtail;
kernLeft = Rtail;
kernRight = R;
lastChange = "2022-12-20 11:14:04 +0000";
layers = (
{
layerId = m01;
shapes = (
{
closed = 1;
nodes = (
(272,-184,l),
(272,-71,l),
(225,-71,ls),
(181,-71,o),
(169,-44,o),
(169,-6,cs),
(169,160,l),
(50,160,l),
(50,0,ls),
(50,-100,o),
(107,-184,o),
(217,-184,cs)
);
},
{
ref = R;
}
);
userData = {
com.hugojourdan.ColorFlow = {
"0" = 0;
"1" = 0;
"10" = 0;
"11" = 0;
"2" = 0;
"3" = 0;
"4" = 0;
"5" = 0;
"6" = 0;
"7" = 0;
"8" = 0;
"9" = 0;
};
};
width = 551;
}
);
metricLeft = R;
metricRight = R;
unicode = 11364;
},
{
glyphname = S;
kernLeft = S;
kernRight = S;
lastChange = "2022-12-23 15:55:47 +0000";
layers = (
{
anchors = (
{
name = bottom;
pos = (237,0);
},
{
name = top;
pos = (239,700);
}
);
hints = (
{
horizontal = 1;
place = (-10, 115);
place = (-10, 115);
type = Stem;
},
{
horizontal = 1;
place = (595, 115);
place = (595, 115);
type = Stem;
},
{
place = (49, 122);
place = (49, 122);
type = Stem;
},
{
place = (336, 122);
place = (336, 122);
type = Stem;
}
);
layerId = m01;
shapes = (
{
closed = 1;
nodes = (
(357,-10,o),
(440,82,o),
(440,189,cs),
(440,285,o),
(372,348,o),
(309,380,cs),
(219,425,ls),
(176,447,o),
(151,474,o),
(151,515,cs),
(151,560,o),
(185,595,o),
(237,595,cs),
(291,595,o),
(343,551,o),
(374,498,c),
(469,573,l),
(416,657,o),
(338,710,o),
(239,710,cs),
(112,710,o),
(29,623,o),
(29,510,cs),
(29,411,o),
(89,351,o),
(157,317,cs),
(253,269,ls),
(301,245,o),
(318,215,o),
(318,181,cs),
(318,141,o),
(292,105,o),
(236,105,cs),
(186,105,o),
(133,144,o),
(100,207,c),
(5,132,l),
(60,42,o),
(134,-10,o),
(236,-10,cs)
);
}
);
userData = {
com.hugojourdan.ColorFlow = {
"0" = 0;
"1" = 0;
"10" = 0;
"11" = 0;
"2" = 0;
"3" = 0;
"4" = 0;
"5" = 0;
"6" = 0;
"7" = 0;
"8" = 0;
"9" = 0;
};
};
width = 469;
}
);
note = S;
unicode = 83;
},
{
glyphname = Saltillo;
kernLeft = Saltillo;
kernRight = Saltillo;
lastChange = "2022-12-15 14:55:05 +0000";
layers = (
{
hints = (
{
horizontal = 1;
place = (-10, 21);
target = up;
type = BottomGhost;
},
{
horizontal = 1;
place = (700, -20);
target = down;
type = TopGhost;
},
{
place = (95, 119);
place = (95, 119);
type = Stem;
},
{
horizontal = 1;
place = (-10, 209);
place = (-10, 209);
type = Stem;
}
);
layerId = m01;
shapes = (
{
closed = 1;
nodes = (
(169,295,l),
(169,700,l),
(50,700,l),
(50,295,l)
);
}
);
userData = {
com.hugojourdan.ColorFlow = {
"0" = 0;
"1" = 0;
"10" = 0;
"11" = 0;
"2" = 0;
"3" = 0;
"4" = 0;
"5" = 0;
"6" = 0;
"7" = 0;
"8" = 0;
"9" = 0;
};
};
width = 219;
}
);
metricLeft = H;
metricRight = H;
unicode = 42891;
},
{
glyphname = uni1E9E;
kernLeft = H;
kernRight = uni1E9E;
lastChange = "2022-12-20 11:14:26 +0000";
layers = (
{
anchors = (
{
name = bottom;
pos = (320,0);
},
{
name = top;
pos = (320,700);
}
);
hints = (
{
horizontal = 1;
place = (-10, 115);
place = (-10, 115);
type = Stem;
},
{
horizontal = 1;
place = (587, 113);
place = (587, 113);
type = Stem;
},
{
place = (70, 119);
place = (70, 119);
type = Stem;
},
{
place = (297, 122);
place = (297, 122);
type = Stem;
},
{
place = (537, 122);
place = (537, 122);
type = Stem;
},
{
horizontal = 1;
place = (565, 135);
place = (565, 135);
type = Stem;
},
{
horizontal = 1;
place = (0, 21);
target = up;
type = BottomGhost;
}
);
layerId = m01;
shapes = (
{
closed = 1;
nodes = (
(555,-10,o),
(639,62,o),
(639,179,cs),
(639,245,o),
(598,308,o),
(534,354,cs),
(457,409,ls),
(424,433,o),
(404,455,o),
(404,490,cs),
(404,550,o),
(454,589,o),
(528,596,c),
(528,700,l),
(50,700,l),
(50,0,l),
(169,0,l),
(169,587,l),
(331,587,l),
(300,561,o),
(284,515,o),
(284,472,cs),
(284,410,o),
(323,353,o),
(377,316,cs),
(454,263,ls),
(507,227,o),
(517,208,o),
(517,174,cs),
(517,134,o),
(488,105,o),
(442,105,cs),
(387,105,o),
(348,144,o),
(317,201,c),
(223,132,l),
(271,43,o),
(344,-10,o),
(442,-10,cs)
);
}
);
userData = {
com.hugojourdan.ColorFlow = {
"0" = 0;
"1" = 0;
"10" = 0;
"11" = 0;
"2" = 0;
"3" = 0;
"4" = 0;
"5" = 0;
"6" = 0;
"7" = 0;
"8" = 0;
"9" = 0;
};
};
width = 639;
}
);
metricLeft = H;
metricRight = S;
note = uni1E9E;
unicode = 7838;
},
{
glyphname = T;
kernLeft = T;
kernRight = T;
lastChange = "2022-12-20 22:27:13 +0000";
layers = (
{
anchors = (
{
name = bottom;
pos = (249,0);
},
{
name = bottomright;
pos = (278,0);
},
{
name = center;
pos = (249,350);
},
{
name = top;
pos = (249,700);
}
);
hints = (
{
horizontal = 1;
place = (0, 21);
target = up;
type = BottomGhost;
},
{
horizontal = 1;
place = (587, 113);
place = (587, 113);
type = Stem;
},
{
place = (199, 119);
place = (199, 119);
type = Stem;
}
);
layerId = m01;
shapes = (
{
closed = 1;
nodes = (
(308,0,l),
(308,587,l),
(492,587,l),
(492,700,l),
(5,700,l),
(5,587,l),
(189,587,l),
(189,0,l)
);
}
);
userData = {
com.hugojourdan.ColorFlow = {
"0" = 0;
"1" = 0;
"10" = 0;
"11" = 0;
"2" = 0;
"3" = 0;
"4" = 0;
"5" = 0;
"6" = 0;
"7" = 0;
"8" = 0;
"9" = 0;
};
};
width = 497;
}
);
metricRight = "=|";
note = T;
unicode = 84;
},
{
glyphname = Thook;
kernLeft = Thook;
kernRight = T;
lastChange = "2022-12-20 11:14:40 +0000";
layers = (
{
anchors = (
{
name = bottom;
pos = (201,0);
},
{
name = center;
pos = (201,350);
},
{
name = top;
pos = (201,700);
}
);
hints = (
{
horizontal = 1;
place = (0, 21);
target = up;
type = BottomGhost;
},
{
horizontal = 1;
place = (587, 113);
place = (587, 113);
type = Stem;
},
{
place = (199, 119);
place = (199, 119);
type = Stem;
}
);
layerId = m01;
shapes = (
{
closed = 1;
nodes = (
(260,0,l),
(260,587,l),
(444,587,l),
(444,700,l),
(57,700,l),
(57,587,l),
(141,587,l),
(141,0,l)
);
},
{
closed = 1;
nodes = (
(-26,494,l),
(-26,521,ls),
(-26,570,o),
(0,587,o),
(43,587,cs),
(121,587,l),
(121,700,l),
(49,700,ls),
(-56,700,o),
(-140,644,o),
(-140,529,cs),
(-140,494,l)
);
}
);
userData = {
com.hugojourdan.ColorFlow = {
"0" = 0;
"1" = 0;
"10" = 0;
"11" = 0;
"2" = 0;
"3" = 0;
"4" = 0;
"5" = 0;
"6" = 0;
"7" = 0;
"8" = 0;
"9" = 0;
};
};
width = 449;
}
);
metricLeft = Bhook;
metricRight = T;
unicode = 428;
},
{
glyphname = Tretroflexhook;
kernLeft = T;
kernRight = T;
lastChange = "2022-12-20 11:14:49 +0000";
layers = (
{
layerId = m01;
shapes = (
{
closed = 1;
nodes = (
(141,-184,ls),
(251,-184,o),
(308,-100,o),
(308,0,cs),
(308,160,l),
(189,160,l),
(189,-6,ls),
(189,-44,o),
(177,-71,o),
(133,-71,cs),
(86,-71,l),
(86,-184,l)
);
},
{
ref = T;
}
);
userData = {
com.hugojourdan.ColorFlow = {
"0" = 0;
"1" = 0;
"10" = 0;
"11" = 0;
"2" = 0;
"3" = 0;
"4" = 0;
"5" = 0;
"6" = 0;
"7" = 0;
"8" = 0;
"9" = 0;
};
};
width = 497;
}
);
metricLeft = T;
metricRight = T;
unicode = 430;
},
{
glyphname = U;
kernLeft = U;
kernRight = U;
lastChange = "2022-12-20 22:31:11 +0000";
layers = (
{
anchors = (
{
name = bottom;
pos = (291,0);
},
{
name = ogonek;
pos = (291,10);
},
{
name = top;
pos = (291,700);
},
{
name = topright;
pos = (473,700);
}
);
hints = (
{
horizontal = 1;
place = (-10, 117);
place = (-10, 117);
type = Stem;
},
{
horizontal = 1;
place = (700, -20);
target = down;
type = TopGhost;
},
{
place = (60, 119);
place = (60, 119);
type = Stem;
},
{
place = (433, 119);
place = (433, 119);
type = Stem;
}
);
layerId = m01;
shapes = (
{
closed = 1;
nodes = (
(428,-10,o),
(537,90,o),
(537,230,cs),
(537,700,l),
(418,700,l),
(418,243,ls),
(418,156,o),
(364,107,o),
(291,107,cs),
(217,107,o),
(164,156,o),
(164,243,cs),
(164,700,l),
(45,700,l),
(45,230,ls),
(45,90,o),
(153,-10,o),
(291,-10,cs)
);
}
);
userData = {
com.hugojourdan.ColorFlow = {
"0" = 0;
"1" = 0;
"10" = 0;
"11" = 0;
"2" = 0;
"3" = 0;
"4" = 0;
"5" = 0;
"6" = 0;
"7" = 0;
"8" = 0;
"9" = 0;
};
};
width = 582;
}
);
metricRight = "=|";
note = U;
unicode = 85;
},
{
glyphname = Ubar;
kernLeft = U;
kernRight = U;
lastChange = "2022-12-20 11:14:58 +0000";
layers = (
{
anchors = (
{
name = bottom;
pos = (328,0);
},
{
name = ogonek;
pos = (328,10);
},
{
name = top;
pos = (328,700);
},
{
name = topright;
pos = (510,700);
}
);
background = {
shapes = (
{
closed = 1;
nodes = (
(738,506,l),
(738,619,l),
(32,619,l),
(32,506,l)
);
},
{
closed = 1;
nodes = (
(547,700,l),
(547,412,l),
(224,412,l),
(224,700,l),
(105,700,l),
(105,0,l),
(224,0,l),
(224,299,l),
(547,299,l),
(547,0,l),
(666,0,l),
(666,700,l)
);
}
);
};
hints = (
{
horizontal = 1;
place = (-10, 117);
place = (-10, 117);
type = Stem;
},
{
horizontal = 1;
place = (700, -20);
target = down;
type = TopGhost;
},
{
place = (60, 119);
place = (60, 119);
type = Stem;
},
{
place = (433, 119);
place = (433, 119);
type = Stem;
}
);
layerId = m01;
shapes = (
{
closed = 1;
nodes = (
(465,-10,o),
(574,90,o),
(574,230,cs),
(574,700,l),
(455,700,l),
(455,243,ls),
(455,156,o),
(401,107,o),
(328,107,cs),
(254,107,o),
(201,156,o),
(201,243,cs),
(201,700,l),
(82,700,l),
(82,230,ls),
(82,90,o),
(190,-10,o),
(328,-10,cs)
);
},
{
closed = 1;
nodes = (
(646,506,l),
(646,619,l),
(10,619,l),
(10,506,l)
);
}
);
userData = {
com.hugojourdan.ColorFlow = {
"0" = 0;
"1" = 0;
"10" = 0;
"11" = 0;
"2" = 0;
"3" = 0;
"4" = 0;
"5" = 0;
"6" = 0;
"7" = 0;
"8" = 0;
"9" = 0;
};
};
width = 656;
}
);
metricLeft = Hbar;
metricRight = Hbar;
unicode = 580;
},
{
glyphname = Uhorn;
kernLeft = U;
kernRight = Uhorn;
lastChange = "2022-12-08 20:06:14 +0000";
layers = (
{
anchors = (
{
name = bottom;
pos = (306,0);
},
{
name = top;
pos = (306,700);
}
);
hints = (
{
horizontal = 1;
place = (-10, 117);
place = (-10, 117);
type = Stem;
},
{
horizontal = 1;
place = (700, -20);
target = down;
type = TopGhost;
},
{
place = (60, 119);
place = (60, 119);
type = Stem;
},
{
place = (433, 119);
place = (433, 119);
type = Stem;
},
{
horizontal = 1;
place = (510, 90);
place = (510, 90);
type = Stem;
},
{
place = (371, 97);
place = (371, 97);
type = Stem;
}
);
layerId = m01;
shapes = (
{
closed = 1;
nodes = (
(443,-10,o),
(552,90,o),
(552,230,cs),
(552,700,l),
(433,700,l),
(433,243,ls),
(433,156,o),
(379,107,o),
(306,107,cs),
(232,107,o),
(179,156,o),
(179,243,cs),
(179,700,l),
(60,700,l),
(60,230,ls),
(60,90,o),
(168,-10,o),
(306,-10,cs)
);
},
{
closed = 1;
nodes = (
(626,510,l),
(700,562,l),
(700,761,l),
(603,761,l),
(603,600,l),
(508,600,l),
(508,510,l)
);
}
);
userData = {
com.hugojourdan.ColorFlow = {
"0" = 0;
"1" = 0;
"10" = 0;
"11" = 0;
"2" = 0;
"3" = 0;
"4" = 0;
"5" = 0;
"6" = 0;
"7" = 0;
"8" = 0;
"9" = 0;
};
};
width = 685;
}
);
unicode = 431;
},
{
glyphname = V;
kernLeft = V;
kernRight = V;
lastChange = "2022-12-20 22:33:35 +0000";
layers = (
{
anchors = (
{
name = bottom;
pos = (284,0);
},
{
name = top;
pos = (284,700);
}
);
hints = (
{
horizontal = 1;
place = (0, 21);
target = up;
type = BottomGhost;
},
{
horizontal = 1;
place = (700, -20);
target = down;
type = TopGhost;
},
{
place = (0, 578);
place = (0, 578);
type = Stem;
}
);
layerId = m01;
shapes = (
{
closed = 1;
nodes = (
(361,0,l),
(573,700,l),
(451,700,l),
(287,138,l),
(117,700,l),
(-5,700,l),
(214,0,l)
);
}
);
userData = {
com.hugojourdan.ColorFlow = {
"0" = 0;
"1" = 0;
"10" = 0;
"11" = 0;
"2" = 0;
"3" = 0;
"4" = 0;
"5" = 0;
"6" = 0;
"7" = 0;
"8" = 0;
"9" = 0;
};
};
width = 568;
}
);
metricLeft = A;
metricRight = "=|";
note = V;
unicode = 86;
},
{
glyphname = "Gamma-latin";
kernLeft = V;
kernRight = V;
lastChange = "2022-12-20 11:15:33 +0000";
layers = (
{
background = {
shapes = (
{
closed = 1;
nodes = (
(474,700,l),
(310,138,l),
(140,700,l),
(18,700,l),
(237,0,l),
(384,0,l),
(596,700,l)
);
}
);
};
layerId = m01;
shapes = (
{
closed = 1;
nodes = (
(394,-210,o),
(456,-149,o),
(456,-64,cs),
(456,-17,o),
(447,18,o),
(369,167,c),
(617,700,l),
(487,700,l),
(306,305,l),
(125,700,l),
(-5,700,l),
(243,167,l),
(165,18,o),
(156,-17,o),
(156,-64,cs),
(156,-149,o),
(218,-210,o),
(306,-210,cs)
);
},
{
closed = 1;
nodes = (
(285,-97,o),
(272,-86,o),
(272,-63,cs),
(272,-39,o),
(280,-13,o),
(306,39,c),
(332,-13,o),
(340,-39,o),
(340,-63,cs),
(340,-86,o),
(327,-97,o),
(306,-97,cs)
);
}
);
userData = {
com.hugojourdan.ColorFlow = {
"0" = 0;
"1" = 0;
"10" = 0;
"11" = 0;
"2" = 0;
"3" = 0;
"4" = 0;
"5" = 0;
"6" = 0;
"7" = 0;
"8" = 0;
"9" = 0;
};
};
width = 612;
}
);
metricLeft = V;
metricRight = V;
unicode = 404;
},
{
glyphname = Vhook;
kernLeft = V;
kernRight = V;
lastChange = "2022-12-20 11:15:41 +0000";
layers = (
{
anchors = (
{
name = bottom;
pos = (284,0);
},
{
name = top;
pos = (284,700);
}
);
hints = (
{
horizontal = 1;
place = (0, 21);
target = up;
type = BottomGhost;
},
{
horizontal = 1;
place = (700, -20);
target = down;
type = TopGhost;
},
{
place = (0, 578);
place = (0, 578);
type = Stem;
}
);
layerId = m01;
shapes = (
{
closed = 1;
nodes = (
(351,0,l),
(298,103,l),
(117,700,l),
(-5,700,l),
(214,0,l)
);
},
{
closed = 1;
nodes = (
(351,0,l),
(432,143,o),
(551,326,o),
(551,493,cs),
(551,622,o),
(464,700,o),
(349,700,cs),
(313,700,l),
(313,587,l),
(337,587,ls),
(397,587,o),
(434,551,o),
(434,478,cs),
(434,362,o),
(326,169,o),
(218,0,c)
);
}
);
userData = {
com.hugojourdan.ColorFlow = {
"0" = 0;
"1" = 0;
"10" = 0;
"11" = 0;
"2" = 0;
"3" = 0;
"4" = 0;
"5" = 0;
"6" = 0;
"7" = 0;
"8" = 0;
"9" = 0;
};
};
width = 561;
}
);
metricLeft = V;
metricRight = P;
unicode = 434;
},
{
glyphname = W;
kernLeft = V;
kernRight = V;
lastChange = "2022-12-20 21:39:24 +0000";
layers = (
{
anchors = (
{
name = bottom;
pos = (441,0);
},
{
name = top;
pos = (441,700);
}
);
hints = (
{
horizontal = 1;
place = (0, 21);
target = up;
type = BottomGhost;
},
{
horizontal = 1;
place = (700, -20);
target = down;
type = TopGhost;
},
{
place = (10, 880);
place = (10, 880);
type = Stem;
},
{
horizontal = 1;
place = (0, 179);
place = (0, 179);
type = Stem;
}
);
layerId = m01;
shapes = (
{
closed = 1;
nodes = (
(316,0,l),
(441,522,l),
(566,0,l),
(713,0,l),
(887,700,l),
(768,700,l),
(640,179,l),
(510,700,l),
(372,700,l),
(242,179,l),
(114,700,l),
(-5,700,l),
(169,0,l)
);
}
);
userData = {
com.hugojourdan.ColorFlow = {
"0" = 0;
"1" = 0;
"10" = 0;
"11" = 0;
"2" = 0;
"3" = 0;
"4" = 0;
"5" = 0;
"6" = 0;
"7" = 0;
"8" = 0;
"9" = 0;
};
};
width = 882;
}
);
metricLeft = A;
metricRight = "=|";
note = W;
unicode = 87;
},
{
glyphname = Whook;
kernLeft = V;
kernRight = Whook;
lastChange = "2022-12-20 11:16:25 +0000";
layers = (
{
anchors = (
{
name = bottom;
pos = (441,0);
},
{
name = top;
pos = (441,700);
}
);
hints = (
{
horizontal = 1;
place = (0, 21);
target = up;
type = BottomGhost;
},
{
horizontal = 1;
place = (700, -20);
target = down;
type = TopGhost;
},
{
place = (10, 880);
place = (10, 880);
type = Stem;
},
{
horizontal = 1;
place = (0, 179);
place = (0, 179);
type = Stem;
}
);
layerId = m01;
shapes = (
{
closed = 1;
nodes = (
(316,0,l),
(441,522,l),
(566,0,l),
(713,0,l),
(842,525,ls),
(853,568,o),
(872,587,o),
(912,587,cs),
(946,587,l),
(946,700,l),
(906,700,ls),
(831,700,o),
(761,664,o),
(739,577,cs),
(640,180,l),
(510,700,l),
(372,700,l),
(242,179,l),
(114,700,l),
(-5,700,l),
(169,0,l)
);
}
);
userData = {
com.hugojourdan.ColorFlow = {
"0" = 0;
"1" = 0;
"10" = 0;
"11" = 0;
"2" = 0;
"3" = 0;
"4" = 0;
"5" = 0;
"6" = 0;
"7" = 0;
"8" = 0;
"9" = 0;
};
};
width = 921;
}
);
metricLeft = A;
unicode = 11378;
},
{
glyphname = X;
kernLeft = X;
kernRight = X;
lastChange = "2022-12-20 22:38:06 +0000";
layers = (
{
anchors = (
{
name = bottom;
pos = (292,0);
},
{
name = bottomright;
pos = (484,0);
},
{
name = top;
pos = (292,700);
}
);
hints = (
{
horizontal = 1;
place = (0, 21);
target = up;
type = BottomGhost;
},
{
horizontal = 1;
place = (700, -20);
target = down;
type = TopGhost;
},
{
place = (13, 587);
place = (13, 587);
type = Stem;
}
);
layerId = m01;
shapes = (
{
closed = 1;
nodes = (
(132,0,l),
(289,253,l),
(452,0,l),
(588,0,l),
(358,356,l),
(577,700,l),
(441,700,l),
(292,459,l),
(136,700,l),
(2,700,l),
(223,357,l),
(-5,0,l)
);
}
);
userData = {
com.hugojourdan.ColorFlow = {
"0" = 0;
"1" = 0;
"10" = 0;
"11" = 0;
"2" = 0;
"3" = 0;
"4" = 0;
"5" = 0;
"6" = 0;
"7" = 0;
"8" = 0;
"9" = 0;
};
};
width = 583;
}
);
metricLeft = A;
metricRight = "=|";
note = X;
unicode = 88;
},
{
glyphname = Y;
kernLeft = Y;
kernRight = Y;
lastChange = "2022-12-20 22:40:27 +0000";
layers = (
{
anchors = (
{
name = bottom;
pos = (281,0);
},
{
name = top;
pos = (281,700);
},
{
name = topleft;
pos = (10,700);
}
);
hints = (
{
horizontal = 1;
place = (0, 21);
target = up;
type = BottomGhost;
},
{
horizontal = 1;
place = (700, -20);
target = down;
type = TopGhost;
},
{
place = (233, 119);
place = (233, 119);
type = Stem;
}
);
layerId = m01;
shapes = (
{
closed = 1;
nodes = (
(344,0,l),
(344,228,l),
(567,700,l),
(442,700,l),
(284,351,l),
(120,700,l),
(-5,700,l),
(225,228,l),
(225,0,l)
);
}
);
userData = {
com.hugojourdan.ColorFlow = {
"0" = 0;
"1" = 0;
"10" = 0;
"11" = 0;
"2" = 0;
"3" = 0;
"4" = 0;
"5" = 0;
"6" = 0;
"7" = 0;
"8" = 0;
"9" = 0;
};
};
width = 562;
}
);
metricLeft = A;
metricRight = "=|";
note = Y;
unicode = 89;
},
{
glyphname = Yhook;
kernLeft = Y;
kernRight = Yhook;
lastChange = "2022-12-20 11:16:43 +0000";
layers = (
{
anchors = (
{
name = bottom;
pos = (281,0);
},
{
name = top;
pos = (281,700);
},
{
name = topleft;
pos = (10,700);
}
);
hints = (
{
horizontal = 1;
place = (0, 21);
target = up;
type = BottomGhost;
},
{
horizontal = 1;
place = (700, -20);
target = down;
type = TopGhost;
},
{
place = (233, 119);
place = (233, 119);
type = Stem;
}
);
layerId = m01;
shapes = (
{
closed = 1;
nodes = (
(344,0,l),
(344,228,l),
(484,525,ls),
(503,566,o),
(521,587,o),
(561,587,cs),
(588,587,l),
(588,700,l),
(555,700,ls),
(490,700,o),
(432,678,o),
(391,587,cs),
(285,349,l),
(120,700,l),
(-5,700,l),
(225,228,l),
(225,0,l)
);
}
);
userData = {
com.hugojourdan.ColorFlow = {
"0" = 0;
"1" = 0;
"10" = 0;
"11" = 0;
"2" = 0;
"3" = 0;
"4" = 0;
"5" = 0;
"6" = 0;
"7" = 0;
"8" = 0;
"9" = 0;
};
};
width = 563;
}
);
metricLeft = A;
unicode = 435;
},
{
glyphname = Ystroke;
kernLeft = Ystroke;
kernRight = Ystroke;
lastChange = "2022-12-08 20:06:14 +0000";
layers = (
{
anchors = (
{
name = bottom;
pos = (316,0);
},
{
name = top;
pos = (316,700);
},
{
name = topleft;
pos = (45,700);
}
);
hints = (
{
horizontal = 1;
place = (0, 21);
target = up;
type = BottomGhost;
},
{
horizontal = 1;
place = (700, -20);
target = down;
type = TopGhost;
},
{
place = (233, 119);
place = (233, 119);
type = Stem;
}
);
layerId = m01;
shapes = (
{
closed = 1;
nodes = (
(379,0,l),
(379,228,l),
(602,700,l),
(477,700,l),
(319,351,l),
(155,700,l),
(30,700,l),
(260,228,l),
(260,0,l)
);
},
{
closed = 1;
nodes = (
(632,506,l),
(632,619,l),
(0,619,l),
(0,506,l)
);
}
);
userData = {
com.hugojourdan.ColorFlow = {
"0" = 0;
"1" = 0;
"10" = 0;
"11" = 0;
"2" = 0;
"3" = 0;
"4" = 0;
"5" = 0;
"6" = 0;
"7" = 0;
"8" = 0;
"9" = 0;
};
};
width = 632;
}
);
unicode = 590;
},
{
glyphname = Z;
kernLeft = Z;
kernRight = Z;
lastChange = "2022-12-20 22:40:10 +0000";
layers = (
{
anchors = (
{
name = bottom;
pos = (243,0);
},
{
name = center;
pos = (243,350);
},
{
name = top;
pos = (243,700);
}
);
hints = (
{
horizontal = 1;
place = (0, 113);
place = (0, 113);
type = Stem;
},
{
horizontal = 1;
place = (587, 113);
place = (587, 113);
type = Stem;
},
{
place = (20, 506);
place = (20, 506);
type = Stem;
}
);
layerId = m01;
shapes = (
{
closed = 1;
nodes = (
(481,0,l),
(481,113,l),
(140,113,l),
(476,587,l),
(476,700,l),
(5,700,l),
(5,587,l),
(341,587,l),
(5,113,l),
(5,0,l)
);
}
);
userData = {
com.hugojourdan.ColorFlow = {
"0" = 0;
"1" = 0;
"10" = 0;
"11" = 0;
"2" = 0;
"3" = 0;
"4" = 0;
"5" = 0;
"6" = 0;
"7" = 0;
"8" = 0;
"9" = 0;
};
};
width = 486;
}
);
note = Z;
unicode = 90;
},
{
glyphname = Zstroke;
kernLeft = Z;
kernRight = Z;
lastChange = "2022-12-20 11:17:14 +0000";
layers = (
{
layerId = m01;
shapes = (
{
closed = 1;
nodes = (
(450,299,l),
(450,412,l),
(51,412,l),
(51,299,l)
);
},
{
ref = Z;
}
);
userData = {
com.hugojourdan.ColorFlow = {
"0" = 0;
"1" = 0;
"10" = 0;
"11" = 0;
"2" = 0;
"3" = 0;
"4" = 0;
"5" = 0;
"6" = 0;
"7" = 0;
"8" = 0;
"9" = 0;
};
};
width = 486;
}
);
metricLeft = Z;
metricRight = Z;
unicode = 437;
},
{
glyphname = B.ss01;
kernLeft = H;
kernRight = B;
lastChange = "2022-12-20 11:17:30 +0000";
layers = (
{
anchors = (
{
name = bottom;
pos = (285,0);
},
{
name = center;
pos = (263,350);
},
{
name = top;
pos = (263,700);
}
);
background = {
shapes = (
{
closed = 1;
nodes = (
(169,700,l),
(50,700,l),
(50,0,l),
(169,0,l)
);
},
{
closed = 1;
nodes = (
(205,706,o),
(139,610,o),
(139,519,cs),
(139,408,o),
(228,328,o),
(329,329,cs),
(453,330,o),
(519,427,o),
(519,519,cs),
(519,630,o),
(429,711,o),
(329,709,cs)
);
},
{
closed = 1;
nodes = (
(254,558,o),
(285,594,o),
(329,594,cs),
(373,594,o),
(404,558,o),
(404,519,cs),
(404,479,o),
(373,444,o),
(329,444,cs),
(285,444,o),
(254,479,o),
(254,519,cs)
);
},
{
closed = 1;
nodes = (
(205,367,o),
(139,271,o),
(139,180,cs),
(139,69,o),
(228,-11,o),
(329,-10,cs),
(453,-9,o),
(519,88,o),
(519,180,cs),
(519,291,o),
(429,372,o),
(329,370,cs)
);
},
{
closed = 1;
nodes = (
(254,219,o),
(285,255,o),
(329,255,cs),
(373,255,o),
(404,219,o),
(404,180,cs),
(404,140,o),
(373,105,o),
(329,105,cs),
(285,105,o),
(254,140,o),
(254,180,cs)
);
}
);
};
hints = (
{
horizontal = 1;
place = (0, 113);
place = (0, 113);
type = Stem;
},
{
horizontal = 1;
place = (216, 113);
place = (216, 113);
type = Stem;
},
{
horizontal = 1;
place = (587, 113);
place = (587, 113);
type = Stem;
},
{
place = (70, 119);
place = (70, 119);
type = Stem;
},
{
place = (440, 123);
place = (440, 123);
type = Stem;
},
{
horizontal = 1;
place = (359, 113);
place = (359, 113);
type = Stem;
},
{
place = (439, 123);
place = (439, 123);
type = Stem;
}
);
layerId = m01;
shapes = (
{
closed = 1;
nodes = (
(434,-9,o),
(520,66,o),
(520,172,cs),
(520,278,o),
(434,355,o),
(338,354,cs),
(241,353,o),
(156,278,o),
(156,172,cs),
(156,66,o),
(241,-11,o),
(338,-10,cs)
);
},
{
closed = 1;
nodes = (
(169,0,l),
(169,700,l),
(50,700,l),
(50,0,l)
);
},
{
closed = 1;
nodes = (
(296,94,o),
(260,127,o),
(260,172,cs),
(260,216,o),
(296,250,o),
(338,250,cs),
(380,250,o),
(416,216,o),
(416,172,cs),
(416,127,o),
(380,94,o),
(338,94,cs)
);
},
{
closed = 1;
nodes = (
(404,385,o),
(483,453,o),
(483,547,cs),
(483,641,o),
(404,711,o),
(320,710,cs),
(235,709,o),
(157,641,o),
(157,547,cs),
(157,453,o),
(235,383,o),
(320,384,cs)
);
},
{
closed = 1;
nodes = (
(290,488,o),
(261,513,o),
(261,547,cs),
(261,580,o),
(290,606,o),
(320,606,cs),
(350,606,o),
(379,580,o),
(379,547,cs),
(379,513,o),
(350,488,o),
(320,488,cs)
);
}
);
userData = {
com.hugojourdan.ColorFlow = {
"0" = 0;
"1" = 0;
"10" = 0;
"11" = 0;
"2" = 0;
"3" = 0;
"4" = 0;
"5" = 0;
"6" = 0;
"7" = 0;
"8" = 0;
"9" = 0;
};
};
width = 540;
}
);
metricLeft = H;
metricRight = B;
},
{
glyphname = Bhook.ss01;
kernLeft = Bhook.ss01;
kernRight = B;
lastChange = "2022-12-19 11:33:13 +0000";
layers = (
{
layerId = m01;
shapes = (
{
closed = 1;
nodes = (
(-26,494,l),
(-26,521,ls),
(-26,570,o),
(0,587,o),
(43,587,cs),
(102,587,l),
(102,700,l),
(49,700,ls),
(-56,700,o),
(-140,644,o),
(-140,529,cs),
(-140,494,l)
);
},
{
pos = (-2,0);
ref = B.ss01;
}
);
userData = {
com.hugojourdan.ColorFlow = {
"0" = 0;
"1" = 0;
"10" = 0;
"11" = 0;
"2" = 0;
"3" = 0;
"4" = 0;
"5" = 0;
"6" = 0;
"7" = 0;
"8" = 0;
"9" = 0;
};
};
width = 563;
}
);
metricLeft = Bhook;
},
{
glyphname = Bstroke.ss01;
kernLeft = Bstroke.ss01;
kernRight = B;
lastChange = "2022-12-09 10:20:01 +0000";
layers = (
{
layerId = m01;
shapes = (
{
closed = 1;
nodes = (
(176,299,l),
(176,412,l),
(-20,412,l),
(-20,299,l)
);
},
{
pos = (-13,0);
ref = B.ss01;
}
);
userData = {
com.hugojourdan.ColorFlow = {
"0" = 0;
"1" = 0;
"10" = 0;
"11" = 0;
"2" = 0;
"3" = 0;
"4" = 0;
"5" = 0;
"6" = 0;
"7" = 0;
"8" = 0;
"9" = 0;
};
};
width = 552;
}
);
metricLeft = Eth;
},
{
glyphname = D.ss01;
kernLeft = H;
kernRight = O;
lastChange = "2022-12-20 11:17:46 +0000";
layers = (
{
anchors = (
{
name = bottom;
pos = (392,0);
},
{
name = center;
pos = (384,350);
},
{
name = top;
pos = (384,700);
}
);
background = {
shapes = (
{
closed = 1;
nodes = (
(50,700,l),
(50,0,l),
(160,0,l),
(169,34,l),
(169,666,l),
(160,700,l)
);
},
{
closed = 1;
nodes = (
(153,39,o),
(212,-10,o),
(341,-10,cs),
(502,-10,o),
(669,132,o),
(669,350,cs),
(669,566,o),
(502,710,o),
(341,710,cs),
(212,710,o),
(153,661,o),
(98,610,c),
(148,518,l),
(192,570,o),
(245,593,o),
(323,593,cs),
(446,593,o),
(546,498,o),
(546,350,cs),
(546,200,o),
(446,107,o),
(323,107,cs),
(245,107,o),
(193,130,o),
(148,182,c),
(98,90,l)
);
}
);
};
hints = (
{
horizontal = 1;
place = (0, 113);
place = (0, 113);
type = Stem;
},
{
horizontal = 1;
place = (587, 113);
place = (587, 113);
type = Stem;
},
{
place = (70, 119);
place = (70, 119);
type = Stem;
},
{
place = (490, 123);
place = (490, 123);
type = Stem;
}
);
layerId = m01;
shapes = (
{
closed = 1;
nodes = (
(589,-10,o),
(758,132,o),
(758,350,cs),
(758,566,o),
(589,710,o),
(402,710,cs),
(293,710,o),
(190,661,o),
(123,578,cs),
(75,518,o),
(86,440,o),
(86,350,cs),
(86,250,o),
(82,165,o),
(138,104,cs),
(205,31,o),
(301,-10,o),
(402,-10,cs)
);
},
{
closed = 1;
nodes = (
(169,0,l),
(169,700,l),
(50,700,l),
(50,0,l)
);
},
{
closed = 1;
nodes = (
(278,107,o),
(169,200,o),
(169,350,cs),
(169,498,o),
(278,593,o),
(402,593,cs),
(525,593,o),
(635,498,o),
(635,350,cs),
(635,200,o),
(525,107,o),
(402,107,cs)
);
}
);
userData = {
com.hugojourdan.ColorFlow = {
"0" = 0;
"1" = 0;
"10" = 0;
"11" = 0;
"2" = 0;
"3" = 0;
"4" = 0;
"5" = 0;
"6" = 0;
"7" = 0;
"8" = 0;
"9" = 0;
};
};
width = 773;
}
);
metricLeft = H;
metricRight = O;
},
{
glyphname = Eth.ss01;
kernLeft = Eth.ss01;
kernRight = O;
lastChange = "2022-12-15 14:56:07 +0000";
layers = (
{
anchors = (
{
name = _center;
pos = (392,350);
}
);
layerId = m01;
shapes = (
{
closed = 1;
nodes = (
(382,299,l),
(382,412,l),
(-20,412,l),
(-20,299,l)
);
},
{
pos = (-12,0);
ref = D.ss01;
}
);
userData = {
com.hugojourdan.ColorFlow = {
"0" = 0;
"1" = 0;
"10" = 0;
"11" = 0;
"2" = 0;
"3" = 0;
"4" = 0;
"5" = 0;
"6" = 0;
"7" = 0;
"8" = 0;
"9" = 0;
};
};
width = 761;
}
);
metricLeft = Eth;
metricRight = O;
},
{
glyphname = Dtail.ss01;
kernLeft = Dtail.ss01;
kernRight = O;
lastChange = "2022-12-15 14:56:07 +0000";
layers = (
{
layerId = m01;
shapes = (
{
closed = 1;
nodes = (
(462,299,l),
(462,412,l),
(-20,412,l),
(-20,299,l)
);
},
{
pos = (-12,0);
ref = D.ss01;
}
);
userData = {
com.hugojourdan.ColorFlow = {
"0" = 0;
"1" = 0;
"10" = 0;
"11" = 0;
"2" = 0;
"3" = 0;
"4" = 0;
"5" = 0;
"6" = 0;
"7" = 0;
"8" = 0;
"9" = 0;
};
};
width = 761;
}
);
metricLeft = Eth;
metricRight = O;
},
{
glyphname = P.ss01;
kernLeft = H;
kernRight = P;
lastChange = "2022-12-20 11:18:09 +0000";
layers = (
{
anchors = (
{
name = bottom;
pos = (292,0);
},
{
name = top;
pos = (292,700);
}
);
hints = (
{
horizontal = 1;
place = (0, 21);
target = up;
type = BottomGhost;
},
{
horizontal = 1;
place = (700, -20);
target = down;
type = TopGhost;
},
{
place = (70, 119);
place = (70, 119);
type = Stem;
}
);
layerId = m01;
shapes = (
{
closed = 1;
nodes = (
(496,250,o),
(599,351,o),
(599,479,cs),
(599,607,o),
(496,711,o),
(369,709,cs),
(242,707,o),
(139,607,o),
(139,479,cs),
(139,351,o),
(242,248,o),
(369,249,cs)
);
},
{
closed = 1;
nodes = (
(169,0,l),
(169,700,l),
(50,700,l),
(50,0,l)
);
},
{
closed = 1;
nodes = (
(312,364,o),
(254,411,o),
(254,479,cs),
(254,546,o),
(312,594,o),
(369,594,cs),
(426,594,o),
(484,546,o),
(484,479,cs),
(484,411,o),
(426,364,o),
(369,364,cs)
);
}
);
userData = {
com.hugojourdan.ColorFlow = {
"0" = 0;
"1" = 0;
"10" = 0;
"11" = 0;
"2" = 0;
"3" = 0;
"4" = 0;
"5" = 0;
"6" = 0;
"7" = 0;
"8" = 0;
"9" = 0;
};
};
width = 609;
}
);
metricLeft = H;
metricRight = P;
},
{
glyphname = Phook.ss01;
kernLeft = Phook.ss01;
kernRight = P;
lastChange = "2022-12-20 11:18:26 +0000";
layers = (
{
layerId = m01;
shapes = (
{
closed = 1;
nodes = (
(-26,494,l),
(-26,521,ls),
(-26,570,o),
(0,587,o),
(43,587,cs),
(102,587,l),
(102,700,l),
(49,700,ls),
(-56,700,o),
(-140,644,o),
(-140,529,cs),
(-140,494,l)
);
},
{
pos = (-1,0);
ref = P.ss01;
}
);
userData = {
com.hugojourdan.ColorFlow = {
"0" = 0;
"1" = 0;
"10" = 0;
"11" = 0;
"2" = 0;
"3" = 0;
"4" = 0;
"5" = 0;
"6" = 0;
"7" = 0;
"8" = 0;
"9" = 0;
};
};
width = 608;
}
);
metricLeft = Bhook;
metricRight = P;
},
{
glyphname = Pstroke.ss01;
kernLeft = Pstroke.ss01;
kernRight = P;
lastChange = "2022-12-20 11:18:52 +0000";
layers = (
{
layerId = m01;
shapes = (
{
closed = 1;
nodes = (
(176,299,l),
(176,412,l),
(-20,412,l),
(-20,299,l)
);
},
{
pos = (7,0);
ref = P.ss01;
}
);
userData = {
com.hugojourdan.ColorFlow = {
"0" = 0;
"1" = 0;
"10" = 0;
"11" = 0;
"2" = 0;
"3" = 0;
"4" = 0;
"5" = 0;
"6" = 0;
"7" = 0;
"8" = 0;
"9" = 0;
};
};
width = 616;
}
);
metricLeft = Eth;
metricRight = P;
},
{
glyphname = R.ss01;
kernLeft = H;
kernRight = R;
lastChange = "2022-12-19 11:22:04 +0000";
layers = (
{
anchors = (
{
name = bottom;
pos = (292,0);
},
{
name = top;
pos = (309,700);
}
);
layerId = m01;
shapes = (
{
closed = 1;
nodes = (
(169,0,l),
(169,186,l),
(385,186,l),
(437,0,l),
(556,0,l),
(472,299,l),
(169,299,l),
(169,700,l),
(50,700,l),
(50,0,l)
);
},
{
closed = 1;
nodes = (
(431,330,o),
(519,408,o),
(519,519,cs),
(519,630,o),
(431,711,o),
(329,709,cs),
(227,707,o),
(139,630,o),
(139,519,cs),
(139,408,o),
(227,328,o),
(329,329,cs)
);
},
{
closed = 1;
nodes = (
(289,444,o),
(254,476,o),
(254,519,cs),
(254,561,o),
(289,594,o),
(329,594,cs),
(369,594,o),
(404,561,o),
(404,519,cs),
(404,476,o),
(369,444,o),
(329,444,cs)
);
}
);
userData = {
com.hugojourdan.ColorFlow = {
"0" = 0;
"1" = 0;
"10" = 0;
"11" = 0;
"2" = 0;
"3" = 0;
"4" = 0;
"5" = 0;
"6" = 0;
"7" = 0;
"8" = 0;
"9" = 0;
};
};
width = 551;
}
);
metricLeft = H;
metricRight = R;
},
{
glyphname = Rstroke.ss01;
kernLeft = Rstroke.ss01;
kernRight = R;
lastChange = "2022-12-19 11:22:04 +0000";
layers = (
{
anchors = (
{
name = bottom;
pos = (300,0);
},
{
name = top;
pos = (317,700);
}
);
layerId = m01;
shapes = (
{
closed = 1;
nodes = (
(564,0,l),
(480,299,l),
(-20,299,l),
(-20,186,l),
(393,186,l),
(445,0,l)
);
},
{
closed = 1;
nodes = (
(177,0,l),
(177,700,l),
(58,700,l),
(58,0,l)
);
},
{
closed = 1;
nodes = (
(439,330,o),
(527,408,o),
(527,519,cs),
(527,630,o),
(439,711,o),
(337,709,cs),
(235,707,o),
(147,630,o),
(147,519,cs),
(147,408,o),
(235,328,o),
(337,329,cs)
);
},
{
closed = 1;
nodes = (
(297,444,o),
(262,476,o),
(262,519,cs),
(262,561,o),
(297,594,o),
(337,594,cs),
(377,594,o),
(412,561,o),
(412,519,cs),
(412,476,o),
(377,444,o),
(337,444,cs)
);
}
);
userData = {
com.hugojourdan.ColorFlow = {
"0" = 0;
"1" = 0;
"10" = 0;
"11" = 0;
"2" = 0;
"3" = 0;
"4" = 0;
"5" = 0;
"6" = 0;
"7" = 0;
"8" = 0;
"9" = 0;
};
};
width = 559;
}
);
metricLeft = Eth;
metricRight = R;
},
{
glyphname = Rtail.ss01;
kernLeft = H;
kernRight = R;
lastChange = "2022-12-20 11:19:13 +0000";
layers = (
{
layerId = m01;
shapes = (
{
closed = 1;
nodes = (
(272,-184,l),
(272,-71,l),
(225,-71,ls),
(181,-71,o),
(169,-44,o),
(169,-6,cs),
(169,160,l),
(50,160,l),
(50,0,ls),
(50,-100,o),
(107,-184,o),
(217,-184,cs)
);
},
{
ref = R.ss01;
}
);
userData = {
com.hugojourdan.ColorFlow = {
"0" = 0;
"1" = 0;
"10" = 0;
"11" = 0;
"2" = 0;
"3" = 0;
"4" = 0;
"5" = 0;
"6" = 0;
"7" = 0;
"8" = 0;
"9" = 0;
};
};
width = 551;
}
);
metricLeft = H;
metricRight = R;
},
{
glyphname = K.ss02;
kernLeft = H;
kernRight = K;
lastChange = "2022-12-15 14:55:05 +0000";
layers = (
{
anchors = (
{
name = bottom;
pos = (289,0);
},
{
name = top;
pos = (289,700);
}
);
hints = (
{
horizontal = 1;
place = (0, 21);
target = up;
type = BottomGhost;
},
{
horizontal = 1;
place = (216, 113);
place = (216, 113);
type = Stem;
},
{
horizontal = 1;
place = (700, -20);
target = down;
type = TopGhost;
},
{
place = (70, 119);
place = (70, 119);
type = Stem;
},
{
horizontal = 1;
place = (359, 113);
place = (359, 113);
type = Stem;
}
);
layerId = m01;
shapes = (
{
closed = 1;
nodes = (
(169,0,l),
(169,216,l),
(370,216,l),
(478,0,l),
(597,0,l),
(433,329,l),
(169,329,l),
(169,359,l),
(433,359,l),
(577,700,l),
(458,700,l),
(362,472,l),
(169,472,l),
(169,700,l),
(50,700,l),
(50,0,l)
);
}
);
userData = {
com.hugojourdan.ColorFlow = {
"0" = 0;
"1" = 0;
"10" = 0;
"11" = 0;
"2" = 0;
"3" = 0;
"4" = 0;
"5" = 0;
"6" = 0;
"7" = 0;
"8" = 0;
"9" = 0;
};
};
width = 592;
}
);
metricLeft = H;
metricRight = K;
note = K.ss01;
},
{
glyphname = Khook.ss02;
kernLeft = H;
kernRight = Khook.ss02;
lastChange = "2022-12-20 11:24:24 +0000";
layers = (
{
anchors = (
{
name = bottom;
pos = (317,0);
},
{
name = top;
pos = (317,700);
}
);
hints = (
{
horizontal = 1;
place = (0, 21);
target = up;
type = BottomGhost;
},
{
horizontal = 1;
place = (216, 113);
place = (216, 113);
type = Stem;
},
{
horizontal = 1;
place = (700, -20);
target = down;
type = TopGhost;
},
{
place = (70, 119);
place = (70, 119);
type = Stem;
},
{
horizontal = 1;
place = (359, 113);
place = (359, 113);
type = Stem;
},
{
horizontal = 1;
place = (0, 21);
target = up;
type = BottomGhost;
},
{
horizontal = 1;
place = (216, 113);
place = (216, 113);
type = Stem;
},
{
horizontal = 1;
place = (700, -20);
target = down;
type = TopGhost;
},
{
place = (70, 119);
place = (70, 119);
type = Stem;
},
{
horizontal = 1;
place = (359, 113);
place = (359, 113);
type = Stem;
}
);
layerId = m01;
shapes = (
{
closed = 1;
nodes = (
(169,0,l),
(169,216,l),
(370,216,l),
(478,0,l),
(597,0,l),
(433,329,l),
(169,329,l),
(169,359,l),
(433,359,l),
(362,472,l),
(169,472,l),
(169,700,l),
(50,700,l),
(50,0,l)
);
},
{
closed = 1;
nodes = (
(433,359,l),
(500,517,ls),
(517,558,o),
(546,587,o),
(595,587,cs),
(630,587,l),
(630,700,l),
(587,700,ls),
(502,700,o),
(444,666,o),
(400,562,cs),
(314,359,l)
);
}
);
userData = {
com.hugojourdan.ColorFlow = {
"0" = 0;
"1" = 0;
"10" = 0;
"11" = 0;
"2" = 0;
"3" = 0;
"4" = 0;
"5" = 0;
"6" = 0;
"7" = 0;
"8" = 0;
"9" = 0;
};
};
width = 635;
}
);
metricLeft = H;
metricRight = Khook;
},
{
glyphname = Kstroke.ss02;
kernLeft = Kstroke.ss02;
kernRight = K;
lastChange = "2022-12-20 11:24:35 +0000";
layers = (
{
layerId = m01;
shapes = (
{
closed = 1;
nodes = (
(177,0,l),
(177,216,l),
(378,216,l),
(486,0,l),
(605,0,l),
(441,329,l),
(177,329,l),
(177,700,l),
(58,700,l),
(58,0,l)
);
},
{
closed = 1;
nodes = (
(441,359,l),
(585,700,l),
(466,700,l),
(370,472,l),
(-20,472,l),
(-20,359,l)
);
}
);
userData = {
com.hugojourdan.ColorFlow = {
"0" = 0;
"1" = 0;
"10" = 0;
"11" = 0;
"2" = 0;
"3" = 0;
"4" = 0;
"5" = 0;
"6" = 0;
"7" = 0;
"8" = 0;
"9" = 0;
};
};
width = 600;
}
);
metricLeft = Eth;
metricRight = K.ss02;
},
{
glyphname = S.ss03;
kernLeft = S;
kernRight = S;
lastChange = "2022-12-15 14:55:05 +0000";
layers = (
{
anchors = (
{
name = bottom;
pos = (314,0);
},
{
name = top;
pos = (297,700);
}
);
background = {
shapes = (
{
closed = 1;
nodes = (
(300,350,l),
(369,350,o),
(440,310,o),
(440,227,cs),
(440,151,o),
(386,105,o),
(320,105,cs),
(257,105,o),
(207,140,o),
(182,189,c),
(87,122,l),
(126,47,o),
(210,-11,o),
(320,-10,cs),
(451,-9,o),
(555,92,o),
(555,227,cs),
(555,368,o),
(434,466,o),
(300,465,c)
);
},
{
closed = 1;
nodes = (
(300,350,l),
(231,350,o),
(160,390,o),
(160,473,cs),
(160,549,o),
(217,595,o),
(280,595,cs),
(343,595,o),
(393,560,o),
(418,511,c),
(513,578,l),
(474,653,o),
(390,711,o),
(280,710,cs),
(152,709,o),
(45,608,o),
(45,473,cs),
(45,332,o),
(166,234,o),
(300,235,c)
);
}
);
};
layerId = m01;
shapes = (
{
closed = 1;
nodes = (
(461,-9,o),
(565,97,o),
(565,242,cs),
(565,393,o),
(445,500,o),
(305,500,cs),
(214,500,o),
(144,456,o),
(92,377,c),
(156,281,l),
(198,349,o),
(244,385,o),
(300,385,cs),
(379,385,o),
(450,335,o),
(450,242,cs),
(450,156,o),
(393,105,o),
(313,105,cs),
(233,105,o),
(191,149,o),
(160,204,c),
(67,134,l),
(110,56,o),
(189,-11,o),
(323,-10,cs)
);
},
{
closed = 1;
nodes = (
(300,335,l),
(231,335,o),
(160,385,o),
(160,468,cs),
(160,544,o),
(220,595,o),
(287,595,cs),
(357,595,o),
(402,556,o),
(430,506,c),
(523,576,l),
(483,649,o),
(401,711,o),
(277,710,cs),
(152,709,o),
(45,603,o),
(45,468,cs),
(45,327,o),
(166,219,o),
(300,220,c)
);
}
);
userData = {
com.hugojourdan.ColorFlow = {
"0" = 0;
"1" = 0;
"10" = 0;
"11" = 0;
"2" = 0;
"3" = 0;
"4" = 0;
"5" = 0;
"6" = 0;
"7" = 0;
"8" = 0;
"9" = 0;
};
};
width = 580;
}
);
metricRight = O;
},
{
glyphname = A_A.dlig;
kernLeft = A;
kernRight = A;
lastChange = "2022-12-15 14:55:05 +0000";
layers = (
{
anchors = (
{
name = bottom;
pos = (299,0);
},
{
name = ogonek;
pos = (542,10);
},
{
name = top;
pos = (291,700);
}
);
hints = (
{
horizontal = 1;
place = (0, 21);
target = up;
type = BottomGhost;
},
{
horizontal = 1;
place = (166, 113);
place = (166, 113);
type = Stem;
},
{
horizontal = 1;
place = (700, -20);
target = down;
type = TopGhost;
},
{
place = (0, 608);
place = (0, 608);
type = Stem;
},
{
horizontal = 1;
place = (575, 125);
place = (575, 125);
type = Stem;
},
{
horizontal = 1;
place = (0, 21);
target = up;
type = BottomGhost;
},
{
horizontal = 1;
place = (166, 113);
place = (166, 113);
type = Stem;
},
{
horizontal = 1;
place = (700, -20);
target = down;
type = TopGhost;
},
{
place = (608, 608);
place = (608, 608);
type = Stem;
},
{
horizontal = 1;
place = (575, 125);
place = (575, 125);
type = Stem;
}
);
layerId = m01;
shapes = (
{
closed = 1;
nodes = (
(117,0,l),
(291,585,l),
(479,0,l),
(603,0,l),
(360,700,l),
(221,700,l),
(-5,0,l)
);
},
{
closed = 1;
nodes = (
(441,166,l),
(404,279,l),
(185,279,l),
(151,166,l)
);
},
{
closed = 1;
nodes = (
(750,166,l),
(713,279,l),
(494,279,l),
(460,166,l)
);
},
{
closed = 1;
nodes = (
(912,0,l),
(669,700,l),
(530,700,l),
(359,184,l),
(481,184,l),
(600,585,l),
(788,0,l)
);
}
);
userData = {
com.hugojourdan.ColorFlow = {
"0" = 0;
"1" = 0;
"10" = 0;
"11" = 0;
"2" = 0;
"3" = 0;
"4" = 0;
"5" = 0;
"6" = 0;
"7" = 0;
"8" = 0;
"9" = 0;
};
};
width = 907;
}
);
metricLeft = A;
metricRight = A;
},
{
glyphname = A_V.dlig;
kernLeft = A;
kernRight = V;
lastChange = "2022-12-15 14:55:05 +0000";
layers = (
{
anchors = (
{
name = bottom;
pos = (299,0);
},
{
name = ogonek;
pos = (542,10);
},
{
name = top;
pos = (291,700);
}
);
hints = (
{
horizontal = 1;
place = (0, 21);
target = up;
type = BottomGhost;
},
{
horizontal = 1;
place = (166, 113);
place = (166, 113);
type = Stem;
},
{
horizontal = 1;
place = (700, -20);
target = down;
type = TopGhost;
},
{
place = (0, 608);
place = (0, 608);
type = Stem;
},
{
horizontal = 1;
place = (575, 125);
place = (575, 125);
type = Stem;
},
{
horizontal = 1;
place = (0, 21);
target = up;
type = BottomGhost;
},
{
horizontal = 1;
place = (700, -20);
target = down;
type = TopGhost;
},
{
place = (608, 578);
place = (608, 578);
type = Stem;
}
);
layerId = m01;
shapes = (
{
closed = 1;
nodes = (
(117,0,l),
(291,585,l),
(479,0,l),
(603,0,l),
(360,700,l),
(221,700,l),
(-5,0,l)
);
},
{
closed = 1;
nodes = (
(441,166,l),
(404,279,l),
(185,279,l),
(151,166,l)
);
},
{
closed = 1;
nodes = (
(629,0,l),
(841,700,l),
(719,700,l),
(555,138,l),
(482,0,l)
);
}
);
userData = {
com.hugojourdan.ColorFlow = {
"0" = 0;
"1" = 0;
"10" = 0;
"11" = 0;
"2" = 0;
"3" = 0;
"4" = 0;
"5" = 0;
"6" = 0;
"7" = 0;
"8" = 0;
"9" = 0;
};
};
width = 836;
}
);
metricLeft = A;
metricRight = V;
},
{
glyphname = A_W.dlig;
kernLeft = A;
kernRight = V;
lastChange = "2022-12-15 14:55:05 +0000";
layers = (
{
anchors = (
{
name = bottom;
pos = (299,0);
},
{
name = ogonek;
pos = (542,10);
},
{
name = top;
pos = (291,700);
}
);
hints = (
{
horizontal = 1;
place = (0, 21);
target = up;
type = BottomGhost;
},
{
horizontal = 1;
place = (166, 113);
place = (166, 113);
type = Stem;
},
{
horizontal = 1;
place = (700, -20);
target = down;
type = TopGhost;
},
{
place = (0, 608);
place = (0, 608);
type = Stem;
},
{
horizontal = 1;
place = (575, 125);
place = (575, 125);
type = Stem;
},
{
horizontal = 1;
place = (0, 21);
target = up;
type = BottomGhost;
},
{
horizontal = 1;
place = (700, -20);
target = down;
type = TopGhost;
},
{
place = (618, 880);
place = (618, 880);
type = Stem;
},
{
horizontal = 1;
place = (0, 179);
place = (0, 179);
type = Stem;
}
);
layerId = m01;
shapes = (
{
closed = 1;
nodes = (
(616,0,l),
(741,522,l),
(866,0,l),
(1013,0,l),
(1187,700,l),
(1068,700,l),
(940,179,l),
(810,700,l),
(672,700,l),
(542,179,l),
(479,0,l)
);
},
{
closed = 1;
nodes = (
(441,166,l),
(404,279,l),
(185,279,l),
(151,166,l)
);
},
{
closed = 1;
nodes = (
(117,0,l),
(291,585,l),
(479,0,l),
(603,0,l),
(360,700,l),
(221,700,l),
(-5,0,l)
);
}
);
userData = {
com.hugojourdan.ColorFlow = {
"0" = 0;
"1" = 0;
"10" = 0;
"11" = 0;
"2" = 0;
"3" = 0;
"4" = 0;
"5" = 0;
"6" = 0;
"7" = 0;
"8" = 0;
"9" = 0;
};
};
width = 1182;
}
);
metricLeft = A;
metricRight = W;
},
{
glyphname = A_a.dlig;
kernLeft = A;
kernRight = A;
lastChange = "2022-12-15 14:55:05 +0000";
layers = (
{
anchors = (
{
name = bottom;
pos = (710,0);
},
{
name = ogonek;
pos = (935,10);
},
{
name = top;
pos = (702,700);
}
);
hints = (
{
horizontal = 1;
place = (0, 204);
place = (0, 204);
type = Stem;
},
{
horizontal = 1;
place = (700, -20);
target = down;
type = TopGhost;
},
{
place = (431, 552);
place = (431, 552);
type = Stem;
},
{
horizontal = 1;
place = (91, 113);
place = (91, 113);
type = Stem;
},
{
horizontal = 1;
place = (573, 127);
place = (573, 127);
type = Stem;
}
);
layerId = m01;
shapes = (
{
closed = 1;
nodes = (
(117,0,l),
(291,585,l),
(479,0,l),
(603,0,l),
(360,700,l),
(221,700,l),
(-5,0,l)
);
},
{
closed = 1;
nodes = (
(441,166,l),
(404,279,l),
(185,279,l),
(151,166,l)
);
},
{
closed = 1;
nodes = (
(886,91,l),
(886,204,l),
(533,204,l),
(533,91,l)
);
},
{
closed = 1;
nodes = (
(702,581,l),
(870,0,l),
(994,0,l),
(771,700,l),
(632,700,l),
(473,161,l),
(548,0,l)
);
}
);
userData = {
com.hugojourdan.ColorFlow = {
"0" = 0;
"1" = 0;
"10" = 0;
"11" = 0;
"2" = 0;
"3" = 0;
"4" = 0;
"5" = 0;
"6" = 0;
"7" = 0;
"8" = 0;
"9" = 0;
};
};
width = 989;
}
);
metricLeft = A;
metricRight = a;
},
{
glyphname = A_v.dlig;
kernLeft = A;
kernRight = V;
lastChange = "2022-12-15 14:55:05 +0000";
layers = (
{
anchors = (
{
name = bottom;
pos = (299,0);
},
{
name = ogonek;
pos = (542,10);
},
{
name = top;
pos = (291,700);
}
);
hints = (
{
horizontal = 1;
place = (0, 21);
target = up;
type = BottomGhost;
},
{
horizontal = 1;
place = (166, 113);
place = (166, 113);
type = Stem;
},
{
horizontal = 1;
place = (700, -20);
target = down;
type = TopGhost;
},
{
place = (0, 608);
place = (0, 608);
type = Stem;
},
{
horizontal = 1;
place = (575, 125);
place = (575, 125);
type = Stem;
},
{
horizontal = 1;
place = (0, 21);
target = up;
type = BottomGhost;
},
{
horizontal = 1;
place = (700, -20);
target = down;
type = TopGhost;
},
{
place = (618, 532);
place = (618, 532);
type = Stem;
}
);
layerId = m01;
shapes = (
{
closed = 1;
nodes = (
(117,0,l),
(291,585,l),
(479,0,l),
(603,0,l),
(360,700,l),
(221,700,l),
(-5,0,l)
);
},
{
closed = 1;
nodes = (
(441,166,l),
(404,279,l),
(185,279,l),
(151,166,l)
);
},
{
closed = 1;
nodes = (
(603,0,l),
(879,700,l),
(757,700,l),
(546,157,l),
(479,0,l)
);
}
);
userData = {
com.hugojourdan.ColorFlow = {
"0" = 0;
"1" = 0;
"10" = 0;
"11" = 0;
"2" = 0;
"3" = 0;
"4" = 0;
"5" = 0;
"6" = 0;
"7" = 0;
"8" = 0;
"9" = 0;
};
};
width = 874;
}
);
metricLeft = A;
metricRight = V;
},
{
glyphname = A_w.dlig;
kernLeft = ae;
kernRight = H;
lastChange = "2022-12-20 11:25:05 +0000";
layers = (
{
anchors = (
{
name = bottom;
pos = (469,0);
},
{
name = top;
pos = (544,700);
}
);
hints = (
{
horizontal = 1;
place = (0, 113);
place = (0, 113);
type = Stem;
},
{
horizontal = 1;
place = (299, 113);
place = (299, 113);
type = Stem;
},
{
horizontal = 1;
place = (587, 113);
place = (587, 113);
type = Stem;
},
{
place = (0, 892);
place = (0, 892);
type = Stem;
},
{
horizontal = 1;
place = (166, 113);
place = (166, 113);
type = Stem;
},
{
horizontal = 1;
place = (0, 21);
target = up;
type = BottomGhost;
},
{
horizontal = 1;
place = (700, -20);
target = down;
type = TopGhost;
},
{
place = (932, 800);
place = (932, 800);
type = Stem;
}
);
layerId = m01;
shapes = (
{
closed = 1;
nodes = (
(641,0,l),
(821,419,l),
(994,0,l),
(1161,0,l),
(1161,700,l),
(1042,700,l),
(1042,195,l),
(892,552,l),
(753,552,l),
(589,177,l),
(520,0,l)
);
},
{
closed = 1;
nodes = (
(488,166,l),
(477,279,l),
(259,279,l),
(199,166,l)
);
},
{
closed = 1;
nodes = (
(127,0,l),
(430,570,l),
(489,0,l),
(610,0,l),
(531,700,l),
(375,700,l),
(-5,0,l)
);
}
);
userData = {
com.hugojourdan.ColorFlow = {
"0" = 0;
"1" = 0;
"10" = 0;
"11" = 0;
"2" = 0;
"3" = 0;
"4" = 0;
"5" = 0;
"6" = 0;
"7" = 0;
"8" = 0;
"9" = 0;
};
};
width = 1211;
}
);
metricLeft = AE;
metricRight = w;
},
{
glyphname = C_A.dlig;
kernLeft = O;
kernRight = H;
lastChange = "2022-12-15 14:55:05 +0000";
layers = (
{
anchors = (
{
name = bottom;
pos = (374,0);
},
{
name = top;
pos = (374,700);
}
);
hints = (
{
horizontal = 1;
place = (-10, 117);
place = (-10, 117);
type = Stem;
},
{
horizontal = 1;
place = (593, 117);
place = (593, 117);
type = Stem;
},
{
place = (30, 123);
place = (30, 123);
type = Stem;
}
);
layerId = m01;
shapes = (
{
closed = 1;
nodes = (
(175,0,l),
(778,590,l),
(821,700,l),
(721,700,l),
(15,0,l)
);
},
{
closed = 1;
nodes = (
(487,-10,o),
(587,35,o),
(655,129,c),
(564,210,l),
(521,139,o),
(453,107,o),
(376,107,cs),
(252,107,o),
(143,201,o),
(143,351,cs),
(143,499,o),
(254,593,o),
(376,593,cs),
(456,593,o),
(521,553,o),
(564,487,c),
(659,564,l),
(594,661,o),
(491,710,o),
(376,710,cs),
(190,710,o),
(20,567,o),
(20,351,cs),
(20,133,o),
(188,-10,o),
(374,-10,cs)
);
},
{
closed = 1;
nodes = (
(833,299,l),
(822,412,l),
(474,412,l),
(414,299,l)
);
},
{
closed = 1;
nodes = (
(863,0,l),
(863,700,l),
(744,700,l),
(744,0,l)
);
}
);
userData = {
com.hugojourdan.ColorFlow = {
"0" = 0;
"1" = 0;
"10" = 0;
"11" = 0;
"2" = 0;
"3" = 0;
"4" = 0;
"5" = 0;
"6" = 0;
"7" = 0;
"8" = 0;
"9" = 0;
};
};
width = 913;
}
);
metricLeft = C;
metricRight = H;
},
{
glyphname = C_A_K_R_A.dlig;
kernLeft = O;
kernRight = A;
lastChange = "2022-12-15 14:55:05 +0000";
layers = (
{
anchors = (
{
name = bottom;
pos = (374,0);
},
{
name = top;
pos = (374,700);
}
);
hints = (
{
horizontal = 1;
place = (-10, 117);
place = (-10, 117);
type = Stem;
},
{
horizontal = 1;
place = (593, 117);
place = (593, 117);
type = Stem;
},
{
place = (30, 123);
place = (30, 123);
type = Stem;
},
{
horizontal = 1;
place = (0, 21);
target = up;
type = BottomGhost;
},
{
horizontal = 1;
place = (186, 113);
place = (186, 113);
type = Stem;
},
{
horizontal = 1;
place = (587, 113);
place = (587, 113);
type = Stem;
},
{
place = (1018, 119);
place = (1018, 119);
type = Stem;
},
{
horizontal = 1;
place = (329, 113);
place = (329, 113);
type = Stem;
},
{
place = (1376, 123);
place = (1376, 123);
type = Stem;
},
{
horizontal = 1;
place = (0, 21);
target = up;
type = BottomGhost;
},
{
horizontal = 1;
place = (186, 113);
place = (186, 113);
type = Stem;
},
{
horizontal = 1;
place = (587, 113);
place = (587, 113);
type = Stem;
},
{
place = (1629, 119);
place = (1629, 119);
type = Stem;
},
{
horizontal = 1;
place = (329, 113);
place = (329, 113);
type = Stem;
},
{
place = (1987, 123);
place = (1987, 123);
type = Stem;
},
{
horizontal = 1;
place = (0, 21);
target = up;
type = BottomGhost;
},
{
horizontal = 1;
place = (186, 113);
place = (186, 113);
type = Stem;
},
{
horizontal = 1;
place = (587, 113);
place = (587, 113);
type = Stem;
},
{
place = (1906, 119);
place = (1906, 119);
type = Stem;
},
{
horizontal = 1;
place = (329, 113);
place = (329, 113);
type = Stem;
},
{
place = (2264, 123);
place = (2264, 123);
type = Stem;
},
{
horizontal = 1;
place = (0, 21);
target = up;
type = BottomGhost;
},
{
horizontal = 1;
place = (186, 113);
place = (186, 113);
type = Stem;
},
{
horizontal = 1;
place = (700, -20);
target = down;
type = TopGhost;
},
{
place = (759, 119);
place = (759, 119);
type = Stem;
}
);
layerId = m01;
shapes = (
{
closed = 1;
nodes = (
(175,0,l),
(778,590,l),
(821,700,l),
(721,700,l),
(15,0,l)
);
},
{
closed = 1;
nodes = (
(487,-10,o),
(587,35,o),
(655,129,c),
(564,210,l),
(521,139,o),
(453,107,o),
(376,107,cs),
(252,107,o),
(143,201,o),
(143,351,cs),
(143,499,o),
(254,593,o),
(376,593,cs),
(456,593,o),
(521,553,o),
(564,487,c),
(659,564,l),
(594,661,o),
(491,710,o),
(376,710,cs),
(190,710,o),
(20,567,o),
(20,351,cs),
(20,133,o),
(188,-10,o),
(374,-10,cs)
);
},
{
closed = 1;
nodes = (
(833,299,l),
(822,412,l),
(474,412,l),
(414,299,l)
);
},
{
closed = 1;
nodes = (
(863,0,l),
(863,700,l),
(744,700,l),
(744,0,l)
);
},
{
closed = 1;
nodes = (
(1297,329,ls),
(1434,329,o),
(1502,422,o),
(1502,515,cs),
(1502,607,o),
(1434,700,o),
(1297,700,cs),
(1146,700,l),
(1146,587,l),
(1298,587,ls),
(1352,587,o),
(1379,551,o),
(1379,515,cs),
(1379,478,o),
(1352,442,o),
(1298,442,cs),
(1021,442,l),
(990,329,l)
);
},
{
closed = 1;
nodes = (
(1817,102,l),
(1780,215,l),
(1561,215,l),
(1527,102,l)
);
},
{
closed = 1;
nodes = (
(1568,0,l),
(1667,355,l),
(1774,0,l),
(1893,0,l),
(1735,470,l),
(1596,470,l),
(1449,0,l)
);
},
{
closed = 1;
nodes = (
(863,0,l),
(863,186,l),
(1213,186,l),
(1194,299,l),
(997,299,l),
(1276,700,l),
(1138,700,l),
(863,299,l),
(863,700,l),
(744,700,l),
(744,0,l)
);
},
{
closed = 1;
nodes = (
(1021,289,l),
(1021,0,l),
(1140,0,l),
(1140,186,l),
(1356,186,l),
(1408,0,l),
(1527,0,l),
(1443,299,l),
(1140,299,l),
(1140,275,l)
);
}
);
userData = {
com.hugojourdan.ColorFlow = {
"0" = 0;
"1" = 0;
"10" = 0;
"11" = 0;
"2" = 0;
"3" = 0;
"4" = 0;
"5" = 0;
"6" = 0;
"7" = 0;
"8" = 0;
"9" = 0;
};
};
width = 1888;
}
);
metricLeft = C;
metricRight = A;
},
{
glyphname = C_C.dlig;
kernLeft = O;
kernRight = C;
lastChange = "2022-12-15 14:55:05 +0000";
layers = (
{
anchors = (
{
name = bottom;
pos = (369,0);
},
{
name = top;
pos = (369,700);
}
);
hints = (
{
horizontal = 1;
place = (-10, 117);
place = (-10, 117);
type = Stem;
},
{
horizontal = 1;
place = (593, 117);
place = (593, 117);
type = Stem;
},
{
place = (30, 123);
place = (30, 123);
type = Stem;
},
{
horizontal = 1;
place = (-10, 117);
place = (-10, 117);
type = Stem;
},
{
horizontal = 1;
place = (593, 117);
place = (593, 117);
type = Stem;
},
{
place = (719, 123);
place = (719, 123);
type = Stem;
}
);
layerId = m01;
shapes = (
{
closed = 1;
nodes = (
(482,-10,o),
(582,35,o),
(650,129,c),
(559,210,l),
(516,139,o),
(448,107,o),
(371,107,cs),
(247,107,o),
(138,201,o),
(138,351,cs),
(138,499,o),
(249,593,o),
(371,593,cs),
(451,593,o),
(516,553,o),
(559,487,c),
(654,564,l),
(589,661,o),
(486,710,o),
(371,710,cs),
(185,710,o),
(15,567,o),
(15,351,cs),
(15,133,o),
(183,-10,o),
(369,-10,cs)
);
},
{
closed = 1;
nodes = (
(435,174,o),
(481,204,o),
(512,252,c),
(450,307,l),
(432,277,o),
(407,258,o),
(375,258,cs),
(333,258,o),
(292,291,o),
(292,350,cs),
(292,409,o),
(331,442,o),
(375,442,cs),
(406,442,o),
(431,427,o),
(448,396,c),
(511,447,l),
(479,498,o),
(435,526,o),
(375,526,cs),
(283,526,o),
(205,457,o),
(205,350,cs),
(205,244,o),
(283,174,o),
(375,174,cs)
);
}
);
userData = {
com.hugojourdan.ColorFlow = {
"0" = 0;
"1" = 0;
"10" = 0;
"11" = 0;
"2" = 0;
"3" = 0;
"4" = 0;
"5" = 0;
"6" = 0;
"7" = 0;
"8" = 0;
"9" = 0;
};
};
width = 659;
}
);
metricLeft = C;
metricRight = C;
},
{
glyphname = C_E.dlig;
kernLeft = O;
kernRight = E;
lastChange = "2022-12-19 11:22:04 +0000";
layers = (
{
anchors = (
{
name = bottom;
pos = (384,0);
},
{
name = top;
pos = (384,700);
}
);
hints = (
{
horizontal = 1;
place = (-10, 117);
place = (-10, 117);
type = Stem;
},
{
horizontal = 1;
place = (593, 117);
place = (593, 117);
type = Stem;
},
{
place = (30, 123);
place = (30, 123);
type = Stem;
}
);
layerId = m01;
shapes = (
{
closed = 1;
nodes = (
(386,113,l),
(262,113,o),
(153,201,o),
(153,351,cs),
(153,499,o),
(264,593,o),
(386,593,cs),
(466,593,o),
(531,553,o),
(574,487,c),
(669,564,l),
(604,661,o),
(501,710,o),
(386,710,cs),
(200,710,o),
(30,567,o),
(30,351,cs),
(30,133,o),
(198,0,o),
(384,0,c)
);
},
{
closed = 1;
nodes = (
(757,0,l),
(757,113,l),
(503,113,l),
(503,184,l),
(757,184,l),
(757,297,l),
(503,297,l),
(503,357,l),
(757,357,l),
(757,470,l),
(384,470,l),
(384,0,l)
);
}
);
userData = {
com.hugojourdan.ColorFlow = {
"0" = 0;
"1" = 0;
"10" = 0;
"11" = 0;
"2" = 0;
"3" = 0;
"4" = 0;
"5" = 0;
"6" = 0;
"7" = 0;
"8" = 0;
"9" = 0;
};
};
width = 777;
}
);
metricRight = E;
},
{
glyphname = C_H.dlig;
kernLeft = O;
kernRight = H;
lastChange = "2022-12-15 14:55:05 +0000";
layers = (
{
anchors = (
{
name = bottom;
pos = (369,0);
},
{
name = center;
pos = (1025,350);
},
{
name = top;
pos = (369,700);
},
{
name = topleft;
pos = (694,700);
}
);
hints = (
{
horizontal = 1;
place = (-10, 117);
place = (-10, 117);
type = Stem;
},
{
horizontal = 1;
place = (593, 117);
place = (593, 117);
type = Stem;
},
{
place = (30, 123);
place = (30, 123);
type = Stem;
},
{
horizontal = 1;
place = (0, 21);
target = up;
type = BottomGhost;
},
{
horizontal = 1;
place = (299, 113);
place = (299, 113);
type = Stem;
},
{
horizontal = 1;
place = (700, -20);
target = down;
type = TopGhost;
},
{
place = (759, 119);
place = (759, 119);
type = Stem;
},
{
place = (1201, 119);
place = (1201, 119);
type = Stem;
}
);
layerId = m01;
shapes = (
{
closed = 1;
nodes = (
(482,-10,o),
(582,35,o),
(650,129,c),
(559,210,l),
(516,139,o),
(448,107,o),
(371,107,cs),
(247,107,o),
(138,201,o),
(138,351,cs),
(138,499,o),
(249,593,o),
(371,593,cs),
(451,593,o),
(516,553,o),
(559,487,c),
(654,564,l),
(589,661,o),
(486,710,o),
(371,710,cs),
(185,710,o),
(15,567,o),
(15,351,cs),
(15,133,o),
(183,-10,o),
(369,-10,cs)
);
},
{
closed = 1;
nodes = (
(427,0,l),
(427,299,l),
(750,299,l),
(750,0,l),
(869,0,l),
(869,700,l),
(750,700,l),
(750,412,l),
(427,412,l),
(427,700,l),
(308,700,l),
(308,0,l)
);
}
);
userData = {
com.hugojourdan.ColorFlow = {
"0" = 0;
"1" = 0;
"10" = 0;
"11" = 0;
"2" = 0;
"3" = 0;
"4" = 0;
"5" = 0;
"6" = 0;
"7" = 0;
"8" = 0;
"9" = 0;
};
};
width = 919;
}
);
metricLeft = C;
metricRight = H;
},
{
glyphname = C_L.dlig;
kernLeft = O;
kernRight = L;
lastChange = "2022-12-19 11:22:04 +0000";
layers = (
{
anchors = (
{
name = bottom;
pos = (369,0);
},
{
name = top;
pos = (369,700);
}
);
hints = (
{
horizontal = 1;
place = (-10, 117);
place = (-10, 117);
type = Stem;
},
{
horizontal = 1;
place = (593, 117);
place = (593, 117);
type = Stem;
},
{
place = (30, 123);
place = (30, 123);
type = Stem;
}
);
layerId = m01;
shapes = (
{
closed = 1;
nodes = (
(371,113,l),
(247,113,o),
(138,201,o),
(138,351,cs),
(138,499,o),
(249,593,o),
(371,593,cs),
(451,593,o),
(516,553,o),
(559,487,c),
(654,564,l),
(589,661,o),
(486,710,o),
(371,710,cs),
(185,710,o),
(15,567,o),
(15,351,cs),
(15,133,o),
(183,0,o),
(369,0,c)
);
},
{
closed = 1;
nodes = (
(705,0,l),
(705,113,l),
(488,113,l),
(488,470,l),
(369,470,l),
(369,0,l)
);
}
);
userData = {
com.hugojourdan.ColorFlow = {
"0" = 0;
"1" = 0;
"10" = 0;
"11" = 0;
"2" = 0;
"3" = 0;
"4" = 0;
"5" = 0;
"6" = 0;
"7" = 0;
"8" = 0;
"9" = 0;
};
};
width = 715;
}
);
metricLeft = C;
metricRight = L;
},
{
glyphname = C_O.dlig;
kernLeft = O;
kernRight = C;
lastChange = "2022-12-15 14:55:05 +0000";
layers = (
{
layerId = m01;
shapes = (
{
closed = 1;
nodes = (
(482,-10,o),
(582,35,o),
(650,129,c),
(559,210,l),
(516,139,o),
(448,107,o),
(371,107,cs),
(247,107,o),
(138,201,o),
(138,351,cs),
(138,499,o),
(249,593,o),
(371,593,cs),
(451,593,o),
(516,553,o),
(559,487,c),
(654,564,l),
(589,661,o),
(486,710,o),
(371,710,cs),
(185,710,o),
(15,567,o),
(15,351,cs),
(15,133,o),
(183,-10,o),
(369,-10,cs)
);
},
{
closed = 1;
nodes = (
(461,174,o),
(537,246,o),
(537,350,cs),
(537,453,o),
(461,526,o),
(371,526,cs),
(281,526,o),
(205,453,o),
(205,350,cs),
(205,246,o),
(281,174,o),
(371,174,cs)
);
},
{
closed = 1;
nodes = (
(327,258,o),
(292,292,o),
(292,350,cs),
(292,408,o),
(327,442,o),
(371,442,cs),
(414,442,o),
(450,408,o),
(450,350,cs),
(450,292,o),
(414,258,o),
(371,258,cs)
);
}
);
userData = {
com.hugojourdan.ColorFlow = {
"0" = 0;
"1" = 0;
"10" = 0;
"11" = 0;
"2" = 0;
"3" = 0;
"4" = 0;
"5" = 0;
"6" = 0;
"7" = 0;
"8" = 0;
"9" = 0;
};
};
width = 659;
}
);
metricLeft = C;
metricRight = C;
},
{
glyphname = C_a.dlig;
kernLeft = O;
kernRight = H;
lastChange = "2022-12-15 14:55:05 +0000";
layers = (
{
layerId = m01;
shapes = (
{
closed = 1;
nodes = (
(175,0,l),
(748,590,l),
(791,700,l),
(691,700,l),
(15,0,l)
);
},
{
closed = 1;
nodes = (
(487,-10,o),
(587,35,o),
(655,129,c),
(564,210,l),
(521,139,o),
(453,107,o),
(376,107,cs),
(252,107,o),
(143,201,o),
(143,351,cs),
(143,499,o),
(254,593,o),
(376,593,cs),
(456,593,o),
(521,553,o),
(564,487,c),
(659,564,l),
(594,661,o),
(491,710,o),
(376,710,cs),
(190,710,o),
(20,567,o),
(20,351,cs),
(20,133,o),
(188,-10,o),
(374,-10,cs)
);
},
{
closed = 1;
nodes = (
(803,244,l),
(792,357,l),
(474,357,l),
(344,244,l)
);
},
{
closed = 1;
nodes = (
(833,0,l),
(833,700,l),
(714,700,l),
(714,0,l)
);
}
);
userData = {
com.hugojourdan.ColorFlow = {
"0" = 0;
"1" = 0;
"10" = 0;
"11" = 0;
"2" = 0;
"3" = 0;
"4" = 0;
"5" = 0;
"6" = 0;
"7" = 0;
"8" = 0;
"9" = 0;
};
};
width = 883;
}
);
metricLeft = C;
metricRight = H;
},
{
glyphname = C_e.dlig;
kernLeft = O;
kernRight = E;
lastChange = "2022-12-20 11:59:41 +0000";
layers = (
{
layerId = m01;
shapes = (
{
closed = 1;
nodes = (
(371,113,l),
(247,113,o),
(138,201,o),
(138,351,cs),
(138,499,o),
(249,593,o),
(371,593,cs),
(451,593,o),
(516,553,o),
(559,487,c),
(654,564,l),
(589,661,o),
(486,710,o),
(371,710,cs),
(185,710,o),
(15,567,o),
(15,351,cs),
(15,133,o),
(183,0,o),
(369,0,c)
);
},
{
closed = 1;
nodes = (
(742,0,l),
(742,113,l),
(488,113,l),
(488,184,l),
(671,184,l),
(671,297,l),
(488,297,l),
(488,357,l),
(742,357,l),
(742,470,l),
(369,470,l),
(369,0,l)
);
}
);
userData = {
com.hugojourdan.ColorFlow = {
"0" = 0;
"1" = 0;
"10" = 0;
"11" = 0;
"2" = 0;
"3" = 0;
"4" = 0;
"5" = 0;
"6" = 0;
"7" = 0;
"8" = 0;
"9" = 0;
};
};
width = 762;
}
);
metricLeft = C;
metricRight = e;
},
{
glyphname = C_h.dlig;
kernLeft = O;
kernRight = H;
lastChange = "2022-12-15 14:55:05 +0000";
layers = (
{
anchors = (
{
name = bottom;
pos = (369,0);
},
{
name = center;
pos = (1013,400);
},
{
name = top;
pos = (369,700);
}
);
hints = (
{
horizontal = 1;
place = (-10, 117);
place = (-10, 117);
type = Stem;
},
{
horizontal = 1;
place = (593, 117);
place = (593, 117);
type = Stem;
},
{
place = (30, 123);
place = (30, 123);
type = Stem;
},
{
horizontal = 1;
place = (0, 21);
target = up;
type = BottomGhost;
},
{
horizontal = 1;
place = (299, 113);
place = (299, 113);
type = Stem;
},
{
horizontal = 1;
place = (700, -20);
target = down;
type = TopGhost;
},
{
place = (719, 604);
place = (719, 604);
type = Stem;
}
);
layerId = m01;
shapes = (
{
closed = 1;
nodes = (
(482,-10,o),
(582,35,o),
(650,129,c),
(559,210,l),
(516,139,o),
(448,107,o),
(371,107,cs),
(247,107,o),
(138,201,o),
(138,351,cs),
(138,499,o),
(249,593,o),
(371,593,cs),
(451,593,o),
(516,553,o),
(559,487,c),
(654,564,l),
(589,661,o),
(486,710,o),
(371,710,cs),
(185,710,o),
(15,567,o),
(15,351,cs),
(15,133,o),
(183,-10,o),
(369,-10,cs)
);
},
{
closed = 1;
nodes = (
(496,653,l),
(386,700,l),
(234,36,l),
(345,0,l)
);
},
{
closed = 1;
nodes = (
(837,0,l),
(837,700,l),
(718,700,l),
(718,412,l),
(226,412,l),
(226,299,l),
(718,299,l),
(718,0,l)
);
}
);
userData = {
com.hugojourdan.ColorFlow = {
"0" = 0;
"1" = 0;
"10" = 0;
"11" = 0;
"2" = 0;
"3" = 0;
"4" = 0;
"5" = 0;
"6" = 0;
"7" = 0;
"8" = 0;
"9" = 0;
};
};
width = 887;
}
);
metricLeft = C;
metricRight = H;
},
{
glyphname = C_l.dlig;
kernLeft = O;
kernRight = C;
lastChange = "2022-12-15 14:55:05 +0000";
layers = (
{
layerId = m01;
shapes = (
{
closed = 1;
nodes = (
(371,113,l),
(247,113,o),
(138,201,o),
(138,351,cs),
(138,499,o),
(249,593,o),
(371,593,cs),
(451,593,o),
(516,553,o),
(559,487,c),
(654,564,l),
(589,661,o),
(486,710,o),
(371,710,cs),
(185,710,o),
(15,567,o),
(15,351,cs),
(15,133,o),
(183,0,o),
(369,0,c)
);
},
{
closed = 1;
nodes = (
(579,0,l),
(579,113,l),
(488,113,l),
(488,470,l),
(369,470,l),
(369,0,l)
);
}
);
userData = {
com.hugojourdan.ColorFlow = {
"0" = 0;
"1" = 0;
"10" = 0;
"11" = 0;
"2" = 0;
"3" = 0;
"4" = 0;
"5" = 0;
"6" = 0;
"7" = 0;
"8" = 0;
"9" = 0;
};
};
width = 659;
}
);
metricLeft = C;
metricRight = C;
},
{
glyphname = D_C.dlig;
kernLeft = H;
kernRight = C;
lastChange = "2022-12-15 14:55:05 +0000";
layers = (
{
anchors = (
{
name = bottom;
pos = (283,0);
},
{
name = center;
pos = (302,350);
},
{
name = top;
pos = (290,700);
}
);
hints = (
{
horizontal = 1;
place = (0, 113);
place = (0, 113);
type = Stem;
},
{
horizontal = 1;
place = (587, 113);
place = (587, 113);
type = Stem;
},
{
place = (70, 119);
place = (70, 119);
type = Stem;
},
{
place = (490, 123);
place = (490, 123);
type = Stem;
},
{
horizontal = 1;
place = (-10, 117);
place = (-10, 117);
type = Stem;
},
{
horizontal = 1;
place = (593, 117);
place = (593, 117);
type = Stem;
},
{
place = (673, 123);
place = (673, 123);
type = Stem;
}
);
layerId = m01;
shapes = (
{
closed = 1;
nodes = (
(937,-11,o),
(1037,34,o),
(1105,128,c),
(1014,209,l),
(971,138,o),
(903,106,o),
(826,106,cs),
(702,106,o),
(593,200,o),
(593,350,cs),
(593,498,o),
(704,592,o),
(826,592,cs),
(906,592,o),
(971,552,o),
(1014,486,c),
(1109,563,l),
(1044,660,o),
(941,709,o),
(826,709,cs),
(640,709,o),
(470,566,o),
(470,350,cs),
(470,132,o),
(638,-11,o),
(824,-11,cs)
);
},
{
closed = 1;
nodes = (
(266,0,ls),
(484,0,o),
(593,175,o),
(593,350,cs),
(593,525,o),
(484,700,o),
(266,700,cs),
(50,700,l),
(50,0,l)
);
},
{
closed = 1;
nodes = (
(169,587,l),
(267,587,ls),
(403,587,o),
(470,469,o),
(470,350,cs),
(470,232,o),
(403,113,o),
(267,113,cs),
(169,113,l)
);
}
);
userData = {
com.hugojourdan.ColorFlow = {
"0" = 0;
"1" = 0;
"10" = 0;
"11" = 0;
"2" = 0;
"3" = 0;
"4" = 0;
"5" = 0;
"6" = 0;
"7" = 0;
"8" = 0;
"9" = 0;
};
};
width = 1114;
}
);
metricLeft = H;
metricRight = C;
},
{
glyphname = D_O.dlig;
kernLeft = H;
kernRight = O;
lastChange = "2022-12-15 14:55:05 +0000";
layers = (
{
anchors = (
{
name = bottom;
pos = (283,0);
},
{
name = center;
pos = (302,350);
},
{
name = ogonek;
pos = (1318,10);
},
{
name = top;
pos = (290,700);
},
{
name = topleft;
pos = (643,700);
},
{
name = topright;
pos = (1238,700);
}
);
hints = (
{
horizontal = 1;
place = (0, 113);
place = (0, 113);
type = Stem;
},
{
horizontal = 1;
place = (587, 113);
place = (587, 113);
type = Stem;
},
{
place = (70, 119);
place = (70, 119);
type = Stem;
},
{
place = (490, 123);
place = (490, 123);
type = Stem;
},
{
horizontal = 1;
place = (-10, 117);
place = (-10, 117);
type = Stem;
},
{
horizontal = 1;
place = (593, 117);
place = (593, 117);
type = Stem;
},
{
place = (673, 123);
place = (673, 123);
type = Stem;
},
{
place = (1262, 123);
place = (1262, 123);
type = Stem;
}
);
layerId = m01;
shapes = (
{
closed = 1;
nodes = (
(1013,-10,o),
(1182,132,o),
(1182,350,cs),
(1182,566,o),
(1013,710,o),
(826,710,cs),
(638,710,o),
(470,566,o),
(470,350,cs),
(470,132,o),
(638,-10,o),
(826,-10,cs)
);
},
{
closed = 1;
nodes = (
(266,0,ls),
(484,0,o),
(593,175,o),
(593,350,cs),
(593,525,o),
(484,700,o),
(266,700,cs),
(50,700,l),
(50,0,l)
);
},
{
closed = 1;
nodes = (
(169,587,l),
(267,587,ls),
(403,587,o),
(470,469,o),
(470,350,cs),
(470,232,o),
(403,113,o),
(267,113,cs),
(169,113,l)
);
},
{
closed = 1;
nodes = (
(702,107,o),
(593,200,o),
(593,350,cs),
(593,498,o),
(702,593,o),
(826,593,cs),
(949,593,o),
(1059,498,o),
(1059,350,cs),
(1059,200,o),
(949,107,o),
(826,107,cs)
);
}
);
userData = {
com.hugojourdan.ColorFlow = {
"0" = 0;
"1" = 0;
"10" = 0;
"11" = 0;
"2" = 0;
"3" = 0;
"4" = 0;
"5" = 0;
"6" = 0;
"7" = 0;
"8" = 0;
"9" = 0;
};
};
width = 1197;
}
);
metricLeft = H;
metricRight = O;
},
{
glyphname = D_U.dlig;
kernLeft = H;
kernRight = U;
lastChange = "2022-12-15 14:55:05 +0000";
layers = (
{
anchors = (
{
name = bottom;
pos = (283,0);
},
{
name = center;
pos = (302,350);
},
{
name = top;
pos = (290,700);
}
);
background = {
shapes = (
{
closed = 1;
nodes = (
(553,-10,o),
(722,132,o),
(722,350,cs),
(722,566,o),
(553,710,o),
(366,710,cs),
(178,710,o),
(10,566,o),
(10,350,cs),
(10,132,o),
(178,-10,o),
(366,-10,cs)
);
},
{
closed = 1;
nodes = (
(242,107,o),
(133,200,o),
(133,350,cs),
(133,498,o),
(242,593,o),
(366,593,cs),
(489,593,o),
(599,498,o),
(599,350,cs),
(599,200,o),
(489,107,o),
(366,107,cs)
);
},
{
closed = 1;
nodes = (
(353,640,l),
(353,410,ls),
(353,254,o),
(476,134,o),
(636,134,cs),
(795,134,o),
(919,254,o),
(919,410,cs),
(919,700,l),
(800,700,l),
(800,423,ls),
(800,320,o),
(731,251,o),
(636,251,cs),
(540,251,o),
(472,320,o),
(472,423,cs),
(472,640,l)
);
}
);
};
hints = (
{
horizontal = 1;
place = (0, 113);
place = (0, 113);
type = Stem;
},
{
horizontal = 1;
place = (587, 113);
place = (587, 113);
type = Stem;
},
{
place = (70, 119);
place = (70, 119);
type = Stem;
},
{
place = (490, 123);
place = (490, 123);
type = Stem;
}
);
layerId = m01;
shapes = (
{
closed = 1;
nodes = (
(266,0,ls),
(484,0,o),
(593,175,o),
(593,350,cs),
(593,525,o),
(484,700,o),
(266,700,cs),
(50,700,l),
(50,0,l)
);
},
{
closed = 1;
nodes = (
(169,587,l),
(267,587,ls),
(403,587,o),
(470,469,o),
(470,350,cs),
(470,232,o),
(403,113,o),
(267,113,cs),
(169,113,l)
);
},
{
closed = 1;
nodes = (
(675,134,o),
(799,254,o),
(799,410,cs),
(799,700,l),
(680,700,l),
(680,423,ls),
(680,320,o),
(611,251,o),
(516,251,cs),
(420,251,o),
(352,320,o),
(352,423,cs),
(352,640,l),
(233,640,l),
(233,410,ls),
(233,254,o),
(356,134,o),
(516,134,cs)
);
}
);
userData = {
com.hugojourdan.ColorFlow = {
"0" = 0;
"1" = 0;
"10" = 0;
"11" = 0;
"2" = 0;
"3" = 0;
"4" = 0;
"5" = 0;
"6" = 0;
"7" = 0;
"8" = 0;
"9" = 0;
};
};
width = 844;
}
);
metricLeft = H;
metricRight = U;
},
{
glyphname = D_c.dlig;
kernLeft = H;
kernRight = C;
lastChange = "2022-12-15 14:55:05 +0000";
layers = (
{
layerId = m01;
shapes = (
{
closed = 1;
nodes = (
(708,-11,o),
(808,34,o),
(876,128,c),
(785,209,l),
(742,138,o),
(674,106,o),
(597,106,cs),
(473,106,o),
(364,200,o),
(364,350,cs),
(364,498,o),
(475,592,o),
(597,592,cs),
(677,592,o),
(742,552,o),
(785,486,c),
(880,563,l),
(815,660,o),
(712,709,o),
(597,709,cs),
(411,709,o),
(241,566,o),
(241,350,cs),
(241,132,o),
(409,-11,o),
(595,-11,cs)
);
},
{
closed = 1;
nodes = (
(266,0,ls),
(484,0,o),
(593,175,o),
(593,350,cs),
(593,525,o),
(484,700,o),
(266,700,cs),
(50,700,l),
(50,0,l)
);
},
{
closed = 1;
nodes = (
(169,587,l),
(267,587,ls),
(403,587,o),
(470,469,o),
(470,350,cs),
(470,232,o),
(403,113,o),
(267,113,cs),
(169,113,l)
);
}
);
userData = {
com.hugojourdan.ColorFlow = {
"0" = 0;
"1" = 0;
"10" = 0;
"11" = 0;
"2" = 0;
"3" = 0;
"4" = 0;
"5" = 0;
"6" = 0;
"7" = 0;
"8" = 0;
"9" = 0;
};
};
width = 885;
}
);
metricLeft = H;
metricRight = C;
},
{
glyphname = D_o.dlig;
kernLeft = H;
kernRight = O;
lastChange = "2022-12-15 14:55:05 +0000";
layers = (
{
layerId = m01;
shapes = (
{
closed = 1;
nodes = (
(773,-10,o),
(942,132,o),
(942,350,cs),
(942,566,o),
(773,710,o),
(586,710,cs),
(398,710,o),
(230,566,o),
(230,350,cs),
(230,132,o),
(398,-10,o),
(586,-10,cs)
);
},
{
closed = 1;
nodes = (
(266,0,ls),
(484,0,o),
(593,175,o),
(593,350,cs),
(593,525,o),
(484,700,o),
(266,700,cs),
(50,700,l),
(50,0,l)
);
},
{
closed = 1;
nodes = (
(169,587,l),
(267,587,ls),
(403,587,o),
(470,469,o),
(470,350,cs),
(470,232,o),
(403,113,o),
(267,113,cs),
(169,113,l)
);
},
{
closed = 1;
nodes = (
(462,107,o),
(353,200,o),
(353,350,cs),
(353,498,o),
(462,593,o),
(586,593,cs),
(709,593,o),
(819,498,o),
(819,350,cs),
(819,200,o),
(709,107,o),
(586,107,cs)
);
}
);
userData = {
com.hugojourdan.ColorFlow = {
"0" = 0;
"1" = 0;
"10" = 0;
"11" = 0;
"2" = 0;
"3" = 0;
"4" = 0;
"5" = 0;
"6" = 0;
"7" = 0;
"8" = 0;
"9" = 0;
};
};
width = 957;
}
);
metricLeft = H;
metricRight = O;
},
{
glyphname = D_u.dlig;
kernLeft = H;
kernRight = H;
lastChange = "2022-12-15 14:56:07 +0000";
layers = (
{
background = {
shapes = (
{
closed = 1;
nodes = (
(553,-10,o),
(722,132,o),
(722,350,cs),
(722,566,o),
(553,710,o),
(366,710,cs),
(178,710,o),
(10,566,o),
(10,350,cs),
(10,132,o),
(178,-10,o),
(366,-10,cs)
);
},
{
closed = 1;
nodes = (
(242,107,o),
(133,200,o),
(133,350,cs),
(133,498,o),
(242,593,o),
(366,593,cs),
(489,593,o),
(599,498,o),
(599,350,cs),
(599,200,o),
(489,107,o),
(366,107,cs)
);
},
{
closed = 1;
nodes = (
(919,700,l),
(800,700,l),
(800,417,ls),
(800,317,o),
(723,251,o),
(636,251,cs),
(547,251,o),
(472,313,o),
(472,420,cs),
(472,650,l),
(353,650,l),
(353,407,ls),
(353,240,o),
(491,134,o),
(611,134,cs),
(691,134,o),
(770,168,o),
(800,218,c),
(800,144,l),
(919,144,l)
);
}
);
};
layerId = m01;
shapes = (
{
closed = 1;
nodes = (
(266,0,ls),
(484,0,o),
(593,175,o),
(593,350,cs),
(593,525,o),
(484,700,o),
(266,700,cs),
(50,700,l),
(50,0,l)
);
},
{
closed = 1;
nodes = (
(169,587,l),
(267,587,ls),
(403,587,o),
(470,469,o),
(470,350,cs),
(470,232,o),
(403,113,o),
(267,113,cs),
(169,113,l)
);
},
{
closed = 1;
nodes = (
(571,134,o),
(650,168,o),
(680,218,c),
(680,144,l),
(799,144,l),
(799,700,l),
(680,700,l),
(680,417,ls),
(680,317,o),
(603,251,o),
(516,251,cs),
(427,251,o),
(352,313,o),
(352,420,cs),
(352,650,l),
(233,650,l),
(233,407,ls),
(233,240,o),
(371,134,o),
(491,134,cs)
);
}
);
userData = {
com.hugojourdan.ColorFlow = {
"0" = 0;
"1" = 0;
"10" = 0;
"11" = 0;
"2" = 0;
"3" = 0;
"4" = 0;
"5" = 0;
"6" = 0;
"7" = 0;
"8" = 0;
"9" = 0;
};
};
width = 849;
}
);
metricLeft = H;
metricRight = u;
},
{
glyphname = E_A.dlig;
kernLeft = H;
kernRight = H;
lastChange = "2022-12-15 14:55:05 +0000";
layers = (
{
anchors = (
{
name = bottom;
pos = (271,0);
},
{
name = ogonek;
pos = (456,10);
},
{
name = top;
pos = (271,700);
},
{
name = topleft;
pos = (0,700);
}
);
hints = (
{
horizontal = 1;
place = (0, 113);
place = (0, 113);
type = Stem;
},
{
horizontal = 1;
place = (299, 113);
place = (299, 113);
type = Stem;
},
{
horizontal = 1;
place = (587, 113);
place = (587, 113);
type = Stem;
},
{
place = (70, 119);
place = (70, 119);
type = Stem;
},
{
horizontal = 1;
place = (0, 21);
target = up;
type = BottomGhost;
},
{
horizontal = 1;
place = (166, 113);
place = (166, 113);
type = Stem;
},
{
horizontal = 1;
place = (700, -20);
target = down;
type = TopGhost;
},
{
place = (553, 608);
place = (553, 608);
type = Stem;
},
{
horizontal = 1;
place = (575, 125);
place = (575, 125);
type = Stem;
}
);
layerId = m01;
shapes = (
{
closed = 1;
nodes = (
(493,0,l),
(846,570,l),
(892,700,l),
(792,700,l),
(351,0,l)
);
},
{
closed = 1;
nodes = (
(493,0,l),
(493,113,l),
(169,113,l),
(169,299,l),
(493,299,l),
(493,412,l),
(169,412,l),
(169,587,l),
(493,587,l),
(493,700,l),
(50,700,l),
(50,0,l)
);
},
{
closed = 1;
nodes = (
(904,166,l),
(893,279,l),
(625,279,l),
(565,166,l)
);
},
{
closed = 1;
nodes = (
(964,0,l),
(964,700,l),
(845,700,l),
(845,0,l)
);
}
);
userData = {
com.hugojourdan.ColorFlow = {
"0" = 0;
"1" = 0;
"10" = 0;
"11" = 0;
"2" = 0;
"3" = 0;
"4" = 0;
"5" = 0;
"6" = 0;
"7" = 0;
"8" = 0;
"9" = 0;
};
};
width = 1014;
}
);
metricLeft = H;
metricRight = H;
},
{
glyphname = E_E.dlig;
kernLeft = H;
kernRight = E;
lastChange = "2022-12-19 11:22:04 +0000";
layers = (
{
anchors = (
{
name = bottom;
pos = (271,0);
},
{
name = ogonek;
pos = (456,10);
},
{
name = top;
pos = (271,700);
},
{
name = topleft;
pos = (0,700);
}
);
hints = (
{
horizontal = 1;
place = (0, 113);
place = (0, 113);
type = Stem;
},
{
horizontal = 1;
place = (299, 113);
place = (299, 113);
type = Stem;
},
{
horizontal = 1;
place = (587, 113);
place = (587, 113);
type = Stem;
},
{
place = (70, 119);
place = (70, 119);
type = Stem;
},
{
horizontal = 1;
place = (0, 113);
place = (0, 113);
type = Stem;
},
{
horizontal = 1;
place = (299, 113);
place = (299, 113);
type = Stem;
},
{
horizontal = 1;
place = (587, 113);
place = (587, 113);
type = Stem;
},
{
place = (623, 119);
place = (623, 119);
type = Stem;
}
);
layerId = m01;
shapes = (
{
closed = 1;
nodes = (
(816,0,l),
(816,113,l),
(492,113,l),
(492,299,l),
(816,299,l),
(816,412,l),
(492,412,l),
(492,587,l),
(816,587,l),
(816,700,l),
(373,700,l),
(373,0,l)
);
},
{
closed = 1;
nodes = (
(493,0,l),
(493,113,l),
(169,113,l),
(169,299,l),
(493,299,l),
(493,412,l),
(169,412,l),
(169,587,l),
(493,587,l),
(493,700,l),
(50,700,l),
(50,0,l)
);
}
);
userData = {
com.hugojourdan.ColorFlow = {
"0" = 0;
"1" = 0;
"10" = 0;
"11" = 0;
"2" = 0;
"3" = 0;
"4" = 0;
"5" = 0;
"6" = 0;
"7" = 0;
"8" = 0;
"9" = 0;
};
};
width = 836;
}
);
metricLeft = H;
metricRight = E;
},
{
glyphname = E_N.dlig;
kernLeft = H;
kernRight = N;
lastChange = "2022-12-15 14:55:05 +0000";
layers = (
{
anchors = (
{
name = bottom;
pos = (271,0);
},
{
name = ogonek;
pos = (456,10);
},
{
name = top;
pos = (271,700);
},
{
name = topleft;
pos = (0,700);
}
);
hints = (
{
horizontal = 1;
place = (0, 113);
place = (0, 113);
type = Stem;
},
{
horizontal = 1;
place = (299, 113);
place = (299, 113);
type = Stem;
},
{
horizontal = 1;
place = (587, 113);
place = (587, 113);
type = Stem;
},
{
place = (70, 119);
place = (70, 119);
type = Stem;
},
{
horizontal = 1;
place = (0, 21);
target = up;
type = BottomGhost;
},
{
horizontal = 1;
place = (700, -20);
target = down;
type = TopGhost;
},
{
place = (623, 119);
place = (623, 119);
type = Stem;
},
{
place = (1079, 119);
place = (1079, 119);
type = Stem;
}
);
layerId = m01;
shapes = (
{
closed = 1;
nodes = (
(582,0,l),
(582,529,l),
(889,0,l),
(1038,0,l),
(1038,700,l),
(919,700,l),
(919,171,l),
(612,700,l),
(463,700,l),
(463,0,l)
);
},
{
closed = 1;
nodes = (
(493,0,l),
(493,113,l),
(169,113,l),
(169,299,l),
(493,299,l),
(493,412,l),
(169,412,l),
(169,587,l),
(493,587,l),
(493,700,l),
(50,700,l),
(50,0,l)
);
}
);
userData = {
com.hugojourdan.ColorFlow = {
"0" = 0;
"1" = 0;
"10" = 0;
"11" = 0;
"2" = 0;
"3" = 0;
"4" = 0;
"5" = 0;
"6" = 0;
"7" = 0;
"8" = 0;
"9" = 0;
};
};
width = 1088;
}
);
metricLeft = H;
metricRight = H;
},
{
glyphname = E_N_D.dlig;
kernLeft = H;
kernRight = D;
lastChange = "2022-12-15 14:55:05 +0000";
layers = (
{
anchors = (
{
name = bottom;
pos = (1047,0);
},
{
name = center;
pos = (1066,350);
},
{
name = top;
pos = (1054,700);
}
);
hints = (
{
horizontal = 1;
place = (0, 113);
place = (0, 113);
type = Stem;
},
{
horizontal = 1;
place = (587, 113);
place = (587, 113);
type = Stem;
},
{
place = (834, 119);
place = (834, 119);
type = Stem;
},
{
place = (1254, 123);
place = (1254, 123);
type = Stem;
}
);
layerId = m01;
shapes = (
{
closed = 1;
nodes = (
(582,0,l),
(582,529,l),
(889,0,l),
(1038,0,l),
(1038,700,l),
(919,700,l),
(919,171,l),
(612,700,l),
(463,700,l),
(463,0,l)
);
},
{
closed = 1;
nodes = (
(493,0,l),
(493,113,l),
(169,113,l),
(169,299,l),
(493,299,l),
(493,412,l),
(169,412,l),
(169,587,l),
(493,587,l),
(493,700,l),
(50,700,l),
(50,0,l)
);
},
{
closed = 1;
nodes = (
(1135,0,ls),
(1353,0,o),
(1462,175,o),
(1462,350,cs),
(1462,525,o),
(1353,700,o),
(1135,700,cs),
(919,700,l),
(919,0,l)
);
},
{
closed = 1;
nodes = (
(1038,587,l),
(1136,587,ls),
(1272,587,o),
(1339,469,o),
(1339,350,cs),
(1339,232,o),
(1272,113,o),
(1136,113,cs),
(1038,113,l)
);
}
);
userData = {
com.hugojourdan.ColorFlow = {
"0" = 0;
"1" = 0;
"10" = 0;
"11" = 0;
"2" = 0;
"3" = 0;
"4" = 0;
"5" = 0;
"6" = 0;
"7" = 0;
"8" = 0;
"9" = 0;
};
};
width = 1477;
}
);
metricLeft = H;
metricRight = O;
},
{
glyphname = E_N_d.dlig;
kernLeft = H;
kernRight = D;
lastChange = "2022-12-15 14:55:05 +0000";
layers = (
{
anchors = (
{
name = bottom;
pos = (1147,0);
},
{
name = center;
pos = (1159,350);
},
{
name = top;
pos = (1159,800);
},
{
name = topright;
pos = (1456,800);
}
);
hints = (
{
horizontal = 1;
place = (0, 113);
place = (0, 113);
type = Stem;
},
{
horizontal = 1;
place = (587, 113);
place = (587, 113);
type = Stem;
},
{
place = (1323, 123);
place = (1323, 123);
type = Stem;
}
);
layerId = m01;
shapes = (
{
closed = 1;
nodes = (
(582,0,l),
(582,529,l),
(889,0,l),
(1038,0,l),
(919,171,l),
(612,700,l),
(463,700,l),
(463,0,l)
);
},
{
closed = 1;
nodes = (
(493,0,l),
(493,113,l),
(169,113,l),
(169,299,l),
(493,299,l),
(493,412,l),
(169,412,l),
(169,587,l),
(493,587,l),
(493,700,l),
(50,700,l),
(50,0,l)
);
},
{
closed = 1;
nodes = (
(1117,0,ls),
(1331,0,o),
(1444,182,o),
(1444,360,cs),
(1444,532,o),
(1339,700,o),
(1117,700,cs),
(894,700,l),
(894,587,l),
(969,587,l),
(894,0,l)
);
},
{
closed = 1;
nodes = (
(1088,587,l),
(1118,587,ls),
(1257,587,o),
(1321,476,o),
(1321,361,cs),
(1321,239,o),
(1249,113,o),
(1118,113,cs),
(1028,113,l)
);
}
);
userData = {
com.hugojourdan.ColorFlow = {
"0" = 0;
"1" = 0;
"10" = 0;
"11" = 0;
"2" = 0;
"3" = 0;
"4" = 0;
"5" = 0;
"6" = 0;
"7" = 0;
"8" = 0;
"9" = 0;
};
};
width = 1459;
}
);
metricLeft = H;
metricRight = d;
},
{
glyphname = E_S.dlig;
kernLeft = H;
kernRight = S;
lastChange = "2022-12-19 11:22:04 +0000";
layers = (
{
anchors = (
{
name = bottom;
pos = (271,0);
},
{
name = ogonek;
pos = (456,10);
},
{
name = top;
pos = (271,700);
},
{
name = topleft;
pos = (0,700);
}
);
hints = (
{
horizontal = 1;
place = (0, 113);
place = (0, 113);
type = Stem;
},
{
horizontal = 1;
place = (299, 113);
place = (299, 113);
type = Stem;
},
{
horizontal = 1;
place = (587, 113);
place = (587, 113);
type = Stem;
},
{
place = (70, 119);
place = (70, 119);
type = Stem;
},
{
horizontal = 1;
place = (-10, 115);
place = (-10, 115);
type = Stem;
},
{
horizontal = 1;
place = (595, 115);
place = (595, 115);
type = Stem;
},
{
place = (602, 122);
place = (602, 122);
type = Stem;
},
{
place = (889, 122);
place = (889, 122);
type = Stem;
}
);
layerId = m01;
shapes = (
{
closed = 1;
nodes = (
(757,0,ls),
(878,0,o),
(951,82,o),
(951,189,cs),
(951,285,o),
(883,348,o),
(820,380,cs),
(730,425,ls),
(687,447,o),
(662,474,o),
(662,515,cs),
(662,560,o),
(696,595,o),
(748,595,cs),
(802,595,o),
(854,551,o),
(885,498,c),
(980,573,l),
(927,657,o),
(849,710,o),
(750,710,cs),
(623,710,o),
(540,623,o),
(540,510,cs),
(540,411,o),
(600,351,o),
(668,317,cs),
(764,269,ls),
(812,245,o),
(829,215,o),
(829,181,cs),
(829,141,o),
(808,113,o),
(752,113,cs),
(487,113,l),
(487,0,l)
);
},
{
closed = 1;
nodes = (
(493,0,l),
(493,113,l),
(169,113,l),
(169,299,l),
(493,299,l),
(493,412,l),
(169,412,l),
(169,587,l),
(493,587,l),
(493,700,l),
(50,700,l),
(50,0,l)
);
}
);
userData = {
com.hugojourdan.ColorFlow = {
"0" = 0;
"1" = 0;
"10" = 0;
"11" = 0;
"2" = 0;
"3" = 0;
"4" = 0;
"5" = 0;
"6" = 0;
"7" = 0;
"8" = 0;
"9" = 0;
};
};
width = 980;
}
);
metricLeft = H;
metricRight = S;
},
{
glyphname = E_S_S.dlig;
kernLeft = H;
kernRight = S;
lastChange = "2022-12-19 11:22:04 +0000";
layers = (
{
anchors = (
{
name = bottom;
pos = (708,0);
},
{
name = top;
pos = (710,700);
}
);
hints = (
{
horizontal = 1;
place = (-10, 115);
place = (-10, 115);
type = Stem;
},
{
horizontal = 1;
place = (595, 115);
place = (595, 115);
type = Stem;
},
{
place = (520, 122);
place = (520, 122);
type = Stem;
},
{
place = (807, 122);
place = (807, 122);
type = Stem;
},
{
horizontal = 1;
place = (-10, 115);
place = (-10, 115);
type = Stem;
},
{
horizontal = 1;
place = (595, 115);
place = (595, 115);
type = Stem;
},
{
place = (1034, 122);
place = (1034, 122);
type = Stem;
},
{
place = (1321, 122);
place = (1321, 122);
type = Stem;
}
);
layerId = m01;
shapes = (
{
closed = 1;
nodes = (
(1422,-10,o),
(1505,82,o),
(1505,189,cs),
(1505,285,o),
(1437,348,o),
(1374,380,cs),
(1284,425,ls),
(1241,447,o),
(1216,474,o),
(1216,515,cs),
(1216,560,o),
(1250,595,o),
(1302,595,cs),
(1356,595,o),
(1408,551,o),
(1439,498,c),
(1534,573,l),
(1481,657,o),
(1403,710,o),
(1304,710,cs),
(1177,710,o),
(1094,623,o),
(1094,510,cs),
(1094,411,o),
(1154,351,o),
(1222,317,cs),
(1318,269,ls),
(1366,245,o),
(1383,215,o),
(1383,181,cs),
(1383,141,o),
(1357,105,o),
(1301,105,cs),
(1251,105,o),
(1202,146,o),
(1165,207,cs),
(1094,325,o),
(1053,451,o),
(980,573,cs),
(930,657,o),
(849,710,o),
(750,710,cs),
(623,710,o),
(540,623,o),
(540,510,cs),
(540,411,o),
(600,351,o),
(668,317,cs),
(764,269,ls),
(812,245,o),
(829,215,o),
(829,181,cs),
(829,141,o),
(808,113,o),
(752,113,c),
(757,0,l),
(878,0,o),
(951,82,o),
(951,189,cs),
(951,285,o),
(883,348,o),
(820,380,cs),
(730,425,ls),
(687,447,o),
(662,474,o),
(662,515,cs),
(662,560,o),
(696,595,o),
(748,595,cs),
(802,595,o),
(853,550,o),
(885,498,cs),
(957,382,o),
(1002,250,o),
(1070,132,cs),
(1123,40,o),
(1199,-10,o),
(1301,-10,cs)
);
},
{
closed = 1;
nodes = (
(493,0,l),
(493,113,l),
(169,113,l),
(169,299,l),
(493,299,l),
(493,412,l),
(169,412,l),
(169,587,l),
(493,587,l),
(493,700,l),
(50,700,l),
(50,0,l)
);
},
{
closed = 1;
nodes = (
(757,0,l),
(752,113,l),
(493,113,l),
(493,0,l)
);
}
);
userData = {
com.hugojourdan.ColorFlow = {
"0" = 0;
"1" = 0;
"10" = 0;
"11" = 0;
"2" = 0;
"3" = 0;
"4" = 0;
"5" = 0;
"6" = 0;
"7" = 0;
"8" = 0;
"9" = 0;
};
};
width = 1534;
}
);
metricLeft = H;
metricRight = S;
},
{
glyphname = E_S_s.dlig;
kernLeft = H;
kernRight = S;
lastChange = "2022-12-19 11:22:04 +0000";
layers = (
{
anchors = (
{
name = bottom;
pos = (748,0);
},
{
name = top;
pos = (750,700);
}
);
background = {
shapes = (
{
closed = 1;
nodes = (
(662,560,o),
(696,595,o),
(748,595,cs),
(802,595,o),
(853,550,o),
(885,498,cs),
(957,382,o),
(1002,250,o),
(1070,132,cs),
(1123,40,o),
(1199,-10,o),
(1301,-10,cs),
(1422,-10,o),
(1505,82,o),
(1505,189,cs),
(1505,285,o),
(1437,348,o),
(1374,380,cs),
(1284,425,ls),
(1241,447,o),
(1216,474,o),
(1216,515,cs),
(1216,560,o),
(1250,595,o),
(1302,595,cs),
(1356,595,o),
(1408,551,o),
(1439,498,c),
(1534,573,l),
(1481,657,o),
(1403,710,o),
(1304,710,cs),
(1177,710,o),
(1094,623,o),
(1094,510,cs),
(1094,411,o),
(1154,351,o),
(1222,317,cs),
(1318,269,ls),
(1366,245,o),
(1383,215,o),
(1383,181,cs),
(1383,141,o),
(1357,105,o),
(1301,105,cs),
(1251,105,o),
(1202,146,o),
(1165,207,cs),
(1094,325,o),
(1053,451,o),
(980,573,cs),
(930,657,o),
(849,710,o),
(750,710,cs),
(623,710,o),
(540,623,o),
(540,510,cs),
(540,411,o),
(600,351,o),
(668,317,cs),
(764,269,ls),
(812,245,o),
(829,215,o),
(829,181,cs),
(829,141,o),
(808,113,o),
(752,113,c),
(757,0,l),
(878,0,o),
(951,82,o),
(951,189,cs),
(951,285,o),
(883,348,o),
(820,380,cs),
(730,425,ls),
(687,447,o),
(662,474,o),
(662,515,cs)
);
}
);
};
hints = (
{
horizontal = 1;
place = (-10, 115);
place = (-10, 115);
type = Stem;
},
{
horizontal = 1;
place = (595, 115);
place = (595, 115);
type = Stem;
},
{
place = (560, 122);
place = (560, 122);
type = Stem;
},
{
place = (847, 122);
place = (847, 122);
type = Stem;
},
{
horizontal = 1;
place = (-10, 115);
place = (-10, 115);
type = Stem;
},
{
horizontal = 1;
place = (595, 115);
place = (595, 115);
type = Stem;
},
{
place = (1079, 122);
place = (1079, 122);
type = Stem;
},
{
place = (1366, 122);
place = (1366, 122);
type = Stem;
}
);
layerId = m01;
shapes = (
{
closed = 1;
nodes = (
(1427,-10,o),
(1510,77,o),
(1510,190,cs),
(1510,289,o),
(1450,349,o),
(1382,383,cs),
(1286,431,ls),
(1238,455,o),
(1221,485,o),
(1221,519,cs),
(1221,559,o),
(1247,595,o),
(1303,595,cs),
(1353,595,o),
(1406,556,o),
(1439,493,c),
(1534,568,l),
(1479,658,o),
(1405,710,o),
(1303,710,cs),
(1182,710,o),
(1099,618,o),
(1099,511,cs),
(1099,415,o),
(1167,352,o),
(1230,320,cs),
(1320,275,ls),
(1363,253,o),
(1388,226,o),
(1388,185,cs),
(1388,140,o),
(1354,105,o),
(1302,105,cs),
(1248,105,o),
(1193,149,o),
(1163,202,cs),
(1091,328,o),
(1052,451,o),
(980,573,cs),
(929,659,o),
(849,710,o),
(750,710,cs),
(623,710,o),
(540,623,o),
(540,510,cs),
(540,411,o),
(600,351,o),
(668,317,cs),
(764,269,ls),
(812,245,o),
(829,215,o),
(829,181,cs),
(829,141,o),
(808,113,o),
(752,113,c),
(757,0,l),
(878,0,o),
(951,82,o),
(951,189,cs),
(951,285,o),
(883,348,o),
(820,380,cs),
(730,425,ls),
(687,447,o),
(662,474,o),
(662,515,cs),
(662,560,o),
(696,595,o),
(748,595,cs),
(802,595,o),
(853,552,o),
(885,498,cs),
(958,376,o),
(998,249,o),
(1070,127,cs),
(1121,41,o),
(1201,-10,o),
(1300,-10,cs)
);
},
{
closed = 1;
nodes = (
(493,0,l),
(493,113,l),
(169,113,l),
(169,299,l),
(493,299,l),
(493,412,l),
(169,412,l),
(169,587,l),
(493,587,l),
(493,700,l),
(50,700,l),
(50,0,l)
);
},
{
closed = 1;
nodes = (
(757,0,l),
(752,113,l),
(493,113,l),
(493,0,l)
);
}
);
userData = {
com.hugojourdan.ColorFlow = {
"0" = 0;
"1" = 0;
"10" = 0;
"11" = 0;
"2" = 0;
"3" = 0;
"4" = 0;
"5" = 0;
"6" = 0;
"7" = 0;
"8" = 0;
"9" = 0;
};
};
width = 1534;
}
);
metricLeft = H;
metricRight = s;
},
{
glyphname = E_a.dlig;
kernLeft = H;
kernRight = H;
lastChange = "2022-12-15 14:55:05 +0000";
layers = (
{
layerId = m01;
shapes = (
{
closed = 1;
nodes = (
(513,0,l),
(833,573,l),
(843,700,l),
(778,700,l),
(376,0,l)
);
},
{
closed = 1;
nodes = (
(493,0,l),
(493,113,l),
(169,113,l),
(169,299,l),
(493,299,l),
(493,412,l),
(169,412,l),
(169,587,l),
(493,587,l),
(493,700,l),
(50,700,l),
(50,0,l)
);
},
{
closed = 1;
nodes = (
(894,91,l),
(883,204,l),
(599,204,l),
(548,91,l)
);
},
{
closed = 1;
nodes = (
(950,0,l),
(950,700,l),
(831,700,l),
(831,0,l)
);
}
);
userData = {
com.hugojourdan.ColorFlow = {
"0" = 0;
"1" = 0;
"10" = 0;
"11" = 0;
"2" = 0;
"3" = 0;
"4" = 0;
"5" = 0;
"6" = 0;
"7" = 0;
"8" = 0;
"9" = 0;
};
};
width = 1000;
}
);
metricLeft = H;
metricRight = H;
},
{
glyphname = E_e.dlig;
kernLeft = H;
kernRight = E;
lastChange = "2022-12-20 11:59:41 +0000";
layers = (
{
anchors = (
{
name = bottom;
pos = (291,0);
},
{
name = ogonek;
pos = (476,10);
},
{
name = top;
pos = (291,700);
},
{
name = topleft;
pos = (20,700);
}
);
hints = (
{
horizontal = 1;
place = (0, 113);
place = (0, 113);
type = Stem;
},
{
horizontal = 1;
place = (299, 113);
place = (299, 113);
type = Stem;
},
{
horizontal = 1;
place = (587, 113);
place = (587, 113);
type = Stem;
},
{
place = (70, 119);
place = (70, 119);
type = Stem;
},
{
horizontal = 1;
place = (0, 113);
place = (0, 113);
type = Stem;
},
{
horizontal = 1;
place = (299, 113);
place = (299, 113);
type = Stem;
},
{
horizontal = 1;
place = (587, 113);
place = (587, 113);
type = Stem;
},
{
place = (623, 119);
place = (623, 119);
type = Stem;
}
);
layerId = m01;
shapes = (
{
closed = 1;
nodes = (
(837,0,l),
(837,113,l),
(513,113,l),
(513,299,l),
(770,299,l),
(770,412,l),
(513,412,l),
(513,587,l),
(837,587,l),
(837,700,l),
(394,700,l),
(394,0,l)
);
},
{
closed = 1;
nodes = (
(513,0,l),
(513,113,l),
(189,113,l),
(189,299,l),
(513,299,l),
(513,412,l),
(189,412,l),
(189,587,l),
(513,587,l),
(513,700,l),
(70,700,l),
(70,0,l)
);
}
);
userData = {
com.hugojourdan.ColorFlow = {
"0" = 0;
"1" = 0;
"10" = 0;
"11" = 0;
"2" = 0;
"3" = 0;
"4" = 0;
"5" = 0;
"6" = 0;
"7" = 0;
"8" = 0;
"9" = 0;
};
};
width = 857;
}
);
metricRight = e;
},
{
glyphname = E_n.dlig;
kernLeft = H;
kernRight = N;
lastChange = "2022-12-15 14:55:05 +0000";
layers = (
{
anchors = (
{
name = bottom;
pos = (271,0);
},
{
name = ogonek;
pos = (456,10);
},
{
name = top;
pos = (271,700);
},
{
name = topleft;
pos = (0,700);
}
);
hints = (
{
horizontal = 1;
place = (0, 113);
place = (0, 113);
type = Stem;
},
{
horizontal = 1;
place = (299, 113);
place = (299, 113);
type = Stem;
},
{
horizontal = 1;
place = (587, 113);
place = (587, 113);
type = Stem;
},
{
place = (70, 119);
place = (70, 119);
type = Stem;
},
{
horizontal = 1;
place = (0, 21);
target = up;
type = BottomGhost;
},
{
horizontal = 1;
place = (700, -20);
target = down;
type = TopGhost;
},
{
place = (623, 119);
place = (623, 119);
type = Stem;
},
{
place = (1039, 119);
place = (1039, 119);
type = Stem;
}
);
layerId = m01;
shapes = (
{
closed = 1;
nodes = (
(609,0,l),
(934,554,l),
(879,561,l),
(879,0,l),
(998,0,l),
(998,700,l),
(882,700,l),
(582,193,l),
(582,700,l),
(463,700,l),
(463,0,l)
);
},
{
closed = 1;
nodes = (
(493,0,l),
(493,113,l),
(169,113,l),
(169,299,l),
(493,299,l),
(493,412,l),
(169,412,l),
(169,587,l),
(493,587,l),
(493,700,l),
(50,700,l),
(50,0,l)
);
}
);
userData = {
com.hugojourdan.ColorFlow = {
"0" = 0;
"1" = 0;
"10" = 0;
"11" = 0;
"2" = 0;
"3" = 0;
"4" = 0;
"5" = 0;
"6" = 0;
"7" = 0;
"8" = 0;
"9" = 0;
};
};
width = 1048;
}
);
metricLeft = H;
metricRight = H;
},
{
glyphname = E_n_D.dlig;
kernLeft = H;
kernRight = D;
lastChange = "2022-12-15 14:55:05 +0000";
layers = (
{
anchors = (
{
name = bottom;
pos = (1110,0);
},
{
name = center;
pos = (1129,350);
},
{
name = top;
pos = (1117,700);
}
);
hints = (
{
horizontal = 1;
place = (0, 113);
place = (0, 113);
type = Stem;
},
{
horizontal = 1;
place = (587, 113);
place = (587, 113);
type = Stem;
},
{
place = (897, 119);
place = (897, 119);
type = Stem;
},
{
place = (1317, 123);
place = (1317, 123);
type = Stem;
}
);
layerId = m01;
shapes = (
{
closed = 1;
nodes = (
(1095,0,ls),
(1313,0,o),
(1422,175,o),
(1422,350,cs),
(1422,525,o),
(1313,700,o),
(1095,700,cs),
(954,700,l),
(879,666,l),
(879,0,l)
);
},
{
closed = 1;
nodes = (
(493,0,l),
(493,113,l),
(169,113,l),
(169,299,l),
(493,299,l),
(493,412,l),
(169,412,l),
(169,587,l),
(493,587,l),
(493,700,l),
(50,700,l),
(50,0,l)
);
},
{
closed = 1;
nodes = (
(609,0,l),
(934,554,l),
(879,561,l),
(879,0,l),
(998,0,l),
(998,700,l),
(882,700,l),
(582,193,l),
(582,700,l),
(463,700,l),
(463,0,l)
);
},
{
closed = 1;
nodes = (
(998,587,l),
(1096,587,ls),
(1232,587,o),
(1299,469,o),
(1299,350,cs),
(1299,232,o),
(1232,113,o),
(1096,113,cs),
(998,113,l)
);
}
);
userData = {
com.hugojourdan.ColorFlow = {
"0" = 0;
"1" = 0;
"10" = 0;
"11" = 0;
"2" = 0;
"3" = 0;
"4" = 0;
"5" = 0;
"6" = 0;
"7" = 0;
"8" = 0;
"9" = 0;
};
};
width = 1437;
}
);
metricLeft = H;
metricRight = O;
},
{
glyphname = E_n_d.dlig;
kernLeft = H;
kernRight = D;
lastChange = "2022-12-15 14:55:05 +0000";
layers = (
{
layerId = m01;
shapes = (
{
closed = 1;
nodes = (
(1075,0,ls),
(1289,0,o),
(1402,182,o),
(1402,360,cs),
(1402,532,o),
(1297,700,o),
(1075,700,cs),
(903,700,l),
(903,587,l),
(927,587,l),
(852,0,l)
);
},
{
closed = 1;
nodes = (
(493,0,l),
(493,113,l),
(169,113,l),
(169,299,l),
(493,299,l),
(493,412,l),
(169,412,l),
(169,587,l),
(493,587,l),
(493,700,l),
(50,700,l),
(50,0,l)
);
},
{
closed = 1;
nodes = (
(609,0,l),
(934,554,l),
(934,598,l),
(998,700,l),
(882,700,l),
(582,193,l),
(582,700,l),
(463,700,l),
(463,0,l)
);
},
{
closed = 1;
nodes = (
(1046,587,l),
(1076,587,ls),
(1215,587,o),
(1279,476,o),
(1279,361,cs),
(1279,239,o),
(1207,113,o),
(1076,113,cs),
(986,113,l)
);
}
);
userData = {
com.hugojourdan.ColorFlow = {
"0" = 0;
"1" = 0;
"10" = 0;
"11" = 0;
"2" = 0;
"3" = 0;
"4" = 0;
"5" = 0;
"6" = 0;
"7" = 0;
"8" = 0;
"9" = 0;
};
};
width = 1417;
}
);
metricLeft = H;
metricRight = d;
},
{
glyphname = E_s.dlig;
kernLeft = H;
kernRight = S;
lastChange = "2022-12-19 11:22:04 +0000";
layers = (
{
anchors = (
{
name = bottom;
pos = (743,0);
},
{
name = top;
pos = (744,700);
}
);
background = {
shapes = (
{
closed = 1;
nodes = (
(662,560,o),
(696,595,o),
(748,595,cs),
(802,595,o),
(854,551,o),
(885,498,c),
(980,573,l),
(927,657,o),
(849,710,o),
(750,710,cs),
(623,710,o),
(540,623,o),
(540,510,cs),
(540,411,o),
(600,351,o),
(668,317,cs),
(764,269,ls),
(812,245,o),
(829,215,o),
(829,181,cs),
(829,141,o),
(808,113,o),
(752,113,cs),
(487,113,l),
(487,0,l),
(757,0,ls),
(878,0,o),
(951,82,o),
(951,189,cs),
(951,285,o),
(883,348,o),
(820,380,cs),
(730,425,ls),
(687,447,o),
(662,474,o),
(662,515,cs)
);
}
);
};
hints = (
{
horizontal = 1;
place = (-10, 115);
place = (-10, 115);
type = Stem;
},
{
horizontal = 1;
place = (595, 115);
place = (595, 115);
type = Stem;
},
{
place = (560, 122);
place = (560, 122);
type = Stem;
},
{
place = (847, 122);
place = (847, 122);
type = Stem;
}
);
layerId = m01;
shapes = (
{
closed = 1;
nodes = (
(751,0,l),
(751,113,l),
(169,113,l),
(169,299,l),
(493,299,l),
(493,412,l),
(169,412,l),
(169,587,l),
(493,587,l),
(493,700,l),
(50,700,l),
(50,0,l)
);
},
{
closed = 1;
nodes = (
(878,0,o),
(951,77,o),
(951,190,cs),
(951,289,o),
(891,349,o),
(823,383,cs),
(727,431,ls),
(679,455,o),
(662,485,o),
(662,519,cs),
(662,559,o),
(688,595,o),
(744,595,cs),
(794,595,o),
(847,556,o),
(880,493,c),
(975,568,l),
(920,658,o),
(846,710,o),
(744,710,cs),
(623,710,o),
(540,618,o),
(540,511,cs),
(540,415,o),
(608,352,o),
(671,320,cs),
(761,275,ls),
(804,253,o),
(829,226,o),
(829,185,cs),
(829,140,o),
(803,113,o),
(751,113,c),
(751,0,l)
);
}
);
userData = {
com.hugojourdan.ColorFlow = {
"0" = 0;
"1" = 0;
"10" = 0;
"11" = 0;
"2" = 0;
"3" = 0;
"4" = 0;
"5" = 0;
"6" = 0;
"7" = 0;
"8" = 0;
"9" = 0;
};
};
width = 975;
}
);
metricLeft = H;
metricRight = s;
},
{
glyphname = E_s_S.dlig;
kernLeft = H;
kernRight = S;
lastChange = "2022-12-19 11:22:04 +0000";
layers = (
{
background = {
shapes = (
{
closed = 1;
nodes = (
(662,560,o),
(696,595,o),
(748,595,cs),
(802,595,o),
(854,551,o),
(885,498,c),
(980,573,l),
(927,657,o),
(849,710,o),
(750,710,cs),
(623,710,o),
(540,623,o),
(540,510,cs),
(540,411,o),
(600,351,o),
(668,317,cs),
(764,269,ls),
(812,245,o),
(829,215,o),
(829,181,cs),
(829,141,o),
(808,113,o),
(752,113,cs),
(487,113,l),
(487,0,l),
(757,0,ls),
(878,0,o),
(951,82,o),
(951,189,cs),
(951,285,o),
(883,348,o),
(820,380,cs),
(730,425,ls),
(687,447,o),
(662,474,o),
(662,515,cs)
);
}
);
};
layerId = m01;
shapes = (
{
closed = 1;
nodes = (
(1427,-10,o),
(1510,77,o),
(1510,190,cs),
(1510,289,o),
(1450,349,o),
(1382,383,cs),
(1286,431,ls),
(1238,455,o),
(1221,485,o),
(1221,519,cs),
(1221,559,o),
(1247,595,o),
(1303,595,cs),
(1353,595,o),
(1406,556,o),
(1439,493,c),
(1534,568,l),
(1479,658,o),
(1405,710,o),
(1303,710,cs),
(1182,710,o),
(1099,618,o),
(1099,511,cs),
(1099,415,o),
(1167,352,o),
(1230,320,cs),
(1320,275,ls),
(1363,253,o),
(1388,226,o),
(1388,185,cs),
(1388,140,o),
(1354,105,o),
(1302,105,cs),
(1248,105,o),
(1197,148,o),
(1165,202,cs),
(1092,324,o),
(1052,451,o),
(980,573,cs),
(929,659,o),
(849,710,o),
(750,710,cs),
(623,710,o),
(540,623,o),
(540,510,cs),
(540,411,o),
(600,351,o),
(668,317,cs),
(764,269,ls),
(812,245,o),
(829,215,o),
(829,181,cs),
(829,141,o),
(808,113,o),
(752,113,c),
(757,0,l),
(878,0,o),
(951,82,o),
(951,189,cs),
(951,285,o),
(883,348,o),
(820,380,cs),
(730,425,ls),
(687,447,o),
(662,474,o),
(662,515,cs),
(662,560,o),
(696,595,o),
(748,595,cs),
(802,595,o),
(857,551,o),
(887,498,cs),
(959,372,o),
(998,249,o),
(1070,127,cs),
(1121,41,o),
(1201,-10,o),
(1300,-10,cs)
);
},
{
closed = 1;
nodes = (
(493,0,l),
(493,113,l),
(169,113,l),
(169,299,l),
(493,299,l),
(493,412,l),
(169,412,l),
(169,587,l),
(493,587,l),
(493,700,l),
(50,700,l),
(50,0,l)
);
},
{
closed = 1;
nodes = (
(757,0,l),
(752,113,l),
(463,113,l),
(463,0,l)
);
}
);
userData = {
com.hugojourdan.ColorFlow = {
"0" = 0;
"1" = 0;
"10" = 0;
"11" = 0;
"2" = 0;
"3" = 0;
"4" = 0;
"5" = 0;
"6" = 0;
"7" = 0;
"8" = 0;
"9" = 0;
};
};
width = 1534;
}
);
metricLeft = H;
metricRight = s;
},
{
glyphname = E_s_s.dlig;
kernLeft = H;
kernRight = S;
lastChange = "2022-12-19 11:22:04 +0000";
layers = (
{
background = {
shapes = (
{
closed = 1;
nodes = (
(829,140,o),
(803,113,o),
(751,113,c),
(751,0,l),
(878,0,o),
(951,77,o),
(951,190,cs),
(951,289,o),
(891,349,o),
(823,383,cs),
(727,431,ls),
(679,455,o),
(662,485,o),
(662,519,cs),
(662,559,o),
(688,595,o),
(744,595,cs),
(794,595,o),
(847,556,o),
(880,493,c),
(975,568,l),
(920,658,o),
(846,710,o),
(744,710,cs),
(623,710,o),
(540,618,o),
(540,511,cs),
(540,415,o),
(608,352,o),
(671,320,cs),
(761,275,ls),
(804,253,o),
(829,226,o),
(829,185,cs)
);
}
);
};
layerId = m01;
shapes = (
{
closed = 1;
nodes = (
(1422,-10,o),
(1505,77,o),
(1505,190,cs),
(1505,289,o),
(1445,349,o),
(1377,383,cs),
(1281,431,ls),
(1233,455,o),
(1216,485,o),
(1216,519,cs),
(1216,559,o),
(1242,595,o),
(1298,595,cs),
(1348,595,o),
(1401,556,o),
(1434,493,c),
(1529,568,l),
(1474,658,o),
(1400,710,o),
(1298,710,cs),
(1177,710,o),
(1094,618,o),
(1094,511,cs),
(1094,415,o),
(1162,352,o),
(1225,320,cs),
(1315,275,ls),
(1358,253,o),
(1383,226,o),
(1383,185,cs),
(1383,140,o),
(1349,105,o),
(1297,105,cs),
(1243,105,o),
(1192,150,o),
(1160,202,cs),
(1088,318,o),
(1043,450,o),
(975,568,cs),
(922,660,o),
(846,710,o),
(744,710,cs),
(623,710,o),
(540,618,o),
(540,511,cs),
(540,415,o),
(608,352,o),
(671,320,cs),
(761,275,ls),
(804,253,o),
(829,226,o),
(829,185,cs),
(829,140,o),
(804,113,o),
(752,113,c),
(757,0,l),
(874,0,o),
(951,77,o),
(951,190,cs),
(951,289,o),
(891,349,o),
(823,383,cs),
(727,431,ls),
(679,455,o),
(662,485,o),
(662,519,cs),
(662,559,o),
(688,595,o),
(744,595,cs),
(794,595,o),
(843,554,o),
(880,493,cs),
(951,375,o),
(992,249,o),
(1065,127,cs),
(1115,43,o),
(1196,-10,o),
(1295,-10,cs)
);
},
{
closed = 1;
nodes = (
(493,0,l),
(493,113,l),
(169,113,l),
(169,299,l),
(493,299,l),
(493,412,l),
(169,412,l),
(169,587,l),
(493,587,l),
(493,700,l),
(50,700,l),
(50,0,l)
);
},
{
closed = 1;
nodes = (
(757,0,l),
(752,113,l),
(493,113,l),
(493,0,l)
);
}
);
userData = {
com.hugojourdan.ColorFlow = {
"0" = 0;
"1" = 0;
"10" = 0;
"11" = 0;
"2" = 0;
"3" = 0;
"4" = 0;
"5" = 0;
"6" = 0;
"7" = 0;
"8" = 0;
"9" = 0;
};
};
width = 1529;
}
);
metricLeft = H;
metricRight = s;
},
{
glyphname = F_A.dlig;
kernLeft = H;
kernRight = A;
lastChange = "2022-12-15 14:55:05 +0000";
layers = (
{
anchors = (
{
name = bottom;
pos = (239,0);
},
{
name = top;
pos = (239,700);
}
);
hints = (
{
horizontal = 1;
place = (0, 21);
target = up;
type = BottomGhost;
},
{
horizontal = 1;
place = (299, 113);
place = (299, 113);
type = Stem;
},
{
horizontal = 1;
place = (587, 113);
place = (587, 113);
type = Stem;
},
{
place = (70, 119);
place = (70, 119);
type = Stem;
}
);
layerId = m01;
shapes = (
{
closed = 1;
nodes = (
(169,0,l),
(169,299,l),
(477,299,l),
(477,412,l),
(169,412,l),
(169,587,l),
(477,587,l),
(477,700,l),
(50,700,l),
(50,0,l)
);
},
{
closed = 1;
nodes = (
(650,102,l),
(613,215,l),
(394,215,l),
(360,102,l)
);
},
{
closed = 1;
nodes = (
(401,0,l),
(500,355,l),
(607,0,l),
(726,0,l),
(568,470,l),
(429,470,l),
(282,0,l)
);
}
);
userData = {
com.hugojourdan.ColorFlow = {
"0" = 0;
"1" = 0;
"10" = 0;
"11" = 0;
"2" = 0;
"3" = 0;
"4" = 0;
"5" = 0;
"6" = 0;
"7" = 0;
"8" = 0;
"9" = 0;
};
};
width = 721;
}
);
metricLeft = H;
metricRight = A;
},
{
glyphname = F_E.dlig;
kernLeft = H;
kernRight = E;
lastChange = "2022-12-19 11:22:04 +0000";
layers = (
{
layerId = m01;
shapes = (
{
closed = 1;
nodes = (
(169,0,l),
(169,299,l),
(407,299,l),
(407,412,l),
(169,412,l),
(169,587,l),
(477,587,l),
(477,700,l),
(50,700,l),
(50,0,l)
);
},
{
closed = 1;
nodes = (
(678,0,l),
(678,113,l),
(424,113,l),
(424,184,l),
(678,184,l),
(678,297,l),
(424,297,l),
(424,357,l),
(678,357,l),
(678,470,l),
(305,470,l),
(305,0,l)
);
}
);
userData = {
com.hugojourdan.ColorFlow = {
"0" = 0;
"1" = 0;
"10" = 0;
"11" = 0;
"2" = 0;
"3" = 0;
"4" = 0;
"5" = 0;
"6" = 0;
"7" = 0;
"8" = 0;
"9" = 0;
};
};
width = 698;
}
);
metricLeft = H;
metricRight = E;
},
{
glyphname = F_F.dlig;
kernLeft = H;
kernRight = F;
lastChange = "2022-12-15 14:55:05 +0000";
layers = (
{
anchors = (
{
name = bottom;
pos = (239,0);
},
{
name = top;
pos = (239,700);
}
);
hints = (
{
horizontal = 1;
place = (0, 21);
target = up;
type = BottomGhost;
},
{
horizontal = 1;
place = (299, 113);
place = (299, 113);
type = Stem;
},
{
horizontal = 1;
place = (587, 113);
place = (587, 113);
type = Stem;
},
{
place = (70, 119);
place = (70, 119);
type = Stem;
},
{
horizontal = 1;
place = (0, 21);
target = up;
type = BottomGhost;
},
{
horizontal = 1;
place = (299, 113);
place = (299, 113);
type = Stem;
},
{
horizontal = 1;
place = (587, 113);
place = (587, 113);
type = Stem;
},
{
place = (587, 119);
place = (587, 119);
type = Stem;
}
);
layerId = m01;
shapes = (
{
closed = 1;
nodes = (
(477,0,l),
(477,299,l),
(785,299,l),
(785,412,l),
(477,412,l),
(477,587,l),
(785,587,l),
(785,700,l),
(358,700,l),
(358,0,l)
);
},
{
closed = 1;
nodes = (
(169,0,l),
(169,299,l),
(477,299,l),
(477,412,l),
(169,412,l),
(169,587,l),
(477,587,l),
(477,700,l),
(50,700,l),
(50,0,l)
);
}
);
userData = {
com.hugojourdan.ColorFlow = {
"0" = 0;
"1" = 0;
"10" = 0;
"11" = 0;
"2" = 0;
"3" = 0;
"4" = 0;
"5" = 0;
"6" = 0;
"7" = 0;
"8" = 0;
"9" = 0;
};
};
width = 795;
}
);
metricLeft = F;
metricRight = F;
},
{
glyphname = F_F_I.dlig;
kernLeft = H;
kernRight = H;
lastChange = "2022-12-15 14:55:05 +0000";
layers = (
{
anchors = (
{
name = bottom;
pos = (239,0);
},
{
name = top;
pos = (239,700);
}
);
hints = (
{
horizontal = 1;
place = (0, 21);
target = up;
type = BottomGhost;
},
{
horizontal = 1;
place = (299, 113);
place = (299, 113);
type = Stem;
},
{
horizontal = 1;
place = (587, 113);
place = (587, 113);
type = Stem;
},
{
place = (70, 119);
place = (70, 119);
type = Stem;
},
{
horizontal = 1;
place = (0, 21);
target = up;
type = BottomGhost;
},
{
horizontal = 1;
place = (299, 113);
place = (299, 113);
type = Stem;
},
{
horizontal = 1;
place = (587, 113);
place = (587, 113);
type = Stem;
},
{
place = (587, 119);
place = (587, 119);
type = Stem;
}
);
layerId = m01;
shapes = (
{
closed = 1;
nodes = (
(477,0,l),
(477,357,l),
(742,357,l),
(742,470,l),
(477,470,l),
(477,587,l),
(785,587,l),
(785,700,l),
(358,700,l),
(358,0,l)
);
},
{
closed = 1;
nodes = (
(169,0,l),
(169,357,l),
(477,357,l),
(477,470,l),
(169,470,l),
(169,587,l),
(477,587,l),
(477,700,l),
(50,700,l),
(50,0,l)
);
},
{
closed = 1;
nodes = (
(785,0,l),
(785,470,l),
(666,470,l),
(666,0,l)
);
}
);
userData = {
com.hugojourdan.ColorFlow = {
"0" = 0;
"1" = 0;
"10" = 0;
"11" = 0;
"2" = 0;
"3" = 0;
"4" = 0;
"5" = 0;
"6" = 0;
"7" = 0;
"8" = 0;
"9" = 0;
};
};
width = 835;
}
);
metricLeft = H;
metricRight = H;
},
{
glyphname = F_F_L.dlig;
kernLeft = H;
kernRight = L;
lastChange = "2022-12-19 11:22:04 +0000";
layers = (
{
anchors = (
{
name = bottom;
pos = (239,0);
},
{
name = top;
pos = (239,700);
}
);
hints = (
{
horizontal = 1;
place = (0, 21);
target = up;
type = BottomGhost;
},
{
horizontal = 1;
place = (299, 113);
place = (299, 113);
type = Stem;
},
{
horizontal = 1;
place = (587, 113);
place = (587, 113);
type = Stem;
},
{
place = (70, 119);
place = (70, 119);
type = Stem;
},
{
horizontal = 1;
place = (0, 21);
target = up;
type = BottomGhost;
},
{
horizontal = 1;
place = (299, 113);
place = (299, 113);
type = Stem;
},
{
horizontal = 1;
place = (587, 113);
place = (587, 113);
type = Stem;
},
{
place = (587, 119);
place = (587, 119);
type = Stem;
}
);
layerId = m01;
shapes = (
{
closed = 1;
nodes = (
(477,0,l),
(477,299,l),
(715,299,l),
(715,412,l),
(477,412,l),
(477,587,l),
(785,587,l),
(785,700,l),
(358,700,l),
(358,0,l)
);
},
{
closed = 1;
nodes = (
(169,0,l),
(169,299,l),
(477,299,l),
(477,412,l),
(169,412,l),
(169,587,l),
(477,587,l),
(477,700,l),
(50,700,l),
(50,0,l)
);
},
{
closed = 1;
nodes = (
(949,0,l),
(949,113,l),
(732,113,l),
(732,470,l),
(613,470,l),
(613,0,l)
);
}
);
userData = {
com.hugojourdan.ColorFlow = {
"0" = 0;
"1" = 0;
"10" = 0;
"11" = 0;
"2" = 0;
"3" = 0;
"4" = 0;
"5" = 0;
"6" = 0;
"7" = 0;
"8" = 0;
"9" = 0;
};
};
width = 959;
}
);
metricLeft = H;
metricRight = L;
},
{
glyphname = F_F_i.dlig;
kernLeft = H;
kernRight = H;
lastChange = "2022-12-15 14:55:05 +0000";
layers = (
{
anchors = (
{
name = bottom;
pos = (239,0);
},
{
name = top;
pos = (239,700);
}
);
hints = (
{
horizontal = 1;
place = (0, 21);
target = up;
type = BottomGhost;
},
{
horizontal = 1;
place = (299, 113);
place = (299, 113);
type = Stem;
},
{
horizontal = 1;
place = (587, 113);
place = (587, 113);
type = Stem;
},
{
place = (70, 119);
place = (70, 119);
type = Stem;
},
{
horizontal = 1;
place = (0, 21);
target = up;
type = BottomGhost;
},
{
horizontal = 1;
place = (299, 113);
place = (299, 113);
type = Stem;
},
{
horizontal = 1;
place = (587, 113);
place = (587, 113);
type = Stem;
},
{
place = (587, 119);
place = (587, 119);
type = Stem;
}
);
layerId = m01;
shapes = (
{
closed = 1;
nodes = (
(477,0,l),
(477,357,l),
(742,357,l),
(742,470,l),
(477,470,l),
(477,587,l),
(812,587,l),
(812,700,l),
(358,700,l),
(358,0,l)
);
},
{
closed = 1;
nodes = (
(169,0,l),
(169,357,l),
(477,357,l),
(477,470,l),
(169,470,l),
(169,587,l),
(477,587,l),
(477,700,l),
(50,700,l),
(50,0,l)
);
},
{
closed = 1;
nodes = (
(812,0,l),
(812,113,l),
(767,113,l),
(767,357,l),
(812,357,l),
(812,470,l),
(603,470,l),
(603,357,l),
(648,357,l),
(648,113,l),
(603,113,l),
(603,0,l)
);
}
);
userData = {
com.hugojourdan.ColorFlow = {
"0" = 0;
"1" = 0;
"10" = 0;
"11" = 0;
"2" = 0;
"3" = 0;
"4" = 0;
"5" = 0;
"6" = 0;
"7" = 0;
"8" = 0;
"9" = 0;
};
};
width = 852;
}
);
metricLeft = H;
metricRight = i;
},
{
glyphname = F_I.dlig;
kernLeft = H;
kernRight = I;
lastChange = "2022-12-15 14:55:05 +0000";
layers = (
{
layerId = m01;
shapes = (
{
closed = 1;
nodes = (
(169,0,l),
(169,357,l),
(434,357,l),
(434,470,l),
(169,470,l),
(169,587,l),
(477,587,l),
(477,700,l),
(50,700,l),
(50,0,l)
);
},
{
closed = 1;
nodes = (
(477,0,l),
(477,470,l),
(358,470,l),
(358,0,l)
);
}
);
userData = {
com.hugojourdan.ColorFlow = {
"0" = 0;
"1" = 0;
"10" = 0;
"11" = 0;
"2" = 0;
"3" = 0;
"4" = 0;
"5" = 0;
"6" = 0;
"7" = 0;
"8" = 0;
"9" = 0;
};
};
width = 527;
}
);
metricLeft = H;
metricRight = I;
},
{
glyphname = F_L.dlig;
kernLeft = H;
kernRight = L;
lastChange = "2022-12-19 11:22:04 +0000";
layers = (
{
layerId = m01;
shapes = (
{
closed = 1;
nodes = (
(169,0,l),
(169,299,l),
(407,299,l),
(407,412,l),
(169,412,l),
(169,587,l),
(477,587,l),
(477,700,l),
(50,700,l),
(50,0,l)
);
},
{
closed = 1;
nodes = (
(641,0,l),
(641,113,l),
(424,113,l),
(424,470,l),
(305,470,l),
(305,0,l)
);
}
);
userData = {
com.hugojourdan.ColorFlow = {
"0" = 0;
"1" = 0;
"10" = 0;
"11" = 0;
"2" = 0;
"3" = 0;
"4" = 0;
"5" = 0;
"6" = 0;
"7" = 0;
"8" = 0;
"9" = 0;
};
};
width = 651;
}
);
metricLeft = H;
metricRight = L;
},
{
glyphname = F_R.dlig;
kernLeft = H;
kernRight = R;
lastChange = "2022-12-19 11:22:04 +0000";
layers = (
{
layerId = m01;
shapes = (
{
closed = 1;
nodes = (
(169,0,l),
(169,299,l),
(407,299,l),
(407,412,l),
(169,412,l),
(169,587,l),
(477,587,l),
(477,700,l),
(50,700,l),
(50,0,l)
);
},
{
closed = 1;
nodes = (
(424,0,l),
(424,70,l),
(590,70,l),
(622,0,l),
(741,0,l),
(657,183,l),
(424,183,l),
(424,213,l),
(558,213,ls),
(665,213,o),
(716,266,o),
(716,342,cs),
(716,417,o),
(665,470,o),
(558,470,cs),
(305,470,l),
(305,0,l)
);
},
{
closed = 1;
nodes = (
(424,357,l),
(556,357,ls),
(580,357,o),
(593,356,o),
(593,342,cs),
(593,327,o),
(580,326,o),
(556,326,cs),
(424,326,l)
);
}
);
userData = {
com.hugojourdan.ColorFlow = {
"0" = 0;
"1" = 0;
"10" = 0;
"11" = 0;
"2" = 0;
"3" = 0;
"4" = 0;
"5" = 0;
"6" = 0;
"7" = 0;
"8" = 0;
"9" = 0;
};
};
width = 736;
}
);
metricLeft = H;
metricRight = R;
},
{
glyphname = F_T.dlig;
kernLeft = H;
kernRight = T;
lastChange = "2022-12-19 11:22:04 +0000";
layers = (
{
anchors = (
{
name = bottom;
pos = (239,0);
},
{
name = center;
pos = (756,350);
},
{
name = top;
pos = (239,700);
}
);
hints = (
{
horizontal = 1;
place = (0, 21);
target = up;
type = BottomGhost;
},
{
horizontal = 1;
place = (299, 113);
place = (299, 113);
type = Stem;
},
{
horizontal = 1;
place = (587, 113);
place = (587, 113);
type = Stem;
},
{
place = (70, 119);
place = (70, 119);
type = Stem;
},
{
horizontal = 1;
place = (0, 21);
target = up;
type = BottomGhost;
},
{
horizontal = 1;
place = (587, 113);
place = (587, 113);
type = Stem;
},
{
place = (716, 119);
place = (716, 119);
type = Stem;
}
);
layerId = m01;
shapes = (
{
closed = 1;
nodes = (
(169,0,l),
(169,299,l),
(547,299,l),
(547,412,l),
(169,412,l),
(169,587,l),
(467,587,l),
(467,700,l),
(50,700,l),
(50,0,l)
);
},
{
closed = 1;
nodes = (
(650,0,l),
(650,587,l),
(834,587,l),
(834,700,l),
(347,700,l),
(347,587,l),
(531,587,l),
(531,0,l)
);
}
);
userData = {
com.hugojourdan.ColorFlow = {
"0" = 0;
"1" = 0;
"10" = 0;
"11" = 0;
"2" = 0;
"3" = 0;
"4" = 0;
"5" = 0;
"6" = 0;
"7" = 0;
"8" = 0;
"9" = 0;
};
};
width = 839;
}
);
metricLeft = F;
metricRight = T;
},
{
glyphname = F_a.dlig;
kernLeft = H;
kernRight = A;
lastChange = "2022-12-15 14:55:05 +0000";
layers = (
{
layerId = m01;
shapes = (
{
closed = 1;
nodes = (
(169,0,l),
(169,299,l),
(477,299,l),
(477,412,l),
(169,412,l),
(169,587,l),
(477,587,l),
(477,700,l),
(50,700,l),
(50,0,l)
);
},
{
closed = 1;
nodes = (
(647,59,l),
(610,172,l),
(391,172,l),
(357,59,l)
);
},
{
closed = 1;
nodes = (
(411,0,l),
(497,355,l),
(592,0,l),
(711,0,l),
(565,470,l),
(426,470,l),
(292,0,l)
);
}
);
userData = {
com.hugojourdan.ColorFlow = {
"0" = 0;
"1" = 0;
"10" = 0;
"11" = 0;
"2" = 0;
"3" = 0;
"4" = 0;
"5" = 0;
"6" = 0;
"7" = 0;
"8" = 0;
"9" = 0;
};
};
width = 706;
}
);
metricLeft = H;
metricRight = a;
},
{
glyphname = F_eF_E.dlig;
kernLeft = H;
kernRight = E;
lastChange = "2022-12-20 11:59:41 +0000";
layers = (
{
layerId = m01;
shapes = (
{
closed = 1;
nodes = (
(169,0,l),
(169,299,l),
(407,299,l),
(407,412,l),
(169,412,l),
(169,587,l),
(477,587,l),
(477,700,l),
(50,700,l),
(50,0,l)
);
},
{
closed = 1;
nodes = (
(678,0,l),
(678,113,l),
(424,113,l),
(424,184,l),
(607,184,l),
(607,297,l),
(424,297,l),
(424,357,l),
(678,357,l),
(678,470,l),
(305,470,l),
(305,0,l)
);
}
);
userData = {
com.hugojourdan.ColorFlow = {
"0" = 0;
"1" = 0;
"10" = 0;
"11" = 0;
"2" = 0;
"3" = 0;
"4" = 0;
"5" = 0;
"6" = 0;
"7" = 0;
"8" = 0;
"9" = 0;
};
};
width = 698;
}
);
metricLeft = H;
metricRight = e;
},
{
glyphname = F_f.dlig;
kernLeft = H;
kernRight = F;
lastChange = "2022-12-15 14:55:05 +0000";
layers = (
{
anchors = (
{
name = bottom;
pos = (763,0);
},
{
name = top;
pos = (763,800);
}
);
hints = (
{
horizontal = 1;
place = (0, 21);
target = up;
type = BottomGhost;
},
{
horizontal = 1;
place = (299, 113);
place = (299, 113);
type = Stem;
},
{
horizontal = 1;
place = (587, 113);
place = (587, 113);
type = Stem;
},
{
place = (596, 119);
place = (596, 119);
type = Stem;
},
{
horizontal = 1;
place = (0, 21);
target = up;
type = BottomGhost;
},
{
horizontal = 1;
place = (299, 113);
place = (299, 113);
type = Stem;
},
{
horizontal = 1;
place = (587, 113);
place = (587, 113);
type = Stem;
},
{
place = (70, 119);
place = (70, 119);
type = Stem;
}
);
layerId = m01;
shapes = (
{
closed = 1;
nodes = (
(169,0,l),
(169,299,l),
(477,299,l),
(477,412,l),
(169,412,l),
(169,587,l),
(477,587,l),
(477,700,l),
(50,700,l),
(50,0,l)
);
},
{
closed = 1;
nodes = (
(477,0,l),
(477,129,l),
(668,129,l),
(668,242,l),
(477,242,l),
(477,357,l),
(735,357,l),
(735,470,l),
(358,470,l),
(358,242,l),
(289,242,l),
(289,129,l),
(358,129,l),
(358,0,l)
);
}
);
userData = {
com.hugojourdan.ColorFlow = {
"0" = 0;
"1" = 0;
"10" = 0;
"11" = 0;
"2" = 0;
"3" = 0;
"4" = 0;
"5" = 0;
"6" = 0;
"7" = 0;
"8" = 0;
"9" = 0;
};
};
width = 745;
}
);
metricLeft = F;
metricRight = f;
},
{
glyphname = F_f_I.dlig;
kernLeft = H;
kernRight = I;
lastChange = "2022-12-15 14:55:05 +0000";
layers = (
{
anchors = (
{
name = bottom;
pos = (763,0);
},
{
name = top;
pos = (763,800);
}
);
hints = (
{
horizontal = 1;
place = (0, 21);
target = up;
type = BottomGhost;
},
{
horizontal = 1;
place = (299, 113);
place = (299, 113);
type = Stem;
},
{
horizontal = 1;
place = (587, 113);
place = (587, 113);
type = Stem;
},
{
place = (596, 119);
place = (596, 119);
type = Stem;
},
{
horizontal = 1;
place = (0, 21);
target = up;
type = BottomGhost;
},
{
horizontal = 1;
place = (299, 113);
place = (299, 113);
type = Stem;
},
{
horizontal = 1;
place = (587, 113);
place = (587, 113);
type = Stem;
},
{
place = (70, 119);
place = (70, 119);
type = Stem;
}
);
layerId = m01;
shapes = (
{
closed = 1;
nodes = (
(169,0,l),
(169,299,l),
(477,299,l),
(477,412,l),
(169,412,l),
(169,587,l),
(477,587,l),
(477,700,l),
(50,700,l),
(50,0,l)
);
},
{
closed = 1;
nodes = (
(477,0,l),
(477,129,l),
(668,129,l),
(668,242,l),
(477,242,l),
(477,357,l),
(735,357,l),
(735,470,l),
(358,470,l),
(358,242,l),
(289,242,l),
(289,129,l),
(358,129,l),
(358,0,l)
);
},
{
closed = 1;
nodes = (
(785,0,l),
(785,242,l),
(666,242,l),
(666,0,l)
);
}
);
userData = {
com.hugojourdan.ColorFlow = {
"0" = 0;
"1" = 0;
"10" = 0;
"11" = 0;
"2" = 0;
"3" = 0;
"4" = 0;
"5" = 0;
"6" = 0;
"7" = 0;
"8" = 0;
"9" = 0;
};
};
width = 835;
}
);
metricLeft = F;
metricRight = I;
},
{
glyphname = F_f_L.dlig;
kernLeft = H;
kernRight = L;
lastChange = "2022-12-19 11:22:04 +0000";
layers = (
{
layerId = m01;
shapes = (
{
closed = 1;
nodes = (
(169,0,l),
(169,299,l),
(477,299,l),
(477,412,l),
(169,412,l),
(169,587,l),
(477,587,l),
(477,700,l),
(50,700,l),
(50,0,l)
);
},
{
closed = 1;
nodes = (
(477,0,l),
(477,129,l),
(668,129,l),
(668,242,l),
(477,242,l),
(477,357,l),
(735,357,l),
(735,470,l),
(358,470,l),
(358,242,l),
(289,242,l),
(289,129,l),
(358,129,l),
(358,0,l)
);
},
{
closed = 1;
nodes = (
(1002,0,l),
(1002,113,l),
(785,113,l),
(785,242,l),
(666,242,l),
(666,0,l)
);
}
);
userData = {
com.hugojourdan.ColorFlow = {
"0" = 0;
"1" = 0;
"10" = 0;
"11" = 0;
"2" = 0;
"3" = 0;
"4" = 0;
"5" = 0;
"6" = 0;
"7" = 0;
"8" = 0;
"9" = 0;
};
};
width = 1012;
}
);
metricLeft = F;
metricRight = L;
},
{
glyphname = F_f_i.dlig;
kernLeft = H;
kernRight = i;
lastChange = "2022-12-15 14:55:05 +0000";
layers = (
{
background = {
shapes = (
{
closed = 1;
nodes = (
(523,587,l),
(523,700,l),
(69,700,l),
(69,0,l),
(188,0,l),
(188,357,l),
(453,357,l),
(453,470,l),
(188,470,l),
(188,587,l)
);
},
{
closed = 1;
nodes = (
(523,357,l),
(523,470,l),
(314,470,l),
(314,357,l),
(359,357,l),
(359,113,l),
(314,113,l),
(314,0,l),
(523,0,l),
(523,113,l),
(478,113,l),
(478,357,l)
);
},
{
closed = 1;
nodes = (
(69,470,l),
(0,470,l),
(0,357,l),
(69,357,l)
);
}
);
};
layerId = m01;
shapes = (
{
closed = 1;
nodes = (
(169,0,l),
(169,299,l),
(477,299,l),
(477,412,l),
(169,412,l),
(169,587,l),
(477,587,l),
(477,700,l),
(50,700,l),
(50,0,l)
);
},
{
closed = 1;
nodes = (
(477,0,l),
(477,129,l),
(668,129,l),
(668,242,l),
(477,242,l),
(477,357,l),
(735,357,l),
(735,470,l),
(358,470,l),
(358,242,l),
(289,242,l),
(289,129,l),
(358,129,l),
(358,0,l)
);
},
{
closed = 1;
nodes = (
(831,0,l),
(831,113,l),
(786,113,l),
(786,129,l),
(831,129,l),
(831,242,l),
(622,242,l),
(622,129,l),
(667,129,l),
(667,113,l),
(622,113,l),
(622,0,l)
);
}
);
userData = {
com.hugojourdan.ColorFlow = {
"0" = 0;
"1" = 0;
"10" = 0;
"11" = 0;
"2" = 0;
"3" = 0;
"4" = 0;
"5" = 0;
"6" = 0;
"7" = 0;
"8" = 0;
"9" = 0;
};
};
width = 871;
}
);
metricLeft = F;
metricRight = i;
},
{
glyphname = F_f_l.dlig;
kernLeft = H;
kernRight = L;
lastChange = "2022-12-19 11:22:04 +0000";
layers = (
{
layerId = m01;
shapes = (
{
closed = 1;
nodes = (
(169,0,l),
(169,299,l),
(477,299,l),
(477,412,l),
(169,412,l),
(169,587,l),
(477,587,l),
(477,700,l),
(50,700,l),
(50,0,l)
);
},
{
closed = 1;
nodes = (
(477,0,l),
(477,129,l),
(668,129,l),
(668,242,l),
(477,242,l),
(477,357,l),
(735,357,l),
(735,470,l),
(358,470,l),
(358,242,l),
(289,242,l),
(289,129,l),
(358,129,l),
(358,0,l)
);
},
{
closed = 1;
nodes = (
(847,0,l),
(847,113,l),
(785,113,l),
(785,242,l),
(666,242,l),
(666,0,l)
);
}
);
userData = {
com.hugojourdan.ColorFlow = {
"0" = 0;
"1" = 0;
"10" = 0;
"11" = 0;
"2" = 0;
"3" = 0;
"4" = 0;
"5" = 0;
"6" = 0;
"7" = 0;
"8" = 0;
"9" = 0;
};
};
width = 857;
}
);
metricLeft = F;
metricRight = l;
},
{
glyphname = F_i.dlig;
kernLeft = H;
kernRight = I;
lastChange = "2022-12-15 14:55:05 +0000";
layers = (
{
layerId = m01;
shapes = (
{
closed = 1;
nodes = (
(169,0,l),
(169,357,l),
(434,357,l),
(434,470,l),
(169,470,l),
(169,587,l),
(504,587,l),
(504,700,l),
(50,700,l),
(50,0,l)
);
},
{
closed = 1;
nodes = (
(504,0,l),
(504,113,l),
(459,113,l),
(459,357,l),
(504,357,l),
(504,470,l),
(295,470,l),
(295,357,l),
(340,357,l),
(340,113,l),
(295,113,l),
(295,0,l)
);
}
);
userData = {
com.hugojourdan.ColorFlow = {
"0" = 0;
"1" = 0;
"10" = 0;
"11" = 0;
"2" = 0;
"3" = 0;
"4" = 0;
"5" = 0;
"6" = 0;
"7" = 0;
"8" = 0;
"9" = 0;
};
};
width = 544;
}
);
metricLeft = F;
metricRight = i;
},
{
glyphname = F_l.dlig;
kernLeft = H;
kernRight = I;
lastChange = "2022-12-19 11:22:04 +0000";
layers = (
{
layerId = m01;
shapes = (
{
closed = 1;
nodes = (
(124,0,l),
(124,299,l),
(362,299,l),
(362,412,l),
(124,412,l),
(124,587,l),
(432,587,l),
(432,700,l),
(5,700,l),
(5,0,l)
);
},
{
closed = 1;
nodes = (
(441,0,l),
(441,113,l),
(379,113,l),
(379,470,l),
(260,470,l),
(260,0,l)
);
}
);
userData = {
com.hugojourdan.ColorFlow = {
"0" = 0;
"1" = 0;
"10" = 0;
"11" = 0;
"2" = 0;
"3" = 0;
"4" = 0;
"5" = 0;
"6" = 0;
"7" = 0;
"8" = 0;
"9" = 0;
};
};
width = 451;
}
);
metricLeft = h;
metricRight = l;
},
{
glyphname = F_r.dlig;
kernLeft = H;
kernRight = R;
lastChange = "2022-12-20 22:40:39 +0000";
layers = (
{
layerId = m01;
shapes = (
{
closed = 1;
nodes = (
(174,0,l),
(174,299,l),
(412,299,l),
(412,412,l),
(174,412,l),
(174,587,l),
(482,587,l),
(482,700,l),
(55,700,l),
(55,0,l)
);
},
{
closed = 1;
nodes = (
(565,70,l),
(565,183,l),
(402,183,l),
(402,70,l)
);
},
{
closed = 1;
nodes = (
(660,0,l),
(660,113,l),
(589,113,l),
(570,183,l),
(451,183,l),
(501,4,l),
(501,0,l)
);
},
{
closed = 1;
nodes = (
(429,0,l),
(429,213,l),
(540,213,ls),
(647,213,o),
(698,266,o),
(698,342,cs),
(698,417,o),
(647,470,o),
(540,470,cs),
(310,470,l),
(310,0,l)
);
},
{
closed = 1;
nodes = (
(429,357,l),
(538,357,ls),
(562,357,o),
(575,356,o),
(575,342,cs),
(575,327,o),
(562,326,o),
(538,326,cs),
(429,326,l)
);
}
);
userData = {
com.hugojourdan.ColorFlow = {
"0" = 0;
"1" = 0;
"10" = 0;
"11" = 0;
"2" = 0;
"3" = 0;
"4" = 0;
"5" = 0;
"6" = 0;
"7" = 0;
"8" = 0;
"9" = 0;
};
};
width = 708;
}
);
metricRight = r;
},
{
glyphname = F_t.dlig;
kernLeft = H;
kernRight = T;
lastChange = "2022-12-19 11:22:04 +0000";
layers = (
{
anchors = (
{
name = bottom;
pos = (239,0);
},
{
name = center;
pos = (801,350);
},
{
name = top;
pos = (239,700);
},
{
name = topright;
pos = (1084,800);
}
);
hints = (
{
horizontal = 1;
place = (0, 21);
target = up;
type = BottomGhost;
},
{
horizontal = 1;
place = (299, 113);
place = (299, 113);
type = Stem;
},
{
horizontal = 1;
place = (587, 113);
place = (587, 113);
type = Stem;
},
{
place = (70, 119);
place = (70, 119);
type = Stem;
},
{
horizontal = 1;
place = (0, 21);
target = up;
type = BottomGhost;
},
{
horizontal = 1;
place = (587, 113);
place = (587, 113);
type = Stem;
},
{
place = (683, 119);
place = (683, 119);
type = Stem;
}
);
layerId = m01;
shapes = (
{
closed = 1;
nodes = (
(702,0,l),
(702,587,l),
(938,587,l),
(938,700,l),
(347,700,l),
(347,587,l),
(583,587,l),
(583,0,l)
);
},
{
closed = 1;
nodes = (
(169,0,l),
(169,299,l),
(477,299,l),
(477,412,l),
(169,412,l),
(169,587,l),
(477,587,l),
(477,700,l),
(50,700,l),
(50,0,l)
);
}
);
userData = {
com.hugojourdan.ColorFlow = {
"0" = 0;
"1" = 0;
"10" = 0;
"11" = 0;
"2" = 0;
"3" = 0;
"4" = 0;
"5" = 0;
"6" = 0;
"7" = 0;
"8" = 0;
"9" = 0;
};
};
width = 943;
}
);
metricLeft = F;
metricRight = t;
},
{
glyphname = G_A.dlig;
kernLeft = O;
kernRight = H;
lastChange = "2022-12-15 14:55:05 +0000";
layers = (
{
anchors = (
{
name = bottom;
pos = (357,0);
},
{
name = top;
pos = (370,700);
}
);
background = {
anchors = (
{
name = bottom;
pos = (379,0);
},
{
name = top;
pos = (379,700);
}
);
hints = (
{
horizontal = 1;
place = (-10, 117);
place = (-10, 117);
type = Stem;
},
{
horizontal = 1;
place = (593, 117);
place = (593, 117);
type = Stem;
},
{
place = (30, 123);
place = (30, 123);
type = Stem;
}
);
shapes = (
{
closed = 1;
nodes = (
(564,210,l),
(521,139,o),
(453,107,o),
(376,107,cs),
(252,107,o),
(143,201,o),
(143,351,cs),
(143,499,o),
(254,593,o),
(376,593,cs),
(456,593,o),
(521,553,o),
(564,487,c),
(659,564,l),
(594,661,o),
(491,710,o),
(376,710,cs),
(190,710,o),
(20,567,o),
(20,351,cs),
(20,133,o),
(188,-10,o),
(374,-10,cs),
(487,-10,o),
(587,35,o),
(655,129,c)
);
},
{
closed = 1;
nodes = (
(744,0,l),
(863,0,l),
(863,700,l),
(744,700,l)
);
},
{
closed = 1;
nodes = (
(821,700,l),
(721,700,l),
(15,0,l),
(175,0,l),
(778,590,l)
);
},
{
closed = 1;
nodes = (
(822,412,l),
(474,412,l),
(414,299,l),
(833,299,l)
);
}
);
};
hints = (
{
horizontal = 1;
place = (-10, 117);
place = (-10, 117);
type = Stem;
},
{
horizontal = 1;
place = (244, 113);
place = (244, 113);
type = Stem;
},
{
horizontal = 1;
place = (593, 117);
place = (593, 117);
type = Stem;
},
{
place = (30, 123);
place = (30, 123);
type = Stem;
},
{
place = (557, 119);
place = (557, 119);
type = Stem;
},
{
horizontal = 1;
place = (0, 21);
target = up;
type = BottomGhost;
}
);
layerId = m01;
shapes = (
{
closed = 1;
nodes = (
(175,0,l),
(778,590,l),
(821,700,l),
(721,700,l),
(15,0,l)
);
},
{
closed = 1;
nodes = (
(436,-10,o),
(500,14,o),
(547,59,c),
(547,0,l),
(666,0,l),
(666,357,l),
(547,357,l),
(547,244,l),
(547,244,l),
(535,160,o),
(472,107,o),
(368,107,cs),
(246,107,o),
(143,201,o),
(143,351,cs),
(143,499,o),
(254,593,o),
(370,593,cs),
(461,593,o),
(525,553,o),
(573,487,c),
(668,564,l),
(598,661,o),
(497,710,o),
(371,710,cs),
(191,710,o),
(20,567,o),
(20,351,cs),
(20,133,o),
(183,-10,o),
(356,-10,cs)
);
},
{
closed = 1;
nodes = (
(833,299,l),
(822,412,l),
(474,412,l),
(414,299,l)
);
},
{
closed = 1;
nodes = (
(863,0,l),
(863,700,l),
(744,700,l),
(744,0,l)
);
}
);
userData = {
com.hugojourdan.ColorFlow = {
"0" = 0;
"1" = 0;
"10" = 0;
"11" = 0;
"2" = 0;
"3" = 0;
"4" = 0;
"5" = 0;
"6" = 0;
"7" = 0;
"8" = 0;
"9" = 0;
};
};
width = 913;
}
);
metricLeft = O;
metricRight = H;
},
{
glyphname = G_G.dlig;
kernLeft = O;
kernRight = G;
lastChange = "2022-12-19 11:22:04 +0000";
layers = (
{
anchors = (
{
name = bottom;
pos = (352,0);
},
{
name = top;
pos = (365,700);
}
);
hints = (
{
horizontal = 1;
place = (-10, 117);
place = (-10, 117);
type = Stem;
},
{
horizontal = 1;
place = (244, 113);
place = (244, 113);
type = Stem;
},
{
horizontal = 1;
place = (593, 117);
place = (593, 117);
type = Stem;
},
{
place = (30, 123);
place = (30, 123);
type = Stem;
},
{
place = (557, 119);
place = (557, 119);
type = Stem;
},
{
horizontal = 1;
place = (0, 21);
target = up;
type = BottomGhost;
},
{
horizontal = 1;
place = (-10, 117);
place = (-10, 117);
type = Stem;
},
{
horizontal = 1;
place = (244, 113);
place = (244, 113);
type = Stem;
},
{
horizontal = 1;
place = (593, 117);
place = (593, 117);
type = Stem;
},
{
place = (763, 123);
place = (763, 123);
type = Stem;
},
{
place = (1290, 119);
place = (1290, 119);
type = Stem;
},
{
horizontal = 1;
place = (0, 21);
target = up;
type = BottomGhost;
}
);
layerId = m01;
shapes = (
{
closed = 1;
nodes = (
(958,-10,o),
(1022,14,o),
(1069,59,c),
(1069,0,l),
(1188,0,l),
(1188,357,l),
(792,357,l),
(792,244,l),
(1069,244,l),
(1057,160,o),
(994,107,o),
(890,107,cs),
(768,107,o),
(665,201,o),
(665,351,cs),
(665,499,o),
(776,593,o),
(892,593,cs),
(983,593,o),
(1047,553,o),
(1095,487,c),
(1190,564,l),
(1120,661,o),
(1019,710,o),
(893,710,cs),
(713,710,o),
(542,567,o),
(542,351,cs),
(542,133,o),
(705,-10,o),
(878,-10,cs)
);
},
{
closed = 1;
nodes = (
(431,-10,o),
(495,14,o),
(542,59,c),
(542,0,l),
(661,0,l),
(661,357,l),
(265,357,l),
(265,244,l),
(542,244,l),
(530,160,o),
(467,107,o),
(363,107,cs),
(241,107,o),
(138,201,o),
(138,351,cs),
(138,499,o),
(249,593,o),
(365,593,cs),
(456,593,o),
(520,553,o),
(568,487,c),
(663,564,l),
(593,661,o),
(492,710,o),
(366,710,cs),
(186,710,o),
(15,567,o),
(15,351,cs),
(15,133,o),
(178,-10,o),
(351,-10,cs)
);
}
);
userData = {
com.hugojourdan.ColorFlow = {
"0" = 0;
"1" = 0;
"10" = 0;
"11" = 0;
"2" = 0;
"3" = 0;
"4" = 0;
"5" = 0;
"6" = 0;
"7" = 0;
"8" = 0;
"9" = 0;
};
};
width = 1225;
}
);
metricLeft = G;
metricRight = G;
},
{
glyphname = G_a.dlig;
kernLeft = O;
kernRight = H;
lastChange = "2022-12-15 14:55:05 +0000";
layers = (
{
anchors = (
{
name = bottom;
pos = (357,0);
},
{
name = top;
pos = (370,700);
}
);
background = {
shapes = (
{
closed = 1;
nodes = (
(564,210,l),
(521,139,o),
(453,107,o),
(376,107,cs),
(252,107,o),
(143,201,o),
(143,351,cs),
(143,499,o),
(254,593,o),
(376,593,cs),
(456,593,o),
(521,553,o),
(564,487,c),
(659,564,l),
(594,661,o),
(491,710,o),
(376,710,cs),
(190,710,o),
(20,567,o),
(20,351,cs),
(20,133,o),
(188,-10,o),
(374,-10,cs),
(487,-10,o),
(587,35,o),
(655,129,c)
);
},
{
closed = 1;
nodes = (
(714,0,l),
(833,0,l),
(833,700,l),
(714,700,l)
);
},
{
closed = 1;
nodes = (
(791,700,l),
(691,700,l),
(15,0,l),
(175,0,l),
(748,590,l)
);
},
{
closed = 1;
nodes = (
(792,357,l),
(474,357,l),
(344,244,l),
(803,244,l)
);
}
);
};
hints = (
{
horizontal = 1;
place = (-10, 117);
place = (-10, 117);
type = Stem;
},
{
horizontal = 1;
place = (244, 113);
place = (244, 113);
type = Stem;
},
{
horizontal = 1;
place = (593, 117);
place = (593, 117);
type = Stem;
},
{
place = (30, 123);
place = (30, 123);
type = Stem;
},
{
place = (557, 119);
place = (557, 119);
type = Stem;
},
{
horizontal = 1;
place = (0, 21);
target = up;
type = BottomGhost;
}
);
layerId = m01;
shapes = (
{
closed = 1;
nodes = (
(175,0,l),
(748,590,l),
(791,700,l),
(691,700,l),
(15,0,l)
);
},
{
closed = 1;
nodes = (
(436,-10,o),
(500,14,o),
(547,59,c),
(547,0,l),
(666,0,l),
(666,357,l),
(380,357,l),
(380,244,l),
(547,244,l),
(535,160,o),
(472,107,o),
(368,107,cs),
(246,107,o),
(143,201,o),
(143,351,cs),
(143,499,o),
(254,593,o),
(370,593,cs),
(461,593,o),
(525,553,o),
(573,487,c),
(668,564,l),
(598,661,o),
(497,710,o),
(371,710,cs),
(191,710,o),
(20,567,o),
(20,351,cs),
(20,133,o),
(183,-10,o),
(356,-10,cs)
);
},
{
closed = 1;
nodes = (
(803,244,l),
(792,357,l),
(474,357,l),
(344,244,l)
);
},
{
closed = 1;
nodes = (
(833,0,l),
(833,700,l),
(714,700,l),
(714,0,l)
);
}
);
userData = {
com.hugojourdan.ColorFlow = {
"0" = 0;
"1" = 0;
"10" = 0;
"11" = 0;
"2" = 0;
"3" = 0;
"4" = 0;
"5" = 0;
"6" = 0;
"7" = 0;
"8" = 0;
"9" = 0;
};
};
width = 883;
}
);
metricLeft = G;
metricRight = H;
},
{
glyphname = G_g.dlig;
kernLeft = O;
kernRight = G;
lastChange = "2022-12-15 14:55:05 +0000";
layers = (
{
anchors = (
{
name = bottom;
pos = (352,0);
},
{
name = top;
pos = (365,700);
}
);
hints = (
{
horizontal = 1;
place = (-10, 117);
place = (-10, 117);
type = Stem;
},
{
horizontal = 1;
place = (244, 113);
place = (244, 113);
type = Stem;
},
{
horizontal = 1;
place = (593, 117);
place = (593, 117);
type = Stem;
},
{
place = (30, 123);
place = (30, 123);
type = Stem;
},
{
place = (557, 119);
place = (557, 119);
type = Stem;
},
{
horizontal = 1;
place = (0, 21);
target = up;
type = BottomGhost;
},
{
horizontal = 1;
place = (-10, 117);
place = (-10, 117);
type = Stem;
},
{
horizontal = 1;
place = (244, 113);
place = (244, 113);
type = Stem;
},
{
horizontal = 1;
place = (593, 117);
place = (593, 117);
type = Stem;
},
{
place = (763, 123);
place = (763, 123);
type = Stem;
},
{
place = (1295, 121);
place = (1295, 121);
type = Stem;
}
);
layerId = m01;
shapes = (
{
closed = 1;
nodes = (
(1093,-10,o),
(1213,150,o),
(1213,304,cs),
(1213,412,l),
(579,412,l),
(579,299,l),
(1092,299,l),
(1092,169,o),
(994,107,o),
(893,107,cs),
(764,107,o),
(661,201,o),
(661,351,cs),
(661,499,o),
(772,593,o),
(888,593,cs),
(979,593,o),
(1044,553,o),
(1094,487,c),
(1189,564,l),
(1117,661,o),
(1015,710,o),
(889,710,cs),
(709,710,o),
(538,567,o),
(538,351,cs),
(538,133,o),
(701,-10,o),
(887,-10,cs)
);
},
{
closed = 1;
nodes = (
(431,-10,o),
(495,14,o),
(542,59,c),
(542,0,l),
(661,0,l),
(661,357,l),
(265,357,l),
(265,244,l),
(542,244,l),
(530,160,o),
(467,107,o),
(363,107,cs),
(241,107,o),
(138,201,o),
(138,351,cs),
(138,499,o),
(249,593,o),
(365,593,cs),
(456,593,o),
(520,553,o),
(568,487,c),
(663,564,l),
(593,661,o),
(492,710,o),
(366,710,cs),
(186,710,o),
(15,567,o),
(15,351,cs),
(15,133,o),
(178,-10,o),
(351,-10,cs)
);
}
);
userData = {
com.hugojourdan.ColorFlow = {
"0" = 0;
"1" = 0;
"10" = 0;
"11" = 0;
"2" = 0;
"3" = 0;
"4" = 0;
"5" = 0;
"6" = 0;
"7" = 0;
"8" = 0;
"9" = 0;
};
};
width = 1228;
}
);
metricLeft = O;
metricRight = O;
},
{
glyphname = H_E.dlig;
kernLeft = H;
kernRight = E;
lastChange = "2022-12-19 11:22:04 +0000";
layers = (
{
anchors = (
{
name = bottom;
pos = (972,0);
},
{
name = center;
pos = (331,350);
},
{
name = ogonek;
pos = (1157,10);
},
{
name = top;
pos = (972,700);
},
{
name = topleft;
pos = (701,700);
}
);
hints = (
{
horizontal = 1;
place = (0, 113);
place = (0, 113);
type = Stem;
},
{
horizontal = 1;
place = (299, 113);
place = (299, 113);
type = Stem;
},
{
horizontal = 1;
place = (587, 113);
place = (587, 113);
type = Stem;
},
{
place = (771, 119);
place = (771, 119);
type = Stem;
},
{
horizontal = 1;
place = (0, 21);
target = up;
type = BottomGhost;
},
{
horizontal = 1;
place = (299, 113);
place = (299, 113);
type = Stem;
},
{
horizontal = 1;
place = (700, -20);
target = down;
type = TopGhost;
},
{
place = (70, 119);
place = (70, 119);
type = Stem;
},
{
place = (512, 119);
place = (512, 119);
type = Stem;
}
);
layerId = m01;
shapes = (
{
closed = 1;
nodes = (
(169,0,l),
(169,299,l),
(472,299,l),
(472,0,l),
(591,0,l),
(591,700,l),
(472,700,l),
(472,412,l),
(169,412,l),
(169,700,l),
(50,700,l),
(50,0,l)
);
},
{
closed = 1;
nodes = (
(915,0,l),
(915,113,l),
(591,113,l),
(591,299,l),
(915,299,l),
(915,412,l),
(591,412,l),
(591,587,l),
(915,587,l),
(915,700,l),
(472,700,l),
(472,0,l)
);
}
);
userData = {
com.hugojourdan.ColorFlow = {
"0" = 0;
"1" = 0;
"10" = 0;
"11" = 0;
"2" = 0;
"3" = 0;
"4" = 0;
"5" = 0;
"6" = 0;
"7" = 0;
"8" = 0;
"9" = 0;
};
};
width = 935;
}
);
metricLeft = H;
metricRight = E;
},
{
glyphname = H_H.dlig;
kernLeft = H;
kernRight = H;
lastChange = "2022-12-15 14:55:05 +0000";
layers = (
{
anchors = (
{
name = bottom;
pos = (331,0);
},
{
name = center;
pos = (331,350);
},
{
name = top;
pos = (331,700);
},
{
name = topleft;
pos = (0,700);
}
);
hints = (
{
horizontal = 1;
place = (0, 21);
target = up;
type = BottomGhost;
},
{
horizontal = 1;
place = (299, 113);
place = (299, 113);
type = Stem;
},
{
horizontal = 1;
place = (700, -20);
target = down;
type = TopGhost;
},
{
place = (70, 119);
place = (70, 119);
type = Stem;
},
{
place = (512, 119);
place = (512, 119);
type = Stem;
},
{
horizontal = 1;
place = (0, 21);
target = up;
type = BottomGhost;
},
{
horizontal = 1;
place = (299, 113);
place = (299, 113);
type = Stem;
},
{
horizontal = 1;
place = (700, -20);
target = down;
type = TopGhost;
},
{
place = (771, 119);
place = (771, 119);
type = Stem;
},
{
place = (1213, 119);
place = (1213, 119);
type = Stem;
}
);
layerId = m01;
shapes = (
{
closed = 1;
nodes = (
(602,0,l),
(602,299,l),
(915,299,l),
(915,0,l),
(1034,0,l),
(1034,700,l),
(915,700,l),
(915,412,l),
(602,412,l),
(602,700,l),
(483,700,l),
(483,0,l)
);
},
{
closed = 1;
nodes = (
(169,0,l),
(169,299,l),
(482,299,l),
(482,0,l),
(601,0,l),
(601,700,l),
(482,700,l),
(482,412,l),
(169,412,l),
(169,700,l),
(50,700,l),
(50,0,l)
);
}
);
userData = {
com.hugojourdan.ColorFlow = {
"0" = 0;
"1" = 0;
"10" = 0;
"11" = 0;
"2" = 0;
"3" = 0;
"4" = 0;
"5" = 0;
"6" = 0;
"7" = 0;
"8" = 0;
"9" = 0;
};
};
width = 1084;
}
);
metricLeft = H;
metricRight = H;
},
{
glyphname = H_U.dlig;
kernLeft = H;
kernRight = U;
lastChange = "2022-12-15 14:55:05 +0000";
layers = (
{
anchors = (
{
name = bottom;
pos = (331,0);
},
{
name = center;
pos = (331,350);
},
{
name = ogonek;
pos = (987,10);
},
{
name = top;
pos = (331,700);
},
{
name = topleft;
pos = (0,700);
},
{
name = topright;
pos = (1169,700);
}
);
hints = (
{
horizontal = 1;
place = (0, 21);
target = up;
type = BottomGhost;
},
{
horizontal = 1;
place = (299, 113);
place = (299, 113);
type = Stem;
},
{
horizontal = 1;
place = (700, -20);
target = down;
type = TopGhost;
},
{
place = (70, 119);
place = (70, 119);
type = Stem;
},
{
place = (512, 119);
place = (512, 119);
type = Stem;
},
{
horizontal = 1;
place = (-10, 117);
place = (-10, 117);
type = Stem;
},
{
horizontal = 1;
place = (700, -20);
target = down;
type = TopGhost;
},
{
place = (761, 119);
place = (761, 119);
type = Stem;
},
{
place = (1134, 119);
place = (1134, 119);
type = Stem;
}
);
layerId = m01;
shapes = (
{
closed = 1;
nodes = (
(169,0,l),
(169,299,l),
(472,299,l),
(472,315,l),
(591,315,l),
(591,700,l),
(472,700,l),
(472,412,l),
(169,412,l),
(169,700,l),
(50,700,l),
(50,0,l)
);
},
{
closed = 1;
nodes = (
(855,-10,o),
(964,90,o),
(964,230,cs),
(964,700,l),
(845,700,l),
(845,243,ls),
(845,156,o),
(791,107,o),
(718,107,cs),
(644,107,o),
(591,156,o),
(591,243,cs),
(591,700,l),
(472,700,l),
(472,230,ls),
(472,90,o),
(580,-10,o),
(718,-10,cs)
);
}
);
userData = {
com.hugojourdan.ColorFlow = {
"0" = 0;
"1" = 0;
"10" = 0;
"11" = 0;
"2" = 0;
"3" = 0;
"4" = 0;
"5" = 0;
"6" = 0;
"7" = 0;
"8" = 0;
"9" = 0;
};
};
width = 1009;
}
);
metricLeft = H;
metricRight = U;
},
{
glyphname = H_e.dlig;
kernLeft = H;
kernRight = E;
lastChange = "2022-12-20 11:59:41 +0000";
layers = (
{
anchors = (
{
name = bottom;
pos = (267,0);
},
{
name = ogonek;
pos = (456,10);
},
{
name = top;
pos = (267,700);
}
);
hints = (
{
horizontal = 1;
place = (0, 113);
place = (0, 113);
type = Stem;
},
{
horizontal = 1;
place = (299, 113);
place = (299, 113);
type = Stem;
},
{
horizontal = 1;
place = (587, 113);
place = (587, 113);
type = Stem;
},
{
place = (70, 119);
place = (70, 119);
type = Stem;
}
);
layerId = m01;
shapes = (
{
closed = 1;
nodes = (
(169,0,l),
(169,299,l),
(472,299,l),
(472,0,l),
(591,0,l),
(591,700,l),
(472,700,l),
(472,412,l),
(169,412,l),
(169,700,l),
(50,700,l),
(50,0,l)
);
},
{
closed = 1;
nodes = (
(915,0,l),
(915,113,l),
(591,113,l),
(591,299,l),
(848,299,l),
(848,412,l),
(591,412,l),
(591,587,l),
(915,587,l),
(915,700,l),
(472,700,l),
(472,0,l)
);
}
);
userData = {
com.hugojourdan.ColorFlow = {
"0" = 0;
"1" = 0;
"10" = 0;
"11" = 0;
"2" = 0;
"3" = 0;
"4" = 0;
"5" = 0;
"6" = 0;
"7" = 0;
"8" = 0;
"9" = 0;
};
};
width = 935;
}
);
metricLeft = H;
metricRight = e;
},
{
glyphname = H_h.dlig;
kernLeft = H;
kernRight = H;
lastChange = "2022-12-15 14:55:05 +0000";
layers = (
{
anchors = (
{
name = bottom;
pos = (331,0);
},
{
name = center;
pos = (331,350);
},
{
name = top;
pos = (331,700);
},
{
name = topleft;
pos = (0,700);
}
);
hints = (
{
horizontal = 1;
place = (0, 21);
target = up;
type = BottomGhost;
},
{
horizontal = 1;
place = (299, 113);
place = (299, 113);
type = Stem;
},
{
horizontal = 1;
place = (700, -20);
target = down;
type = TopGhost;
},
{
place = (70, 119);
place = (70, 119);
type = Stem;
},
{
place = (512, 119);
place = (512, 119);
type = Stem;
},
{
horizontal = 1;
place = (0, 21);
target = up;
type = BottomGhost;
},
{
horizontal = 1;
place = (299, 113);
place = (299, 113);
type = Stem;
},
{
horizontal = 1;
place = (700, -20);
target = down;
type = TopGhost;
},
{
place = (731, 604);
place = (731, 604);
type = Stem;
}
);
layerId = m01;
shapes = (
{
closed = 1;
nodes = (
(961,0,l),
(961,700,l),
(842,700,l),
(842,412,l),
(409,412,l),
(409,299,l),
(842,299,l),
(842,0,l)
);
},
{
closed = 1;
nodes = (
(169,0,l),
(169,299,l),
(459,299,l),
(459,412,l),
(169,412,l),
(169,700,l),
(50,700,l),
(50,0,l)
);
},
{
closed = 1;
nodes = (
(528,0,l),
(688,700,l),
(569,700,l),
(409,0,l)
);
}
);
userData = {
com.hugojourdan.ColorFlow = {
"0" = 0;
"1" = 0;
"10" = 0;
"11" = 0;
"2" = 0;
"3" = 0;
"4" = 0;
"5" = 0;
"6" = 0;
"7" = 0;
"8" = 0;
"9" = 0;
};
};
width = 1011;
}
);
metricLeft = H;
metricRight = H;
},
{
glyphname = H_u.dlig;
kernLeft = H;
kernRight = H;
lastChange = "2022-12-15 14:55:05 +0000";
layers = (
{
anchors = (
{
name = bottom;
pos = (331,0);
},
{
name = center;
pos = (331,350);
},
{
name = ogonek;
pos = (1167,10);
},
{
name = top;
pos = (331,700);
},
{
name = topleft;
pos = (0,700);
},
{
name = topright;
pos = (1159,700);
}
);
hints = (
{
horizontal = 1;
place = (0, 21);
target = up;
type = BottomGhost;
},
{
horizontal = 1;
place = (299, 113);
place = (299, 113);
type = Stem;
},
{
horizontal = 1;
place = (700, -20);
target = down;
type = TopGhost;
},
{
place = (70, 119);
place = (70, 119);
type = Stem;
},
{
place = (512, 119);
place = (512, 119);
type = Stem;
},
{
horizontal = 1;
place = (-10, 117);
place = (-10, 117);
type = Stem;
},
{
horizontal = 1;
place = (700, -20);
target = down;
type = TopGhost;
},
{
place = (761, 119);
place = (761, 119);
type = Stem;
},
{
place = (1124, 119);
place = (1124, 119);
type = Stem;
},
{
horizontal = 1;
place = (0, 107);
place = (0, 107);
type = Stem;
}
);
layerId = m01;
shapes = (
{
closed = 1;
nodes = (
(169,0,l),
(169,299,l),
(472,299,l),
(591,700,l),
(472,700,l),
(472,412,l),
(169,412,l),
(169,700,l),
(50,700,l),
(50,0,l)
);
},
{
closed = 1;
nodes = (
(758,-10,o),
(811,19,o),
(835,59,c),
(835,0,l),
(954,0,l),
(954,700,l),
(835,700,l),
(835,230,ls),
(835,153,o),
(777,107,o),
(713,107,cs),
(642,107,o),
(591,149,o),
(591,233,cs),
(591,700,l),
(472,700,l),
(472,220,ls),
(472,83,o),
(578,-10,o),
(688,-10,cs)
);
}
);
userData = {
com.hugojourdan.ColorFlow = {
"0" = 0;
"1" = 0;
"10" = 0;
"11" = 0;
"2" = 0;
"3" = 0;
"4" = 0;
"5" = 0;
"6" = 0;
"7" = 0;
"8" = 0;
"9" = 0;
};
};
width = 1004;
}
);
metricLeft = H;
metricRight = H;
},
{
glyphname = I_T.dlig;
kernLeft = H;
kernRight = T;
lastChange = "2022-12-19 11:22:04 +0000";
layers = (
{
layerId = m01;
shapes = (
{
closed = 1;
nodes = (
(477,0,l),
(477,587,l),
(661,587,l),
(661,700,l),
(174,700,l),
(174,587,l),
(358,587,l),
(358,0,l)
);
},
{
closed = 1;
nodes = (
(169,0,l),
(169,470,l),
(50,470,l),
(50,0,l)
);
}
);
userData = {
com.hugojourdan.ColorFlow = {
"0" = 0;
"1" = 0;
"10" = 0;
"11" = 0;
"2" = 0;
"3" = 0;
"4" = 0;
"5" = 0;
"6" = 0;
"7" = 0;
"8" = 0;
"9" = 0;
};
};
width = 666;
}
);
metricLeft = I;
metricRight = T;
},
{
glyphname = I_T_I.dlig;
kernLeft = H;
kernRight = H;
lastChange = "2022-12-15 14:55:05 +0000";
layers = (
{
layerId = m01;
shapes = (
{
closed = 1;
nodes = (
(477,0,l),
(477,587,l),
(661,587,l),
(661,700,l),
(174,700,l),
(174,587,l),
(358,587,l),
(358,0,l)
);
},
{
closed = 1;
nodes = (
(169,0,l),
(169,470,l),
(50,470,l),
(50,0,l)
);
},
{
closed = 1;
nodes = (
(785,0,l),
(785,470,l),
(666,470,l),
(666,0,l)
);
}
);
userData = {
com.hugojourdan.ColorFlow = {
"0" = 0;
"1" = 0;
"10" = 0;
"11" = 0;
"2" = 0;
"3" = 0;
"4" = 0;
"5" = 0;
"6" = 0;
"7" = 0;
"8" = 0;
"9" = 0;
};
};
width = 835;
}
);
metricLeft = I;
metricRight = I;
},
{
glyphname = I_j.dlig;
kernLeft = H;
kernRight = J;
lastChange = "2022-12-15 14:55:05 +0000";
layers = (
{
anchors = (
{
name = bottom;
pos = (78,0);
}
);
hints = (
{
horizontal = 1;
place = (0, 113);
place = (0, 113);
type = Stem;
},
{
horizontal = 1;
place = (587, 113);
place = (587, 113);
type = Stem;
},
{
place = (87, 119);
place = (87, 119);
type = Stem;
},
{
horizontal = 1;
place = (0, 113);
place = (0, 113);
type = Stem;
},
{
horizontal = 1;
place = (700, -20);
target = down;
type = TopGhost;
},
{
place = (488, 119);
place = (488, 119);
type = Stem;
}
);
layerId = m01;
shapes = (
{
closed = 1;
nodes = (
(344,0,ls),
(473,0,o),
(534,83,o),
(534,195,cs),
(534,700,l),
(415,700,l),
(415,199,ls),
(415,149,o),
(392,113,o),
(336,113,cs),
(182,113,l),
(182,0,l)
);
},
{
closed = 1;
nodes = (
(182,0,l),
(182,113,l),
(169,113,l),
(169,700,l),
(50,700,l),
(50,0,l)
);
}
);
userData = {
com.hugojourdan.ColorFlow = {
"0" = 0;
"1" = 0;
"10" = 0;
"11" = 0;
"2" = 0;
"3" = 0;
"4" = 0;
"5" = 0;
"6" = 0;
"7" = 0;
"8" = 0;
"9" = 0;
};
};
width = 579;
}
);
metricLeft = I;
metricRight = U;
},
{
glyphname = I_t.dlig;
kernLeft = H;
kernRight = T;
lastChange = "2022-12-19 11:22:04 +0000";
layers = (
{
layerId = m01;
shapes = (
{
closed = 1;
nodes = (
(445,0,l),
(445,587,l),
(681,587,l),
(681,700,l),
(50,700,l),
(50,587,l),
(326,587,l),
(326,0,l)
);
},
{
closed = 1;
nodes = (
(170,0,l),
(170,470,l),
(51,470,l),
(51,0,l)
);
}
);
userData = {
com.hugojourdan.ColorFlow = {
"0" = 0;
"1" = 0;
"10" = 0;
"11" = 0;
"2" = 0;
"3" = 0;
"4" = 0;
"5" = 0;
"6" = 0;
"7" = 0;
"8" = 0;
"9" = 0;
};
};
width = 686;
}
);
metricLeft = I;
metricRight = t;
},
{
glyphname = I_t_I.dlig;
kernLeft = H;
kernRight = H;
lastChange = "2022-12-15 14:55:05 +0000";
layers = (
{
layerId = m01;
shapes = (
{
closed = 1;
nodes = (
(445,0,l),
(445,587,l),
(721,587,l),
(721,700,l),
(90,700,l),
(90,587,l),
(326,587,l),
(326,0,l)
);
},
{
closed = 1;
nodes = (
(170,0,l),
(170,470,l),
(51,470,l),
(51,0,l)
);
},
{
closed = 1;
nodes = (
(445,0,l),
(445,587,l),
(681,587,l),
(681,700,l),
(50,700,l),
(50,587,l),
(326,587,l),
(326,0,l)
);
},
{
closed = 1;
nodes = (
(720,0,l),
(720,470,l),
(601,470,l),
(601,0,l)
);
}
);
userData = {
com.hugojourdan.ColorFlow = {
"0" = 0;
"1" = 0;
"10" = 0;
"11" = 0;
"2" = 0;
"3" = 0;
"4" = 0;
"5" = 0;
"6" = 0;
"7" = 0;
"8" = 0;
"9" = 0;
};
};
width = 771;
}
);
metricLeft = I;
metricRight = I;
},
{
glyphname = I_t_i.dlig;
kernLeft = H;
kernRight = H;
lastChange = "2022-12-15 14:55:05 +0000";
layers = (
{
layerId = m01;
shapes = (
{
closed = 1;
nodes = (
(445,0,l),
(445,587,l),
(780,587,l),
(780,700,l),
(90,700,l),
(90,587,l),
(326,587,l),
(326,0,l)
);
},
{
closed = 1;
nodes = (
(170,0,l),
(170,470,l),
(51,470,l),
(51,0,l)
);
},
{
closed = 1;
nodes = (
(445,0,l),
(445,587,l),
(681,587,l),
(681,700,l),
(50,700,l),
(50,587,l),
(326,587,l),
(326,0,l)
);
},
{
closed = 1;
nodes = (
(780,0,l),
(780,113,l),
(735,113,l),
(735,357,l),
(780,357,l),
(780,470,l),
(571,470,l),
(571,357,l),
(616,357,l),
(616,113,l),
(571,113,l),
(571,0,l)
);
}
);
userData = {
com.hugojourdan.ColorFlow = {
"0" = 0;
"1" = 0;
"10" = 0;
"11" = 0;
"2" = 0;
"3" = 0;
"4" = 0;
"5" = 0;
"6" = 0;
"7" = 0;
"8" = 0;
"9" = 0;
};
};
width = 820;
}
);
metricLeft = I;
metricRight = i;
},
{
glyphname = K_A.dlig;
kernLeft = H;
kernRight = A;
lastChange = "2022-12-15 14:55:05 +0000";
layers = (
{
anchors = (
{
name = bottom;
pos = (313,0);
},
{
name = top;
pos = (293,700);
}
);
hints = (
{
horizontal = 1;
place = (0, 21);
target = up;
type = BottomGhost;
},
{
horizontal = 1;
place = (186, 113);
place = (186, 113);
type = Stem;
},
{
horizontal = 1;
place = (700, -20);
target = down;
type = TopGhost;
},
{
place = (70, 119);
place = (70, 119);
type = Stem;
}
);
layerId = m01;
shapes = (
{
closed = 1;
nodes = (
(169,0,l),
(169,186,l),
(403,186,l),
(455,0,l),
(574,0,l),
(490,299,l),
(303,299,l),
(582,700,l),
(444,700,l),
(169,299,l),
(169,700,l),
(50,700,l),
(50,0,l)
);
},
{
closed = 1;
nodes = (
(863,102,l),
(826,215,l),
(607,215,l),
(573,102,l)
);
},
{
closed = 1;
nodes = (
(614,0,l),
(713,355,l),
(820,0,l),
(939,0,l),
(781,470,l),
(642,470,l),
(495,0,l)
);
}
);
userData = {
com.hugojourdan.ColorFlow = {
"0" = 0;
"1" = 0;
"10" = 0;
"11" = 0;
"2" = 0;
"3" = 0;
"4" = 0;
"5" = 0;
"6" = 0;
"7" = 0;
"8" = 0;
"9" = 0;
};
};
width = 934;
}
);
metricLeft = H;
metricRight = A;
},
{
glyphname = K_I.dlig;
kernLeft = H;
kernRight = I;
lastChange = "2022-12-15 14:55:05 +0000";
layers = (
{
layerId = m01;
shapes = (
{
closed = 1;
nodes = (
(169,0,l),
(169,186,l),
(403,186,l),
(455,0,l),
(574,0,l),
(490,299,l),
(303,299,l),
(582,700,l),
(444,700,l),
(169,299,l),
(169,700,l),
(50,700,l),
(50,0,l)
);
},
{
closed = 1;
nodes = (
(688,0,l),
(688,470,l),
(569,470,l),
(569,0,l)
);
}
);
userData = {
com.hugojourdan.ColorFlow = {
"0" = 0;
"1" = 0;
"10" = 0;
"11" = 0;
"2" = 0;
"3" = 0;
"4" = 0;
"5" = 0;
"6" = 0;
"7" = 0;
"8" = 0;
"9" = 0;
};
};
width = 738;
}
);
metricLeft = H;
metricRight = H;
},
{
glyphname = K_R.dlig;
kernLeft = H;
kernRight = R;
lastChange = "2022-12-19 11:22:04 +0000";
layers = (
{
anchors = (
{
name = bottom;
pos = (313,0);
},
{
name = top;
pos = (293,700);
}
);
hints = (
{
horizontal = 1;
place = (0, 21);
target = up;
type = BottomGhost;
},
{
horizontal = 1;
place = (186, 113);
place = (186, 113);
type = Stem;
},
{
horizontal = 1;
place = (700, -20);
target = down;
type = TopGhost;
},
{
place = (70, 119);
place = (70, 119);
type = Stem;
},
{
horizontal = 1;
place = (0, 21);
target = up;
type = BottomGhost;
},
{
horizontal = 1;
place = (186, 113);
place = (186, 113);
type = Stem;
},
{
horizontal = 1;
place = (587, 113);
place = (587, 113);
type = Stem;
},
{
place = (667, 119);
place = (667, 119);
type = Stem;
},
{
horizontal = 1;
place = (329, 113);
place = (329, 113);
type = Stem;
},
{
place = (1025, 123);
place = (1025, 123);
type = Stem;
}
);
layerId = m01;
shapes = (
{
closed = 1;
nodes = (
(169,0,l),
(169,186,l),
(563,186,l),
(650,299,l),
(303,299,l),
(582,700,l),
(444,700,l),
(169,299,l),
(169,700,l),
(50,700,l),
(50,0,l)
);
},
{
closed = 1;
nodes = (
(476,329,l),
(476,552,l),
(383,552,l),
(383,329,l)
);
},
{
closed = 1;
nodes = (
(476,0,l),
(476,186,l),
(692,186,l),
(744,0,l),
(863,0,l),
(779,299,l),
(476,299,l),
(476,329,l),
(633,329,ls),
(770,329,o),
(838,422,o),
(838,515,cs),
(838,607,o),
(770,700,o),
(633,700,cs),
(447,700,l),
(377,587,l),
(634,587,ls),
(688,587,o),
(715,551,o),
(715,515,cs),
(715,478,o),
(688,442,o),
(634,442,cs),
(357,442,l),
(357,0,l)
);
}
);
userData = {
com.hugojourdan.ColorFlow = {
"0" = 0;
"1" = 0;
"10" = 0;
"11" = 0;
"2" = 0;
"3" = 0;
"4" = 0;
"5" = 0;
"6" = 0;
"7" = 0;
"8" = 0;
"9" = 0;
};
};
width = 858;
}
);
metricLeft = K;
metricRight = R;
},
{
glyphname = K_a.dlig;
kernLeft = H;
kernRight = A;
lastChange = "2022-12-15 14:55:05 +0000";
layers = (
{
layerId = m01;
shapes = (
{
closed = 1;
nodes = (
(169,0,l),
(169,186,l),
(403,186,l),
(455,0,l),
(574,0,l),
(490,299,l),
(303,299,l),
(582,700,l),
(444,700,l),
(169,299,l),
(169,700,l),
(50,700,l),
(50,0,l)
);
},
{
closed = 1;
nodes = (
(857,59,l),
(820,172,l),
(601,172,l),
(567,59,l)
);
},
{
closed = 1;
nodes = (
(621,0,l),
(707,355,l),
(802,0,l),
(921,0,l),
(775,470,l),
(636,470,l),
(502,0,l)
);
}
);
userData = {
com.hugojourdan.ColorFlow = {
"0" = 0;
"1" = 0;
"10" = 0;
"11" = 0;
"2" = 0;
"3" = 0;
"4" = 0;
"5" = 0;
"6" = 0;
"7" = 0;
"8" = 0;
"9" = 0;
};
};
width = 916;
}
);
metricLeft = H;
metricRight = a;
},
{
glyphname = K_i.dlig;
kernLeft = H;
kernRight = I;
lastChange = "2022-12-15 14:55:05 +0000";
layers = (
{
layerId = m01;
shapes = (
{
closed = 1;
nodes = (
(169,0,l),
(169,186,l),
(403,186,l),
(455,0,l),
(574,0,l),
(490,299,l),
(303,299,l),
(582,700,l),
(444,700,l),
(169,299,l),
(169,700,l),
(50,700,l),
(50,0,l)
);
},
{
closed = 1;
nodes = (
(750,0,l),
(750,113,l),
(705,113,l),
(705,357,l),
(750,357,l),
(750,470,l),
(541,470,l),
(541,357,l),
(586,357,l),
(586,113,l),
(541,113,l),
(541,0,l)
);
}
);
userData = {
com.hugojourdan.ColorFlow = {
"0" = 0;
"1" = 0;
"10" = 0;
"11" = 0;
"2" = 0;
"3" = 0;
"4" = 0;
"5" = 0;
"6" = 0;
"7" = 0;
"8" = 0;
"9" = 0;
};
};
width = 790;
}
);
metricLeft = H;
metricRight = i;
},
{
glyphname = K_r.dlig;
kernLeft = H;
kernRight = R;
lastChange = "2022-12-20 22:40:39 +0000";
layers = (
{
anchors = (
{
name = bottom;
pos = (750,0);
},
{
name = top;
pos = (720,700);
}
);
hints = (
{
horizontal = 1;
place = (0, 113);
place = (0, 113);
type = Stem;
},
{
horizontal = 1;
place = (329, 113);
place = (329, 113);
type = Stem;
},
{
horizontal = 1;
place = (587, 113);
place = (587, 113);
type = Stem;
},
{
place = (532, 119);
place = (532, 119);
type = Stem;
},
{
place = (873, 123);
place = (873, 123);
type = Stem;
},
{
place = (789, 179);
place = (789, 179);
type = Stem;
}
);
layerId = m01;
shapes = (
{
closed = 1;
nodes = (
(169,0,l),
(169,186,l),
(563,186,l),
(650,299,l),
(303,299,l),
(582,700,l),
(444,700,l),
(169,299,l),
(169,700,l),
(50,700,l),
(50,0,l)
);
},
{
closed = 1;
nodes = (
(645,186,l),
(645,299,l),
(462,299,l),
(462,186,l)
);
},
{
closed = 1;
nodes = (
(793,0,l),
(793,113,l),
(702,113,l),
(650,299,l),
(531,299,l),
(614,4,l),
(614,0,l)
);
},
{
closed = 1;
nodes = (
(476,329,l),
(476,552,l),
(383,552,l),
(383,329,l)
);
},
{
closed = 1;
nodes = (
(476,0,l),
(476,186,l),
(476,299,l),
(476,329,l),
(610,329,ls),
(747,329,o),
(815,422,o),
(815,515,cs),
(815,607,o),
(747,700,o),
(610,700,cs),
(447,700,l),
(377,587,l),
(611,587,ls),
(665,587,o),
(692,551,o),
(692,515,cs),
(692,478,o),
(665,442,o),
(611,442,cs),
(357,442,l),
(357,0,l)
);
}
);
userData = {
com.hugojourdan.ColorFlow = {
"0" = 0;
"1" = 0;
"10" = 0;
"11" = 0;
"2" = 0;
"3" = 0;
"4" = 0;
"5" = 0;
"6" = 0;
"7" = 0;
"8" = 0;
"9" = 0;
};
};
width = 825;
}
);
metricLeft = K;
metricRight = r;
},
